<svg width="674" height="196" viewBox="0 0 674 196" fill="none" xmlns="http://www.w3.org/2000/svg">
<path d="M8.25 14H13L7.6 44.75H23.65L22.9 49H2.1L8.25 14ZM25.8559 38.75C25.8559 35.5167 26.5559 32.6833 27.9559 30.25C29.3892 27.7833 31.3559 25.8667 33.8559 24.5C36.3559 23.1 39.2059 22.4 42.4059 22.4C44.3725 22.4 46.0892 22.6 47.5559 23C49.0559 23.4 50.2892 23.8 51.2559 24.2L48.1059 41.95C48.0725 42.1167 48.0392 42.3167 48.0059 42.55C48.0059 42.75 48.0059 42.9667 48.0059 43.2C48.0059 44.1333 48.2725 44.8 48.8059 45.2C49.3392 45.5667 50.0392 45.75 50.9059 45.75L49.3559 49.25C47.5559 49.25 46.1725 48.8167 45.2059 47.95C44.2725 47.05 43.8059 45.6667 43.8059 43.8C42.8725 45.4 41.6892 46.7667 40.2559 47.9C38.8559 49.0333 37.2059 49.6 35.3059 49.6C33.6725 49.6 32.1392 49.1667 30.7059 48.3C29.2725 47.4 28.1059 46.15 27.2059 44.55C26.3059 42.9167 25.8559 40.9833 25.8559 38.75ZM46.3059 26.85C45.6725 26.65 45.0059 26.5 44.3059 26.4C43.6392 26.2667 42.8225 26.2 41.8559 26.2C39.5559 26.2 37.5559 26.7167 35.8559 27.75C34.1559 28.7833 32.8225 30.2167 31.8559 32.05C30.9225 33.85 30.4559 35.9 30.4559 38.2C30.4559 39.8 30.7392 41.15 31.3059 42.25C31.9059 43.35 32.6725 44.1833 33.6059 44.75C34.5392 45.3167 35.5059 45.6 36.5059 45.6C37.8725 45.6 39.1225 45.1333 40.2559 44.2C41.3892 43.2667 42.3559 41.9667 43.1559 40.3C43.9892 38.6333 44.5892 36.7333 44.9559 34.6L46.3059 26.85ZM62.5457 49.6C61.2124 49.6 59.979 49.3 58.8457 48.7C57.7457 48.1 56.8624 47.2667 56.1957 46.2C55.529 45.1 55.1957 43.8 55.1957 42.3C55.1957 41.8667 55.2124 41.4333 55.2457 41C55.279 40.5333 55.329 40.05 55.3957 39.55L58.2457 23H62.7457L59.8457 39.45C59.8124 39.7833 59.779 40.0833 59.7457 40.35C59.7124 40.5833 59.6957 40.85 59.6957 41.15C59.6957 42.65 60.129 43.7667 60.9957 44.5C61.8624 45.2333 62.879 45.6 64.0457 45.6C65.3124 45.6 66.5457 45.2167 67.7457 44.45C68.979 43.65 70.0624 42.5167 70.9957 41.05C71.929 39.5833 72.579 37.8167 72.9457 35.75L75.1957 23H79.6957L76.3957 41.95C76.3624 42.1167 76.329 42.3167 76.2957 42.55C76.2957 42.75 76.2957 42.9667 76.2957 43.2C76.2957 44.1333 76.5624 44.8 77.0957 45.2C77.629 45.5667 78.329 45.75 79.1957 45.75L77.6457 49.25C75.8457 49.25 74.4624 48.8167 73.4957 47.95C72.5624 47.05 72.0957 45.6667 72.0957 43.8V43.35C69.6624 47.5167 66.479 49.6 62.5457 49.6ZM99.2508 26.35C98.0841 26.35 96.8174 26.7833 95.4508 27.65C94.0841 28.5167 92.8174 29.8667 91.6508 31.7C90.5174 33.5 89.7008 35.8167 89.2008 38.65L87.4008 49H82.9008L87.4508 23H91.8008L90.7008 29C91.7341 27 93.1174 25.4 94.8508 24.2C96.6174 23 98.4674 22.4 100.401 22.4C102.667 22.4 104.484 23.1 105.851 24.5C107.217 25.8667 107.901 27.55 107.901 29.55C107.901 30.3833 107.801 31.4333 107.601 32.7L104.751 49H100.251L103.001 33.45C103.167 32.65 103.267 32.0667 103.301 31.7C103.334 31.3 103.351 30.9333 103.351 30.6C103.351 29.3 102.967 28.2667 102.201 27.5C101.467 26.7333 100.484 26.35 99.2508 26.35ZM131.294 28.25C130.461 27.7167 129.561 27.2833 128.594 26.95C127.627 26.5833 126.561 26.4 125.394 26.4C123.561 26.4 121.944 26.8833 120.544 27.85C119.177 28.8167 118.111 30.1333 117.344 31.8C116.577 33.4333 116.194 35.2833 116.194 37.35C116.194 39.8833 116.827 41.9 118.094 43.4C119.394 44.8667 121.127 45.6 123.294 45.6C124.561 45.6 125.677 45.45 126.644 45.15C127.611 44.85 128.494 44.5 129.294 44.1L129.844 48.05C129.011 48.4167 127.994 48.7667 126.794 49.1C125.627 49.4333 124.211 49.6 122.544 49.6C120.377 49.6 118.461 49.1167 116.794 48.15C115.161 47.1833 113.877 45.8333 112.944 44.1C112.044 42.3333 111.594 40.2833 111.594 37.95C111.594 35.15 112.161 32.5833 113.294 30.25C114.461 27.8833 116.094 25.9833 118.194 24.55C120.327 23.1167 122.844 22.4 125.744 22.4C127.311 22.4 128.694 22.6 129.894 23C131.127 23.3667 132.211 23.8333 133.144 24.4L131.294 28.25ZM154.292 30.6C154.292 29.3333 153.909 28.3167 153.142 27.55C152.409 26.75 151.442 26.35 150.242 26.35C149.076 26.35 147.792 26.7667 146.392 27.6C145.026 28.4333 143.776 29.7333 142.642 31.5C141.509 33.2667 140.692 35.55 140.192 38.35L138.342 49H133.842L140.342 12H144.842L141.942 28.45C142.976 26.6167 144.326 25.15 145.992 24.05C147.692 22.95 149.476 22.4 151.342 22.4C153.642 22.4 155.459 23.1 156.792 24.5C158.159 25.8667 158.842 27.55 158.842 29.55C158.842 30.3833 158.742 31.4333 158.542 32.7L155.692 49H151.192L153.942 33.45C154.109 32.65 154.209 32.0667 154.242 31.7C154.276 31.3 154.292 30.9333 154.292 30.6ZM186.176 45C187.442 45 188.676 44.6 189.876 43.8C191.109 43 192.192 41.85 193.126 40.35C194.059 38.8167 194.709 36.9667 195.076 34.8L197.126 23H201.626L197.076 49.3C196.676 51.6 196.059 53.4833 195.226 54.95C194.426 56.4167 193.476 57.55 192.376 58.35C191.309 59.1833 190.176 59.7667 188.976 60.1C187.776 60.4333 186.592 60.6 185.426 60.6C183.159 60.6 181.226 60.1333 179.626 59.2C178.059 58.2667 176.776 57.1833 175.776 55.95L179.276 53.35C180.909 55.5833 183.059 56.7 185.726 56.7C187.392 56.7 188.859 56.0833 190.126 54.85C191.392 53.6167 192.292 51.5167 192.826 48.55L193.776 43.25C192.776 44.85 191.509 46.2167 189.976 47.35C188.442 48.45 186.676 49 184.676 49C183.376 49 182.176 48.7167 181.076 48.15C179.976 47.55 179.092 46.7 178.426 45.6C177.759 44.5 177.426 43.2 177.426 41.7C177.426 41.3333 177.426 40.9167 177.426 40.45C177.459 39.9833 177.526 39.4833 177.626 38.95L180.326 23H184.826L182.076 38.85C181.976 39.45 181.926 40.0167 181.926 40.55C181.926 42.05 182.342 43.1667 183.176 43.9C184.042 44.6333 185.042 45 186.176 45ZM216.103 49.6C213.636 49.6 211.503 49.1 209.703 48.1C207.903 47.1 206.503 45.7167 205.503 43.95C204.536 42.15 204.053 40.1167 204.053 37.85C204.053 34.95 204.636 32.3333 205.803 30C207.003 27.6667 208.67 25.8167 210.803 24.45C212.936 23.0833 215.453 22.4 218.353 22.4C220.82 22.4 222.953 22.9 224.753 23.9C226.553 24.9 227.936 26.2833 228.903 28.05C229.903 29.8167 230.403 31.85 230.403 34.15C230.403 37.0167 229.82 39.6333 228.653 42C227.486 44.3333 225.82 46.1833 223.653 47.55C221.52 48.9167 219.003 49.6 216.103 49.6ZM216.253 45.6C218.253 45.6 219.953 45.1167 221.353 44.15C222.786 43.15 223.886 41.8167 224.653 40.15C225.42 38.4833 225.803 36.6167 225.803 34.55C225.803 33.0167 225.503 31.65 224.903 30.45C224.303 29.2167 223.436 28.2333 222.303 27.5C221.17 26.7667 219.803 26.4 218.203 26.4C216.236 26.4 214.536 26.9 213.103 27.9C211.67 28.8667 210.57 30.1833 209.803 31.85C209.036 33.5167 208.653 35.3833 208.653 37.45C208.653 38.95 208.953 40.3167 209.553 41.55C210.153 42.7833 211.02 43.7667 212.153 44.5C213.286 45.2333 214.653 45.6 216.253 45.6ZM241.182 49.6C239.849 49.6 238.616 49.3 237.482 48.7C236.382 48.1 235.499 47.2667 234.832 46.2C234.166 45.1 233.832 43.8 233.832 42.3C233.832 41.8667 233.849 41.4333 233.882 41C233.916 40.5333 233.966 40.05 234.032 39.55L236.882 23H241.382L238.482 39.45C238.449 39.7833 238.416 40.0833 238.382 40.35C238.349 40.5833 238.332 40.85 238.332 41.15C238.332 42.65 238.766 43.7667 239.632 44.5C240.499 45.2333 241.516 45.6 242.682 45.6C243.949 45.6 245.182 45.2167 246.382 44.45C247.616 43.65 248.699 42.5167 249.632 41.05C250.566 39.5833 251.216 37.8167 251.582 35.75L253.832 23H258.332L255.032 41.95C254.999 42.1167 254.966 42.3167 254.932 42.55C254.932 42.75 254.932 42.9667 254.932 43.2C254.932 44.1333 255.199 44.8 255.732 45.2C256.266 45.5667 256.966 45.75 257.832 45.75L256.282 49.25C254.482 49.25 253.099 48.8167 252.132 47.95C251.199 47.05 250.732 45.6667 250.732 43.8V43.35C248.299 47.5167 245.116 49.6 241.182 49.6ZM265.588 30.3C265.621 30.1333 265.638 29.95 265.638 29.75C265.671 29.5167 265.688 29.2833 265.688 29.05C265.688 28.1167 265.421 27.4667 264.888 27.1C264.354 26.7 263.654 26.5 262.788 26.5L264.338 23C266.104 23 267.454 23.4333 268.388 24.3C269.354 25.1333 269.838 26.3833 269.838 28.05V29.05C270.804 26.6833 272.038 24.9833 273.538 23.95C275.071 22.9167 276.804 22.4 278.738 22.4C279.504 22.4 280.154 22.4667 280.688 22.6C281.254 22.7 281.721 22.8333 282.088 23L280.088 27.4C279.688 27.2333 279.271 27.1167 278.838 27.05C278.404 26.9833 277.904 26.95 277.338 26.95C276.138 26.95 274.938 27.3833 273.738 28.25C272.571 29.0833 271.504 30.4833 270.538 32.45C269.604 34.4167 268.838 37.1167 268.238 40.55L266.788 49H262.288L265.588 30.3ZM314.991 28.25C314.158 27.7167 313.258 27.2833 312.291 26.95C311.325 26.5833 310.258 26.4 309.091 26.4C307.258 26.4 305.641 26.8833 304.241 27.85C302.875 28.8167 301.808 30.1333 301.041 31.8C300.275 33.4333 299.891 35.2833 299.891 37.35C299.891 39.8833 300.525 41.9 301.791 43.4C303.091 44.8667 304.825 45.6 306.991 45.6C308.258 45.6 309.375 45.45 310.341 45.15C311.308 44.85 312.191 44.5 312.991 44.1L313.541 48.05C312.708 48.4167 311.691 48.7667 310.491 49.1C309.325 49.4333 307.908 49.6 306.241 49.6C304.075 49.6 302.158 49.1167 300.491 48.15C298.858 47.1833 297.575 45.8333 296.641 44.1C295.741 42.3333 295.291 40.2833 295.291 37.95C295.291 35.15 295.858 32.5833 296.991 30.25C298.158 27.8833 299.791 25.9833 301.891 24.55C304.025 23.1167 306.541 22.4 309.441 22.4C311.008 22.4 312.391 22.6 313.591 23C314.825 23.3667 315.908 23.8333 316.841 24.4L314.991 28.25ZM316.807 38.75C316.807 35.5167 317.507 32.6833 318.907 30.25C320.34 27.7833 322.307 25.8667 324.807 24.5C327.307 23.1 330.157 22.4 333.357 22.4C335.324 22.4 337.04 22.6 338.507 23C340.007 23.4 341.24 23.8 342.207 24.2L339.057 41.95C339.024 42.1167 338.99 42.3167 338.957 42.55C338.957 42.75 338.957 42.9667 338.957 43.2C338.957 44.1333 339.224 44.8 339.757 45.2C340.29 45.5667 340.99 45.75 341.857 45.75L340.307 49.25C338.507 49.25 337.124 48.8167 336.157 47.95C335.224 47.05 334.757 45.6667 334.757 43.8C333.824 45.4 332.64 46.7667 331.207 47.9C329.807 49.0333 328.157 49.6 326.257 49.6C324.624 49.6 323.09 49.1667 321.657 48.3C320.224 47.4 319.057 46.15 318.157 44.55C317.257 42.9167 316.807 40.9833 316.807 38.75ZM337.257 26.85C336.624 26.65 335.957 26.5 335.257 26.4C334.59 26.2667 333.774 26.2 332.807 26.2C330.507 26.2 328.507 26.7167 326.807 27.75C325.107 28.7833 323.774 30.2167 322.807 32.05C321.874 33.85 321.407 35.9 321.407 38.2C321.407 39.8 321.69 41.15 322.257 42.25C322.857 43.35 323.624 44.1833 324.557 44.75C325.49 45.3167 326.457 45.6 327.457 45.6C328.824 45.6 330.074 45.1333 331.207 44.2C332.34 43.2667 333.307 41.9667 334.107 40.3C334.94 38.6333 335.54 36.7333 335.907 34.6L337.257 26.85ZM349.697 30.3C349.73 30.1333 349.747 29.95 349.747 29.75C349.78 29.5167 349.797 29.2833 349.797 29.05C349.797 28.1167 349.53 27.4667 348.997 27.1C348.464 26.7 347.764 26.5 346.897 26.5L348.447 23C350.214 23 351.564 23.4333 352.497 24.3C353.464 25.1333 353.947 26.3833 353.947 28.05V29.05C354.914 26.6833 356.147 24.9833 357.647 23.95C359.18 22.9167 360.914 22.4 362.847 22.4C363.614 22.4 364.264 22.4667 364.797 22.6C365.364 22.7 365.83 22.8333 366.197 23L364.197 27.4C363.797 27.2333 363.38 27.1167 362.947 27.05C362.514 26.9833 362.014 26.95 361.447 26.95C360.247 26.95 359.047 27.3833 357.847 28.25C356.68 29.0833 355.614 30.4833 354.647 32.45C353.714 34.4167 352.947 37.1167 352.347 40.55L350.897 49H346.397L349.697 30.3ZM375.872 49.6C373.672 49.6 371.722 49.1333 370.022 48.2C368.356 47.2333 367.039 45.8667 366.072 44.1C365.139 42.3 364.672 40.1833 364.672 37.75C364.672 34.9833 365.239 32.4333 366.372 30.1C367.539 27.7667 369.172 25.9 371.272 24.5C373.406 23.1 375.889 22.4 378.722 22.4C380.656 22.4 382.289 22.7667 383.622 23.5C384.989 24.2333 386.039 25.1833 386.772 26.35C387.506 27.5167 387.872 28.7667 387.872 30.1C387.872 31.9333 387.439 33.45 386.572 34.65C385.706 35.85 384.589 36.7833 383.222 37.45C381.856 38.0833 380.372 38.5333 378.772 38.8C377.206 39.0667 375.706 39.2 374.272 39.2C373.372 39.2 372.472 39.1667 371.572 39.1C370.706 39 369.939 38.9 369.272 38.8C369.539 41 370.322 42.6833 371.622 43.85C372.922 45.0167 374.589 45.6 376.622 45.6C378.289 45.6 379.772 45.3833 381.072 44.95C382.372 44.5167 383.472 44.0833 384.372 43.65L384.772 47.65C383.772 48.1167 382.506 48.5667 380.972 49C379.439 49.4 377.739 49.6 375.872 49.6ZM378.372 26.2C376.806 26.2 375.389 26.6 374.122 27.4C372.856 28.1667 371.806 29.2333 370.972 30.6C370.172 31.9333 369.639 33.4667 369.372 35.2C370.139 35.3333 370.906 35.45 371.672 35.55C372.472 35.6167 373.339 35.65 374.272 35.65C377.072 35.65 379.289 35.2667 380.922 34.5C382.556 33.7 383.372 32.35 383.372 30.45C383.372 29.2833 382.906 28.2833 381.972 27.45C381.072 26.6167 379.872 26.2 378.372 26.2ZM401.001 49.6C398.801 49.6 396.851 49.1333 395.151 48.2C393.485 47.2333 392.168 45.8667 391.201 44.1C390.268 42.3 389.801 40.1833 389.801 37.75C389.801 34.9833 390.368 32.4333 391.501 30.1C392.668 27.7667 394.301 25.9 396.401 24.5C398.535 23.1 401.018 22.4 403.851 22.4C405.785 22.4 407.418 22.7667 408.751 23.5C410.118 24.2333 411.168 25.1833 411.901 26.35C412.635 27.5167 413.001 28.7667 413.001 30.1C413.001 31.9333 412.568 33.45 411.701 34.65C410.835 35.85 409.718 36.7833 408.351 37.45C406.985 38.0833 405.501 38.5333 403.901 38.8C402.335 39.0667 400.835 39.2 399.401 39.2C398.501 39.2 397.601 39.1667 396.701 39.1C395.835 39 395.068 38.9 394.401 38.8C394.668 41 395.451 42.6833 396.751 43.85C398.051 45.0167 399.718 45.6 401.751 45.6C403.418 45.6 404.901 45.3833 406.201 44.95C407.501 44.5167 408.601 44.0833 409.501 43.65L409.901 47.65C408.901 48.1167 407.635 48.5667 406.101 49C404.568 49.4 402.868 49.6 401.001 49.6ZM403.501 26.2C401.935 26.2 400.518 26.6 399.251 27.4C397.985 28.1667 396.935 29.2333 396.101 30.6C395.301 31.9333 394.768 33.4667 394.501 35.2C395.268 35.3333 396.035 35.45 396.801 35.55C397.601 35.6167 398.468 35.65 399.401 35.65C402.201 35.65 404.418 35.2667 406.051 34.5C407.685 33.7 408.501 32.35 408.501 30.45C408.501 29.2833 408.035 28.2833 407.101 27.45C406.201 26.6167 405.001 26.2 403.501 26.2ZM418.98 30.3C419.013 30.1333 419.03 29.95 419.03 29.75C419.063 29.5167 419.08 29.2833 419.08 29.05C419.08 28.1167 418.813 27.4667 418.28 27.1C417.747 26.7 417.047 26.5 416.18 26.5L417.73 23C419.497 23 420.847 23.4333 421.78 24.3C422.747 25.1333 423.23 26.3833 423.23 28.05V29.05C424.197 26.6833 425.43 24.9833 426.93 23.95C428.463 22.9167 430.197 22.4 432.13 22.4C432.897 22.4 433.547 22.4667 434.08 22.6C434.647 22.7 435.113 22.8333 435.48 23L433.48 27.4C433.08 27.2333 432.663 27.1167 432.23 27.05C431.797 26.9833 431.297 26.95 430.73 26.95C429.53 26.95 428.33 27.3833 427.13 28.25C425.963 29.0833 424.897 30.4833 423.93 32.45C422.997 34.4167 422.23 37.1167 421.63 40.55L420.18 49H415.68L418.98 30.3ZM453.334 49L449.434 23.35L453.784 22.75L456.734 44L466.184 24.85H470.934L473.534 44L484.034 22.75L487.734 24.65L475.284 49H470.334L467.734 29.9L458.284 49H453.334ZM495.286 18.55C494.353 18.55 493.636 18.2833 493.136 17.75C492.669 17.1833 492.436 16.5333 492.436 15.8C492.436 14.7333 492.769 13.8833 493.436 13.25C494.103 12.5833 494.936 12.25 495.936 12.25C496.869 12.25 497.569 12.5333 498.036 13.1C498.536 13.6333 498.786 14.2667 498.786 15C498.786 16.0333 498.453 16.8833 497.786 17.55C497.119 18.2167 496.286 18.55 495.286 18.55ZM491.936 49H487.436L491.986 23H496.486L491.936 49ZM500.379 23.95H504.979L507.379 15.75H510.829L509.379 23.95H516.579L515.929 27.85H508.679L506.579 40C506.512 40.3667 506.462 40.7167 506.429 41.05C506.396 41.35 506.379 41.6333 506.379 41.9C506.379 43.0667 506.729 43.9833 507.429 44.65C508.129 45.2833 509.046 45.6 510.179 45.6C511.146 45.6 511.962 45.4667 512.629 45.2C513.296 44.9 513.896 44.6 514.429 44.3L514.979 48.2C514.346 48.5667 513.546 48.8833 512.579 49.15C511.646 49.45 510.596 49.6 509.429 49.6C508.196 49.6 506.996 49.35 505.829 48.85C504.696 48.35 503.762 47.5667 503.029 46.5C502.296 45.4 501.929 43.9833 501.929 42.25C501.929 41.5167 501.996 40.7 502.129 39.8L504.179 27.85H499.729L500.379 23.95ZM538.71 30.6C538.71 29.3333 538.327 28.3167 537.56 27.55C536.827 26.75 535.86 26.35 534.66 26.35C533.493 26.35 532.21 26.7667 530.81 27.6C529.443 28.4333 528.193 29.7333 527.06 31.5C525.927 33.2667 525.11 35.55 524.61 38.35L522.76 49H518.26L524.76 12H529.26L526.36 28.45C527.393 26.6167 528.743 25.15 530.41 24.05C532.11 22.95 533.893 22.4 535.76 22.4C538.06 22.4 539.877 23.1 541.21 24.5C542.577 25.8667 543.26 27.55 543.26 29.55C543.26 30.3833 543.16 31.4333 542.96 32.7L540.11 49H535.61L538.36 33.45C538.527 32.65 538.627 32.0667 538.66 31.7C538.693 31.3 538.71 30.9333 538.71 30.6ZM573.244 49.6C570.777 49.6 568.644 49.1 566.844 48.1C565.044 47.1 563.644 45.7167 562.644 43.95C561.677 42.15 561.194 40.1167 561.194 37.85C561.194 34.95 561.777 32.3333 562.944 30C564.144 27.6667 565.81 25.8167 567.944 24.45C570.077 23.0833 572.594 22.4 575.494 22.4C577.96 22.4 580.094 22.9 581.894 23.9C583.694 24.9 585.077 26.2833 586.044 28.05C587.044 29.8167 587.544 31.85 587.544 34.15C587.544 37.0167 586.96 39.6333 585.794 42C584.627 44.3333 582.96 46.1833 580.794 47.55C578.66 48.9167 576.144 49.6 573.244 49.6ZM573.394 45.6C575.394 45.6 577.094 45.1167 578.494 44.15C579.927 43.15 581.027 41.8167 581.794 40.15C582.56 38.4833 582.944 36.6167 582.944 34.55C582.944 33.0167 582.644 31.65 582.044 30.45C581.444 29.2167 580.577 28.2333 579.444 27.5C578.31 26.7667 576.944 26.4 575.344 26.4C573.377 26.4 571.677 26.9 570.244 27.9C568.81 28.8667 567.71 30.1833 566.944 31.85C566.177 33.5167 565.794 35.3833 565.794 37.45C565.794 38.95 566.094 40.3167 566.694 41.55C567.294 42.7833 568.16 43.7667 569.294 44.5C570.427 45.2333 571.794 45.6 573.394 45.6ZM598.323 49.6C596.99 49.6 595.756 49.3 594.623 48.7C593.523 48.1 592.64 47.2667 591.973 46.2C591.306 45.1 590.973 43.8 590.973 42.3C590.973 41.8667 590.99 41.4333 591.023 41C591.056 40.5333 591.106 40.05 591.173 39.55L594.023 23H598.523L595.623 39.45C595.59 39.7833 595.556 40.0833 595.523 40.35C595.49 40.5833 595.473 40.85 595.473 41.15C595.473 42.65 595.906 43.7667 596.773 44.5C597.64 45.2333 598.656 45.6 599.823 45.6C601.09 45.6 602.323 45.2167 603.523 44.45C604.756 43.65 605.84 42.5167 606.773 41.05C607.706 39.5833 608.356 37.8167 608.723 35.75L610.973 23H615.473L612.173 41.95C612.14 42.1167 612.106 42.3167 612.073 42.55C612.073 42.75 612.073 42.9667 612.073 43.2C612.073 44.1333 612.34 44.8 612.873 45.2C613.406 45.5667 614.106 45.75 614.973 45.75L613.423 49.25C611.623 49.25 610.24 48.8167 609.273 47.95C608.34 47.05 607.873 45.6667 607.873 43.8V43.35C605.44 47.5167 602.256 49.6 598.323 49.6ZM622.728 30.3C622.761 30.1333 622.778 29.95 622.778 29.75C622.811 29.5167 622.828 29.2833 622.828 29.05C622.828 28.1167 622.561 27.4667 622.028 27.1C621.495 26.7 620.795 26.5 619.928 26.5L621.478 23C623.245 23 624.595 23.4333 625.528 24.3C626.495 25.1333 626.978 26.3833 626.978 28.05V29.05C627.945 26.6833 629.178 24.9833 630.678 23.95C632.211 22.9167 633.945 22.4 635.878 22.4C636.645 22.4 637.295 22.4667 637.828 22.6C638.395 22.7 638.861 22.8333 639.228 23L637.228 27.4C636.828 27.2333 636.411 27.1167 635.978 27.05C635.545 26.9833 635.045 26.95 634.478 26.95C633.278 26.95 632.078 27.3833 630.878 28.25C629.711 29.0833 628.645 30.4833 627.678 32.45C626.745 34.4167 625.978 37.1167 625.378 40.55L623.928 49H619.428L622.728 30.3Z" fill="#2B2F34"/>
<path d="M8.25 79H28.75L28.05 83.1H12.25L10.4 93.8H23.5L22.8 97.7H9.7L6.85 114H2.1L8.25 79ZM33.0223 114.6C31.6889 114.6 30.4556 114.3 29.3223 113.7C28.2223 113.1 27.3389 112.267 26.6723 111.2C26.0056 110.1 25.6723 108.8 25.6723 107.3C25.6723 106.867 25.6889 106.433 25.7223 106C25.7556 105.533 25.8056 105.05 25.8723 104.55L28.7223 88H33.2223L30.3223 104.45C30.2889 104.783 30.2556 105.083 30.2223 105.35C30.1889 105.583 30.1723 105.85 30.1723 106.15C30.1723 107.65 30.6056 108.767 31.4723 109.5C32.3389 110.233 33.3556 110.6 34.5223 110.6C35.7889 110.6 37.0223 110.217 38.2223 109.45C39.4556 108.65 40.5389 107.517 41.4723 106.05C42.4056 104.583 43.0556 102.817 43.4223 100.75L45.6723 88H50.1723L46.8723 106.95C46.8389 107.117 46.8056 107.317 46.7723 107.55C46.7723 107.75 46.7723 107.967 46.7723 108.2C46.7723 109.133 47.0389 109.8 47.5723 110.2C48.1056 110.567 48.8056 110.75 49.6723 110.75L48.1223 114.25C46.3223 114.25 44.9389 113.817 43.9723 112.95C43.0389 112.05 42.5723 110.667 42.5723 108.8V108.35C40.1389 112.517 36.9556 114.6 33.0223 114.6ZM58.8273 105C58.7607 105.433 58.7107 105.833 58.6773 106.2C58.644 106.533 58.6273 106.833 58.6273 107.1C58.6273 108.233 58.9607 109.117 59.6273 109.75C60.3273 110.383 61.244 110.7 62.3773 110.7C62.944 110.7 63.5107 110.633 64.0773 110.5C64.644 110.367 65.1607 110.183 65.6273 109.95L66.0773 113.6C65.4773 113.9 64.7773 114.133 63.9773 114.3C63.1773 114.5 62.3107 114.6 61.3773 114.6C59.3773 114.6 57.6607 114.033 56.2273 112.9C54.8273 111.733 54.1273 109.983 54.1273 107.65C54.1273 106.783 54.194 105.933 54.3273 105.1L59.2273 77H63.7273L58.8273 105ZM73.7512 105C73.6845 105.433 73.6345 105.833 73.6012 106.2C73.5678 106.533 73.5512 106.833 73.5512 107.1C73.5512 108.233 73.8845 109.117 74.5512 109.75C75.2512 110.383 76.1678 110.7 77.3012 110.7C77.8678 110.7 78.4345 110.633 79.0012 110.5C79.5678 110.367 80.0845 110.183 80.5512 109.95L81.0012 113.6C80.4012 113.9 79.7012 114.133 78.9012 114.3C78.1012 114.5 77.2345 114.6 76.3012 114.6C74.3012 114.6 72.5845 114.033 71.1512 112.9C69.7512 111.733 69.0512 109.983 69.0512 107.65C69.0512 106.783 69.1178 105.933 69.2512 105.1L74.1512 77H78.6512L73.7512 105ZM115.648 105.15C115.648 104.217 115.448 103.367 115.048 102.6C114.681 101.833 113.998 101.05 112.998 100.25C111.998 99.4167 110.564 98.4833 108.698 97.45C106.098 95.9833 104.248 94.5333 103.148 93.1C102.081 91.6667 101.548 89.8333 101.548 87.6C101.548 85.7333 102.031 84.1167 102.998 82.75C103.998 81.3833 105.381 80.3167 107.148 79.55C108.914 78.7833 110.948 78.4 113.248 78.4C115.348 78.4 117.248 78.6667 118.948 79.2C120.648 79.7 122.231 80.3833 123.698 81.25L121.248 85.15C120.048 84.3833 118.781 83.75 117.448 83.25C116.148 82.75 114.614 82.5 112.848 82.5C110.881 82.5 109.298 82.9333 108.098 83.8C106.898 84.6333 106.298 85.7333 106.298 87.1C106.298 88.3333 106.714 89.4333 107.548 90.4C108.414 91.3333 109.998 92.4167 112.298 93.65C114.498 94.8167 116.181 95.9667 117.348 97.1C118.548 98.2 119.364 99.3667 119.798 100.6C120.264 101.833 120.498 103.2 120.498 104.7C120.498 106.733 119.964 108.5 118.898 110C117.864 111.467 116.414 112.6 114.548 113.4C112.681 114.2 110.514 114.6 108.048 114.6C105.648 114.6 103.481 114.283 101.548 113.65C99.6143 112.983 97.9143 112.067 96.4477 110.9L99.5477 107.05C100.681 108.083 101.998 108.917 103.498 109.55C105.031 110.15 106.714 110.45 108.548 110.45C110.714 110.45 112.431 109.983 113.698 109.05C114.998 108.083 115.648 106.783 115.648 105.15ZM124.568 88.95H129.168L131.568 80.75H135.018L133.568 88.95H140.768L140.118 92.85H132.868L130.768 105C130.702 105.367 130.652 105.717 130.618 106.05C130.585 106.35 130.568 106.633 130.568 106.9C130.568 108.067 130.918 108.983 131.618 109.65C132.318 110.283 133.235 110.6 134.368 110.6C135.335 110.6 136.152 110.467 136.818 110.2C137.485 109.9 138.085 109.6 138.618 109.3L139.168 113.2C138.535 113.567 137.735 113.883 136.768 114.15C135.835 114.45 134.785 114.6 133.618 114.6C132.385 114.6 131.185 114.35 130.018 113.85C128.885 113.35 127.952 112.567 127.218 111.5C126.485 110.4 126.118 108.983 126.118 107.25C126.118 106.517 126.185 105.7 126.318 104.8L128.368 92.85H123.918L124.568 88.95ZM141.961 103.75C141.961 100.517 142.661 97.6833 144.061 95.25C145.495 92.7833 147.461 90.8667 149.961 89.5C152.461 88.1 155.311 87.4 158.511 87.4C160.478 87.4 162.195 87.6 163.661 88C165.161 88.4 166.395 88.8 167.361 89.2L164.211 106.95C164.178 107.117 164.145 107.317 164.111 107.55C164.111 107.75 164.111 107.967 164.111 108.2C164.111 109.133 164.378 109.8 164.911 110.2C165.445 110.567 166.145 110.75 167.011 110.75L165.461 114.25C163.661 114.25 162.278 113.817 161.311 112.95C160.378 112.05 159.911 110.667 159.911 108.8C158.978 110.4 157.795 111.767 156.361 112.9C154.961 114.033 153.311 114.6 151.411 114.6C149.778 114.6 148.245 114.167 146.811 113.3C145.378 112.4 144.211 111.15 143.311 109.55C142.411 107.917 141.961 105.983 141.961 103.75ZM162.411 91.85C161.778 91.65 161.111 91.5 160.411 91.4C159.745 91.2667 158.928 91.2 157.961 91.2C155.661 91.2 153.661 91.7167 151.961 92.75C150.261 93.7833 148.928 95.2167 147.961 97.05C147.028 98.85 146.561 100.9 146.561 103.2C146.561 104.8 146.845 106.15 147.411 107.25C148.011 108.35 148.778 109.183 149.711 109.75C150.645 110.317 151.611 110.6 152.611 110.6C153.978 110.6 155.228 110.133 156.361 109.2C157.495 108.267 158.461 106.967 159.261 105.3C160.095 103.633 160.695 101.733 161.061 99.6L162.411 91.85ZM190.257 93.25C189.424 92.7167 188.524 92.2833 187.557 91.95C186.59 91.5833 185.524 91.4 184.357 91.4C182.524 91.4 180.907 91.8833 179.507 92.85C178.14 93.8167 177.074 95.1333 176.307 96.8C175.54 98.4333 175.157 100.283 175.157 102.35C175.157 104.883 175.79 106.9 177.057 108.4C178.357 109.867 180.09 110.6 182.257 110.6C183.524 110.6 184.64 110.45 185.607 110.15C186.574 109.85 187.457 109.5 188.257 109.1L188.807 113.05C187.974 113.417 186.957 113.767 185.757 114.1C184.59 114.433 183.174 114.6 181.507 114.6C179.34 114.6 177.424 114.117 175.757 113.15C174.124 112.183 172.84 110.833 171.907 109.1C171.007 107.333 170.557 105.283 170.557 102.95C170.557 100.15 171.124 97.5833 172.257 95.25C173.424 92.8833 175.057 90.9833 177.157 89.55C179.29 88.1167 181.807 87.4 184.707 87.4C186.274 87.4 187.657 87.6 188.857 88C190.09 88.3667 191.174 88.8333 192.107 89.4L190.257 93.25ZM199.305 77H203.805L201.105 92.35C202.005 90.8167 203.188 89.6167 204.655 88.75C206.122 87.85 207.772 87.4 209.605 87.4C211.038 87.4 212.305 87.7 213.405 88.3C214.538 88.9 215.422 89.7167 216.055 90.75C216.688 91.75 217.005 92.8667 217.005 94.1C217.005 96.7333 216.105 98.6833 214.305 99.95C212.538 101.183 210.288 101.8 207.555 101.8C207.388 101.8 207.222 101.8 207.055 101.8C206.888 101.8 206.688 101.783 206.455 101.75L210.705 108.25C211.272 109.117 211.905 109.75 212.605 110.15C213.338 110.55 214.322 110.75 215.555 110.75L214.005 114.25C212.472 114.25 211.172 114.033 210.105 113.6C209.038 113.133 208.088 112.183 207.255 110.75L201.105 100.15L201.555 98.7C202.055 98.9333 202.688 99.1333 203.455 99.3C204.222 99.4333 205.088 99.5 206.055 99.5C208.222 99.5 209.855 99.05 210.955 98.15C212.088 97.2167 212.655 96.0333 212.655 94.6C212.655 93.5667 212.272 92.7 211.505 92C210.772 91.2667 209.772 90.9 208.505 90.9C207.572 90.9 206.488 91.2 205.255 91.8C204.055 92.3667 202.922 93.3833 201.855 94.85C200.788 96.3167 200.022 98.3833 199.555 101.05L197.305 114H192.805L199.305 77ZM239.544 79.4C240.91 79.1 242.277 78.8667 243.644 78.7C245.01 78.5 246.694 78.4 248.694 78.4C251.36 78.4 253.627 78.8167 255.494 79.65C257.394 80.4833 258.944 81.6333 260.144 83.1C261.344 84.5333 262.227 86.1833 262.794 88.05C263.36 89.8833 263.644 91.8167 263.644 93.85C263.644 97.85 262.844 101.417 261.244 104.55C259.644 107.683 257.377 110.15 254.444 111.95C251.51 113.717 248.01 114.6 243.944 114.6C241.81 114.6 239.91 114.45 238.244 114.15C236.577 113.883 235.06 113.5 233.694 113L239.544 79.4ZM248.294 82.4C247.427 82.4 246.61 82.45 245.844 82.55C245.077 82.6167 244.36 82.7333 243.694 82.9L238.994 109.85C239.76 110.05 240.577 110.217 241.444 110.35C242.31 110.45 243.244 110.5 244.244 110.5C247.144 110.5 249.677 109.817 251.844 108.45C254.044 107.083 255.744 105.183 256.944 102.75C258.144 100.283 258.744 97.45 258.744 94.25C258.744 92.15 258.377 90.2 257.644 88.4C256.91 86.6 255.777 85.15 254.244 84.05C252.71 82.95 250.727 82.4 248.294 82.4ZM277.048 114.6C274.848 114.6 272.898 114.133 271.198 113.2C269.531 112.233 268.215 110.867 267.248 109.1C266.315 107.3 265.848 105.183 265.848 102.75C265.848 99.9833 266.415 97.4333 267.548 95.1C268.715 92.7667 270.348 90.9 272.448 89.5C274.581 88.1 277.065 87.4 279.898 87.4C281.831 87.4 283.465 87.7667 284.798 88.5C286.165 89.2333 287.215 90.1833 287.948 91.35C288.681 92.5167 289.048 93.7667 289.048 95.1C289.048 96.9333 288.615 98.45 287.748 99.65C286.881 100.85 285.765 101.783 284.398 102.45C283.031 103.083 281.548 103.533 279.948 103.8C278.381 104.067 276.881 104.2 275.448 104.2C274.548 104.2 273.648 104.167 272.748 104.1C271.881 104 271.115 103.9 270.448 103.8C270.715 106 271.498 107.683 272.798 108.85C274.098 110.017 275.765 110.6 277.798 110.6C279.465 110.6 280.948 110.383 282.248 109.95C283.548 109.517 284.648 109.083 285.548 108.65L285.948 112.65C284.948 113.117 283.681 113.567 282.148 114C280.615 114.4 278.915 114.6 277.048 114.6ZM279.548 91.2C277.981 91.2 276.565 91.6 275.298 92.4C274.031 93.1667 272.981 94.2333 272.148 95.6C271.348 96.9333 270.815 98.4667 270.548 100.2C271.315 100.333 272.081 100.45 272.848 100.55C273.648 100.617 274.515 100.65 275.448 100.65C278.248 100.65 280.465 100.267 282.098 99.5C283.731 98.7 284.548 97.35 284.548 95.45C284.548 94.2833 284.081 93.2833 283.148 92.45C282.248 91.6167 281.048 91.2 279.548 91.2ZM290.977 88.6L295.227 87.5L300.377 109L312.827 87.5L316.477 89.65L301.877 114H297.227L290.977 88.6ZM326.866 114.6C324.666 114.6 322.716 114.133 321.016 113.2C319.35 112.233 318.033 110.867 317.066 109.1C316.133 107.3 315.666 105.183 315.666 102.75C315.666 99.9833 316.233 97.4333 317.366 95.1C318.533 92.7667 320.166 90.9 322.266 89.5C324.4 88.1 326.883 87.4 329.716 87.4C331.65 87.4 333.283 87.7667 334.616 88.5C335.983 89.2333 337.033 90.1833 337.766 91.35C338.5 92.5167 338.866 93.7667 338.866 95.1C338.866 96.9333 338.433 98.45 337.566 99.65C336.7 100.85 335.583 101.783 334.216 102.45C332.85 103.083 331.366 103.533 329.766 103.8C328.2 104.067 326.7 104.2 325.266 104.2C324.366 104.2 323.466 104.167 322.566 104.1C321.7 104 320.933 103.9 320.266 103.8C320.533 106 321.316 107.683 322.616 108.85C323.916 110.017 325.583 110.6 327.616 110.6C329.283 110.6 330.766 110.383 332.066 109.95C333.366 109.517 334.466 109.083 335.366 108.65L335.766 112.65C334.766 113.117 333.5 113.567 331.966 114C330.433 114.4 328.733 114.6 326.866 114.6ZM329.366 91.2C327.8 91.2 326.383 91.6 325.116 92.4C323.85 93.1667 322.8 94.2333 321.966 95.6C321.166 96.9333 320.633 98.4667 320.366 100.2C321.133 100.333 321.9 100.45 322.666 100.55C323.466 100.617 324.333 100.65 325.266 100.65C328.066 100.65 330.283 100.267 331.916 99.5C333.55 98.7 334.366 97.35 334.366 95.45C334.366 94.2833 333.9 93.2833 332.966 92.45C332.066 91.6167 330.866 91.2 329.366 91.2ZM346.245 105C346.179 105.433 346.129 105.833 346.095 106.2C346.062 106.533 346.045 106.833 346.045 107.1C346.045 108.233 346.379 109.117 347.045 109.75C347.745 110.383 348.662 110.7 349.795 110.7C350.362 110.7 350.929 110.633 351.495 110.5C352.062 110.367 352.579 110.183 353.045 109.95L353.495 113.6C352.895 113.9 352.195 114.133 351.395 114.3C350.595 114.5 349.729 114.6 348.795 114.6C346.795 114.6 345.079 114.033 343.645 112.9C342.245 111.733 341.545 109.983 341.545 107.65C341.545 106.783 341.612 105.933 341.745 105.1L346.645 77H351.145L346.245 105ZM366.988 114.6C364.521 114.6 362.388 114.1 360.588 113.1C358.788 112.1 357.388 110.717 356.388 108.95C355.421 107.15 354.938 105.117 354.938 102.85C354.938 99.95 355.521 97.3333 356.688 95C357.888 92.6667 359.555 90.8167 361.688 89.45C363.821 88.0833 366.338 87.4 369.238 87.4C371.705 87.4 373.838 87.9 375.638 88.9C377.438 89.9 378.821 91.2833 379.788 93.05C380.788 94.8167 381.288 96.85 381.288 99.15C381.288 102.017 380.705 104.633 379.538 107C378.371 109.333 376.705 111.183 374.538 112.55C372.405 113.917 369.888 114.6 366.988 114.6ZM367.138 110.6C369.138 110.6 370.838 110.117 372.238 109.15C373.671 108.15 374.771 106.817 375.538 105.15C376.305 103.483 376.688 101.617 376.688 99.55C376.688 98.0167 376.388 96.65 375.788 95.45C375.188 94.2167 374.321 93.2333 373.188 92.5C372.055 91.7667 370.688 91.4 369.088 91.4C367.121 91.4 365.421 91.9 363.988 92.9C362.555 93.8667 361.455 95.1833 360.688 96.85C359.921 98.5167 359.538 100.383 359.538 102.45C359.538 103.95 359.838 105.317 360.438 106.55C361.038 107.783 361.905 108.767 363.038 109.5C364.171 110.233 365.538 110.6 367.138 110.6ZM386.973 88C390.44 88 392.173 89.5 392.173 92.5V93.55C393.14 91.75 394.39 90.2833 395.923 89.15C397.456 87.9833 399.24 87.4 401.273 87.4C403.073 87.4 404.64 87.8667 405.973 88.8C407.306 89.7 408.323 90.9667 409.023 92.6C409.756 94.2 410.123 96.0667 410.123 98.2C410.123 100.667 409.756 102.917 409.023 104.95C408.323 106.95 407.356 108.683 406.123 110.15C404.89 111.583 403.506 112.683 401.973 113.45C400.44 114.217 398.856 114.6 397.223 114.6C395.623 114.6 394.123 114.2 392.723 113.4C391.356 112.6 390.29 111.617 389.523 110.45L386.973 125H382.473L387.673 95.25C387.773 94.6833 387.823 94.2167 387.823 93.85C387.823 92.2833 387.006 91.5 385.373 91.5L386.973 88ZM396.823 110.6C398.39 110.6 399.823 110.1 401.123 109.1C402.456 108.067 403.523 106.65 404.323 104.85C405.123 103.05 405.523 100.983 405.523 98.65C405.523 96.3833 405.006 94.6 403.973 93.3C402.94 91.9667 401.59 91.3 399.923 91.3C398.59 91.3 397.306 91.7167 396.073 92.55C394.873 93.3833 393.84 94.55 392.973 96.05C392.106 97.55 391.49 99.3167 391.123 101.35L390.223 106.4C390.956 107.733 391.906 108.767 393.073 109.5C394.24 110.233 395.49 110.6 396.823 110.6ZM424.501 114.6C422.301 114.6 420.351 114.133 418.651 113.2C416.985 112.233 415.668 110.867 414.701 109.1C413.768 107.3 413.301 105.183 413.301 102.75C413.301 99.9833 413.868 97.4333 415.001 95.1C416.168 92.7667 417.801 90.9 419.901 89.5C422.035 88.1 424.518 87.4 427.351 87.4C429.285 87.4 430.918 87.7667 432.251 88.5C433.618 89.2333 434.668 90.1833 435.401 91.35C436.135 92.5167 436.501 93.7667 436.501 95.1C436.501 96.9333 436.068 98.45 435.201 99.65C434.335 100.85 433.218 101.783 431.851 102.45C430.485 103.083 429.001 103.533 427.401 103.8C425.835 104.067 424.335 104.2 422.901 104.2C422.001 104.2 421.101 104.167 420.201 104.1C419.335 104 418.568 103.9 417.901 103.8C418.168 106 418.951 107.683 420.251 108.85C421.551 110.017 423.218 110.6 425.251 110.6C426.918 110.6 428.401 110.383 429.701 109.95C431.001 109.517 432.101 109.083 433.001 108.65L433.401 112.65C432.401 113.117 431.135 113.567 429.601 114C428.068 114.4 426.368 114.6 424.501 114.6ZM427.001 91.2C425.435 91.2 424.018 91.6 422.751 92.4C421.485 93.1667 420.435 94.2333 419.601 95.6C418.801 96.9333 418.268 98.4667 418.001 100.2C418.768 100.333 419.535 100.45 420.301 100.55C421.101 100.617 421.968 100.65 422.901 100.65C425.701 100.65 427.918 100.267 429.551 99.5C431.185 98.7 432.001 97.35 432.001 95.45C432.001 94.2833 431.535 93.2833 430.601 92.45C429.701 91.6167 428.501 91.2 427.001 91.2ZM442.48 95.3C442.513 95.1333 442.53 94.95 442.53 94.75C442.563 94.5167 442.58 94.2833 442.58 94.05C442.58 93.1167 442.313 92.4667 441.78 92.1C441.247 91.7 440.547 91.5 439.68 91.5L441.23 88C442.997 88 444.347 88.4333 445.28 89.3C446.247 90.1333 446.73 91.3833 446.73 93.05V94.05C447.697 91.6833 448.93 89.9833 450.43 88.95C451.963 87.9167 453.697 87.4 455.63 87.4C456.397 87.4 457.047 87.4667 457.58 87.6C458.147 87.7 458.613 87.8333 458.98 88L456.98 92.4C456.58 92.2333 456.163 92.1167 455.73 92.05C455.297 91.9833 454.797 91.95 454.23 91.95C453.03 91.95 451.83 92.3833 450.63 93.25C449.463 94.0833 448.397 95.4833 447.43 97.45C446.497 99.4167 445.73 102.117 445.13 105.55L443.68 114H439.18L442.48 95.3Z" fill="#2F80ED"/>
<path d="M490.634 82.55C488.201 82.55 486.001 83.2833 484.034 84.75C482.067 86.1833 480.501 88.1667 479.334 90.7C478.167 93.2 477.584 96.0833 477.584 99.35C477.584 102.95 478.467 105.7 480.234 107.6C482.001 109.5 484.251 110.45 486.984 110.45C488.551 110.45 489.934 110.233 491.134 109.8C492.367 109.367 493.567 108.85 494.734 108.25L495.534 112.55C494.301 113.117 492.934 113.6 491.434 114C489.934 114.4 488.234 114.6 486.334 114.6C483.601 114.6 481.201 114.017 479.134 112.85C477.101 111.683 475.517 110 474.384 107.8C473.251 105.567 472.684 102.867 472.684 99.7C472.684 96.7 473.117 93.9167 473.984 91.35C474.884 88.75 476.151 86.4833 477.784 84.55C479.417 82.6167 481.351 81.1167 483.584 80.05C485.851 78.95 488.334 78.4 491.034 78.4C493.001 78.4 494.734 78.6667 496.234 79.2C497.734 79.7333 498.984 80.2833 499.984 80.85L497.834 84.75C496.834 84.1167 495.767 83.6 494.634 83.2C493.534 82.7667 492.201 82.55 490.634 82.55ZM509.949 114.6C507.482 114.6 505.349 114.1 503.549 113.1C501.749 112.1 500.349 110.717 499.349 108.95C498.382 107.15 497.899 105.117 497.899 102.85C497.899 99.95 498.482 97.3333 499.649 95C500.849 92.6667 502.515 90.8167 504.649 89.45C506.782 88.0833 509.299 87.4 512.199 87.4C514.665 87.4 516.799 87.9 518.599 88.9C520.399 89.9 521.782 91.2833 522.749 93.05C523.749 94.8167 524.249 96.85 524.249 99.15C524.249 102.017 523.665 104.633 522.499 107C521.332 109.333 519.665 111.183 517.499 112.55C515.365 113.917 512.849 114.6 509.949 114.6ZM510.099 110.6C512.099 110.6 513.799 110.117 515.199 109.15C516.632 108.15 517.732 106.817 518.499 105.15C519.265 103.483 519.649 101.617 519.649 99.55C519.649 98.0167 519.349 96.65 518.749 95.45C518.149 94.2167 517.282 93.2333 516.149 92.5C515.015 91.7667 513.649 91.4 512.049 91.4C510.082 91.4 508.382 91.9 506.949 92.9C505.515 93.8667 504.415 95.1833 503.649 96.85C502.882 98.5167 502.499 100.383 502.499 102.45C502.499 103.95 502.799 105.317 503.399 106.55C503.999 107.783 504.865 108.767 505.999 109.5C507.132 110.233 508.499 110.6 510.099 110.6ZM535.028 114.6C533.695 114.6 532.461 114.3 531.328 113.7C530.228 113.1 529.345 112.267 528.678 111.2C528.011 110.1 527.678 108.8 527.678 107.3C527.678 106.867 527.695 106.433 527.728 106C527.761 105.533 527.811 105.05 527.878 104.55L530.728 88H535.228L532.328 104.45C532.295 104.783 532.261 105.083 532.228 105.35C532.195 105.583 532.178 105.85 532.178 106.15C532.178 107.65 532.611 108.767 533.478 109.5C534.345 110.233 535.361 110.6 536.528 110.6C537.795 110.6 539.028 110.217 540.228 109.45C541.461 108.65 542.545 107.517 543.478 106.05C544.411 104.583 545.061 102.817 545.428 100.75L547.678 88H552.178L548.878 106.95C548.845 107.117 548.811 107.317 548.778 107.55C548.778 107.75 548.778 107.967 548.778 108.2C548.778 109.133 549.045 109.8 549.578 110.2C550.111 110.567 550.811 110.75 551.678 110.75L550.128 114.25C548.328 114.25 546.945 113.817 545.978 112.95C545.045 112.05 544.578 110.667 544.578 108.8V108.35C542.145 112.517 538.961 114.6 535.028 114.6ZM559.433 95.3C559.467 95.1333 559.483 94.95 559.483 94.75C559.517 94.5167 559.533 94.2833 559.533 94.05C559.533 93.1167 559.267 92.4667 558.733 92.1C558.2 91.7 557.5 91.5 556.633 91.5L558.183 88C559.95 88 561.3 88.4333 562.233 89.3C563.2 90.1333 563.683 91.3833 563.683 93.05V94.05C564.65 91.6833 565.883 89.9833 567.383 88.95C568.917 87.9167 570.65 87.4 572.583 87.4C573.35 87.4 574 87.4667 574.533 87.6C575.1 87.7 575.567 87.8333 575.933 88L573.933 92.4C573.533 92.2333 573.117 92.1167 572.683 92.05C572.25 91.9833 571.75 91.95 571.183 91.95C569.983 91.95 568.783 92.3833 567.583 93.25C566.417 94.0833 565.35 95.4833 564.383 97.45C563.45 99.4167 562.683 102.117 562.083 105.55L560.633 114H556.133L559.433 95.3ZM593.097 93.65C592.13 92.9833 591.047 92.4 589.847 91.9C588.68 91.4 587.347 91.15 585.847 91.15C584.28 91.15 583.064 91.4167 582.197 91.95C581.33 92.4833 580.897 93.1833 580.897 94.05C580.897 94.55 581.03 95.0333 581.297 95.5C581.597 95.9333 582.114 96.4 582.847 96.9C583.614 97.4 584.68 98 586.047 98.7C588.314 99.8333 589.997 101.017 591.097 102.25C592.197 103.45 592.747 104.933 592.747 106.7C592.747 108.467 592.28 109.933 591.347 111.1C590.414 112.267 589.164 113.15 587.597 113.75C586.03 114.317 584.264 114.6 582.297 114.6C580.264 114.6 578.464 114.35 576.897 113.85C575.364 113.317 574.03 112.633 572.897 111.8L575.447 108.1C576.347 108.833 577.414 109.45 578.647 109.95C579.88 110.45 581.23 110.7 582.697 110.7C584.364 110.7 585.68 110.383 586.647 109.75C587.614 109.117 588.097 108.333 588.097 107.4C588.097 106.533 587.73 105.733 586.997 105C586.297 104.267 584.914 103.383 582.847 102.35C581.18 101.517 579.88 100.717 578.947 99.95C578.014 99.15 577.364 98.3 576.997 97.4C576.63 96.5 576.447 95.4667 576.447 94.3C576.447 92.9667 576.847 91.7833 577.647 90.75C578.447 89.7167 579.564 88.9 580.997 88.3C582.43 87.7 584.08 87.4 585.947 87.4C587.814 87.4 589.48 87.65 590.947 88.15C592.447 88.6167 593.764 89.1833 594.897 89.85L593.097 93.65ZM607.564 114.6C605.364 114.6 603.414 114.133 601.714 113.2C600.047 112.233 598.73 110.867 597.764 109.1C596.83 107.3 596.364 105.183 596.364 102.75C596.364 99.9833 596.93 97.4333 598.064 95.1C599.23 92.7667 600.864 90.9 602.964 89.5C605.097 88.1 607.58 87.4 610.414 87.4C612.347 87.4 613.98 87.7667 615.314 88.5C616.68 89.2333 617.73 90.1833 618.464 91.35C619.197 92.5167 619.564 93.7667 619.564 95.1C619.564 96.9333 619.13 98.45 618.264 99.65C617.397 100.85 616.28 101.783 614.914 102.45C613.547 103.083 612.064 103.533 610.464 103.8C608.897 104.067 607.397 104.2 605.964 104.2C605.064 104.2 604.164 104.167 603.264 104.1C602.397 104 601.63 103.9 600.964 103.8C601.23 106 602.014 107.683 603.314 108.85C604.614 110.017 606.28 110.6 608.314 110.6C609.98 110.6 611.464 110.383 612.764 109.95C614.064 109.517 615.164 109.083 616.064 108.65L616.464 112.65C615.464 113.117 614.197 113.567 612.664 114C611.13 114.4 609.43 114.6 607.564 114.6ZM610.064 91.2C608.497 91.2 607.08 91.6 605.814 92.4C604.547 93.1667 603.497 94.2333 602.664 95.6C601.864 96.9333 601.33 98.4667 601.064 100.2C601.83 100.333 602.597 100.45 603.364 100.55C604.164 100.617 605.03 100.65 605.964 100.65C608.764 100.65 610.98 100.267 612.614 99.5C614.247 98.7 615.064 97.35 615.064 95.45C615.064 94.2833 614.597 93.2833 613.664 92.45C612.764 91.6167 611.564 91.2 610.064 91.2ZM639.693 93.65C638.726 92.9833 637.643 92.4 636.443 91.9C635.276 91.4 633.943 91.15 632.443 91.15C630.876 91.15 629.659 91.4167 628.793 91.95C627.926 92.4833 627.493 93.1833 627.493 94.05C627.493 94.55 627.626 95.0333 627.893 95.5C628.193 95.9333 628.709 96.4 629.443 96.9C630.209 97.4 631.276 98 632.643 98.7C634.909 99.8333 636.593 101.017 637.693 102.25C638.793 103.45 639.343 104.933 639.343 106.7C639.343 108.467 638.876 109.933 637.943 111.1C637.009 112.267 635.759 113.15 634.193 113.75C632.626 114.317 630.859 114.6 628.893 114.6C626.859 114.6 625.059 114.35 623.493 113.85C621.959 113.317 620.626 112.633 619.493 111.8L622.043 108.1C622.943 108.833 624.009 109.45 625.243 109.95C626.476 110.45 627.826 110.7 629.293 110.7C630.959 110.7 632.276 110.383 633.243 109.75C634.209 109.117 634.693 108.333 634.693 107.4C634.693 106.533 634.326 105.733 633.593 105C632.893 104.267 631.509 103.383 629.443 102.35C627.776 101.517 626.476 100.717 625.543 99.95C624.609 99.15 623.959 98.3 623.593 97.4C623.226 96.5 623.043 95.4667 623.043 94.3C623.043 92.9667 623.443 91.7833 624.243 90.75C625.043 89.7167 626.159 88.9 627.593 88.3C629.026 87.7 630.676 87.4 632.543 87.4C634.409 87.4 636.076 87.65 637.543 88.15C639.043 88.6167 640.359 89.1833 641.493 89.85L639.693 93.65Z" fill="#2B2F34"/>
<path d="M6.372 168.36C5.256 168.36 4.272 168.09 3.42 167.55C2.58 167.01 1.932 166.278 1.476 165.354C1.02 164.418 0.792 163.38 0.792 162.24C0.792 161.064 1.038 159.978 1.53 158.982C2.034 157.986 2.712 157.2 3.564 156.624C4.428 156.048 5.364 155.76 6.372 155.76C7.332 155.76 8.172 155.898 8.892 156.174C9.624 156.438 10.164 156.78 10.512 157.2C10.716 157.452 10.842 157.788 10.89 158.208C10.938 158.616 10.962 159.18 10.962 159.9H10.602C10.374 158.736 9.954 157.878 9.342 157.326C8.73 156.762 7.92 156.48 6.912 156.48C5.616 156.48 4.572 156.936 3.78 157.848C2.988 158.76 2.592 160.224 2.592 162.24C2.592 163.188 2.742 164.07 3.042 164.886C3.354 165.702 3.834 166.368 4.482 166.884C5.13 167.388 5.94 167.64 6.912 167.64C7.788 167.64 8.55 167.43 9.198 167.01C9.858 166.59 10.446 165.96 10.962 165.12L11.322 165.39C10.77 166.47 10.086 167.238 9.27 167.694C8.466 168.138 7.5 168.36 6.372 168.36ZM16.7047 168.18C15.8047 168.18 15.0667 167.94 14.4907 167.46C13.9267 166.98 13.6447 166.14 13.6447 164.94V161.7C13.6447 161.088 13.5607 160.638 13.3927 160.35C13.2247 160.05 12.8887 159.9 12.3847 159.9H12.2047V159.54H13.6447C14.0887 159.54 14.4187 159.6 14.6347 159.72C14.8627 159.828 15.0247 160.032 15.1207 160.332C15.2167 160.632 15.2647 161.088 15.2647 161.7V164.94C15.2647 165.78 15.4507 166.398 15.8227 166.794C16.2067 167.178 16.6807 167.37 17.2447 167.37C17.8807 167.37 18.4807 167.052 19.0447 166.416V159.54H20.6647V168H19.7647L19.1347 167.28H19.0447C18.7927 167.532 18.4627 167.748 18.0547 167.928C17.6587 168.096 17.2087 168.18 16.7047 168.18ZM23.7635 161.7C23.7635 161.088 23.6795 160.638 23.5115 160.35C23.3435 160.05 23.0075 159.9 22.5035 159.9H22.3235V159.54H23.7635C24.2195 159.54 24.5615 159.606 24.7895 159.738C25.0295 159.858 25.1975 160.062 25.2935 160.35H25.3835C25.5995 160.074 25.8875 159.84 26.2475 159.648C26.6195 159.456 27.0515 159.36 27.5435 159.36C28.0235 159.36 28.3835 159.45 28.6235 159.63C28.8275 159.786 29.0375 160.056 29.2535 160.44L28.5335 160.98C28.4015 160.8 28.2095 160.668 27.9575 160.584C27.7055 160.488 27.4175 160.44 27.0935 160.44C26.7335 160.44 26.4035 160.524 26.1035 160.692C25.8035 160.848 25.5635 161.064 25.3835 161.34V168H23.7635V161.7ZM31.2778 161.7C31.2778 161.088 31.1938 160.638 31.0258 160.35C30.8578 160.05 30.5218 159.9 30.0178 159.9H29.8378V159.54H31.2778C31.7338 159.54 32.0758 159.606 32.3038 159.738C32.5438 159.858 32.7118 160.062 32.8078 160.35H32.8978C33.1138 160.074 33.4018 159.84 33.7618 159.648C34.1338 159.456 34.5658 159.36 35.0578 159.36C35.5378 159.36 35.8978 159.45 36.1378 159.63C36.3418 159.786 36.5518 160.056 36.7678 160.44L36.0478 160.98C35.9158 160.8 35.7238 160.668 35.4718 160.584C35.2198 160.488 34.9318 160.44 34.6078 160.44C34.2478 160.44 33.9178 160.524 33.6178 160.692C33.3178 160.848 33.0778 161.064 32.8978 161.34V168H31.2778V161.7ZM39.6021 158.46C39.3261 158.46 39.0861 158.346 38.8821 158.118C38.6901 157.89 38.5941 157.62 38.5941 157.308C38.5941 157.056 38.6661 156.858 38.8101 156.714C38.9661 156.57 39.1701 156.498 39.4221 156.498C39.6981 156.498 39.9321 156.612 40.1241 156.84C40.3281 157.068 40.4301 157.338 40.4301 157.65C40.4301 157.902 40.3521 158.1 40.1961 158.244C40.0521 158.388 39.8541 158.46 39.6021 158.46ZM38.9181 161.7C38.9181 161.088 38.8341 160.638 38.6661 160.35C38.4981 160.05 38.1621 159.9 37.6581 159.9H37.2981V159.54H38.9181C39.3621 159.54 39.6921 159.6 39.9081 159.72C40.1361 159.828 40.2981 160.032 40.3941 160.332C40.4901 160.632 40.5381 161.088 40.5381 161.7V168H38.9181V161.7ZM46.9118 168.18C46.0478 168.18 45.3158 167.988 44.7158 167.604C44.1278 167.208 43.6838 166.68 43.3838 166.02C43.0958 165.348 42.9518 164.598 42.9518 163.77C42.9518 162.942 43.0958 162.198 43.3838 161.538C43.6838 160.866 44.1278 160.338 44.7158 159.954C45.3158 159.558 46.0478 159.36 46.9118 159.36C48.2318 159.36 49.1018 159.57 49.5218 159.99C49.7258 160.194 49.8518 160.446 49.8998 160.746C49.9478 161.034 49.9718 161.562 49.9718 162.33H49.6118C49.5638 161.586 49.3298 161.028 48.9098 160.656C48.4898 160.272 47.9438 160.08 47.2718 160.08C46.4078 160.08 45.7538 160.422 45.3098 161.106C44.8778 161.79 44.6618 162.678 44.6618 163.77C44.6618 164.862 44.8778 165.75 45.3098 166.434C45.7538 167.118 46.4078 167.46 47.2718 167.46C47.8838 167.46 48.3878 167.346 48.7838 167.118C49.1798 166.878 49.5458 166.512 49.8818 166.02L50.2418 166.29C49.8458 166.962 49.3778 167.448 48.8378 167.748C48.2978 168.036 47.6558 168.18 46.9118 168.18ZM55.577 168.18C54.677 168.18 53.939 167.94 53.363 167.46C52.799 166.98 52.517 166.14 52.517 164.94V161.7C52.517 161.088 52.433 160.638 52.265 160.35C52.097 160.05 51.761 159.9 51.257 159.9H51.077V159.54H52.517C52.961 159.54 53.291 159.6 53.507 159.72C53.735 159.828 53.897 160.032 53.993 160.332C54.089 160.632 54.137 161.088 54.137 161.7V164.94C54.137 165.78 54.323 166.398 54.695 166.794C55.079 167.178 55.553 167.37 56.117 167.37C56.753 167.37 57.353 167.052 57.917 166.416V159.54H59.537V168H58.637L58.007 167.28H57.917C57.665 167.532 57.335 167.748 56.927 167.928C56.531 168.096 56.081 168.18 55.577 168.18ZM62.5638 158.28C62.5638 157.668 62.4798 157.218 62.3118 156.93C62.1438 156.63 61.8078 156.48 61.3038 156.48H60.9438V156.12H62.5638C63.0078 156.12 63.3378 156.18 63.5538 156.3C63.7818 156.408 63.9438 156.612 64.0398 156.912C64.1358 157.212 64.1838 157.668 64.1838 158.28V168H62.5638V158.28ZM70.2892 168.18C69.3892 168.18 68.6512 167.94 68.0752 167.46C67.5112 166.98 67.2292 166.14 67.2292 164.94V161.7C67.2292 161.088 67.1452 160.638 66.9772 160.35C66.8092 160.05 66.4732 159.9 65.9692 159.9H65.7892V159.54H67.2292C67.6732 159.54 68.0032 159.6 68.2192 159.72C68.4472 159.828 68.6092 160.032 68.7052 160.332C68.8012 160.632 68.8492 161.088 68.8492 161.7V164.94C68.8492 165.78 69.0352 166.398 69.4072 166.794C69.7912 167.178 70.2652 167.37 70.8292 167.37C71.4652 167.37 72.0652 167.052 72.6292 166.416V159.54H74.2492V168H73.3492L72.7192 167.28H72.6292C72.3772 167.532 72.0472 167.748 71.6392 167.928C71.2432 168.096 70.7932 168.18 70.2892 168.18ZM77.474 161.7C77.474 161.088 77.39 160.638 77.222 160.35C77.054 160.05 76.718 159.9 76.214 159.9H75.854V159.54H77.474C77.918 159.54 78.254 159.6 78.482 159.72C78.722 159.84 78.896 160.02 79.004 160.26H79.094C79.346 160.008 79.67 159.798 80.066 159.63C80.474 159.45 80.93 159.36 81.434 159.36C81.938 159.36 82.37 159.456 82.73 159.648C83.09 159.828 83.378 160.152 83.594 160.62C83.906 160.224 84.302 159.918 84.782 159.702C85.274 159.474 85.778 159.36 86.294 159.36C87.062 159.36 87.674 159.6 88.13 160.08C88.586 160.56 88.814 161.4 88.814 162.6V168H87.194V162.6C87.194 161.736 87.074 161.118 86.834 160.746C86.594 160.362 86.234 160.17 85.754 160.17C85.418 160.17 85.064 160.296 84.692 160.548C84.32 160.788 84.044 161.052 83.864 161.34C83.924 161.52 83.954 161.94 83.954 162.6V168H82.334V162.6C82.334 161.736 82.214 161.118 81.974 160.746C81.734 160.362 81.374 160.17 80.894 160.17C80.258 160.17 79.658 160.488 79.094 161.124V168H77.474V161.7ZM99.3468 168.18C98.3028 168.18 97.4988 167.766 96.9348 166.938C96.3828 166.11 96.1068 165.054 96.1068 163.77C96.1068 162.486 96.3948 161.43 96.9708 160.602C97.5588 159.774 98.4108 159.36 99.5268 159.36C99.9828 159.36 100.385 159.408 100.733 159.504C101.081 159.6 101.429 159.732 101.777 159.9V158.28C101.777 157.668 101.693 157.218 101.525 156.93C101.357 156.63 101.021 156.48 100.517 156.48H100.157V156.12H101.777C102.221 156.12 102.551 156.18 102.767 156.3C102.995 156.408 103.157 156.612 103.253 156.912C103.349 157.212 103.397 157.668 103.397 158.28V168H102.497L101.867 167.19H101.777C101.513 167.49 101.201 167.73 100.841 167.91C100.493 168.09 99.9948 168.18 99.3468 168.18ZM99.8868 167.46C100.379 167.46 100.751 167.37 101.003 167.19C101.255 167.01 101.513 166.74 101.777 166.38V160.62C101.417 160.452 101.105 160.32 100.841 160.224C100.577 160.128 100.319 160.08 100.067 160.08C99.2988 160.08 98.7288 160.416 98.3568 161.088C97.9968 161.76 97.8168 162.654 97.8168 163.77C97.8168 164.874 97.9908 165.768 98.3388 166.452C98.6868 167.124 99.2028 167.46 99.8868 167.46ZM109.65 168.18C108.834 168.18 108.144 167.988 107.58 167.604C107.016 167.208 106.59 166.68 106.302 166.02C106.014 165.348 105.87 164.598 105.87 163.77C105.87 162.954 106.014 162.21 106.302 161.538C106.59 160.866 107.004 160.338 107.544 159.954C108.096 159.558 108.738 159.36 109.47 159.36C110.682 159.36 111.582 159.702 112.17 160.386C112.77 161.058 113.07 162.036 113.07 163.32L113.034 164.04H107.58C107.58 165.048 107.796 165.87 108.228 166.506C108.66 167.142 109.254 167.46 110.01 167.46C110.574 167.46 111.048 167.34 111.432 167.1C111.828 166.86 112.194 166.5 112.53 166.02L112.89 166.29C112.494 166.95 112.032 167.43 111.504 167.73C110.976 168.03 110.358 168.18 109.65 168.18ZM111.36 163.32C111.36 162.264 111.204 161.46 110.892 160.908C110.58 160.356 110.106 160.08 109.47 160.08C109.11 160.08 108.786 160.224 108.498 160.512C108.21 160.788 107.982 161.172 107.814 161.664C107.658 162.156 107.58 162.708 107.58 163.32H111.36ZM118.331 168.18C116.951 168.18 116.021 167.94 115.541 167.46C115.337 167.256 115.211 167.028 115.163 166.776C115.115 166.512 115.091 166.11 115.091 165.57H115.451C115.559 166.17 115.817 166.638 116.225 166.974C116.645 167.298 117.227 167.46 117.971 167.46C118.631 167.46 119.123 167.346 119.447 167.118C119.783 166.89 119.951 166.584 119.951 166.2C119.951 165.852 119.819 165.552 119.555 165.3C119.303 165.048 118.895 164.808 118.331 164.58L117.251 164.13C116.531 163.842 115.991 163.506 115.631 163.122C115.271 162.738 115.091 162.264 115.091 161.7C115.091 160.968 115.367 160.398 115.919 159.99C116.471 159.57 117.185 159.36 118.061 159.36C119.381 159.36 120.281 159.6 120.761 160.08C120.965 160.284 121.091 160.512 121.139 160.764C121.187 161.016 121.211 161.418 121.211 161.97H120.851C120.755 161.37 120.503 160.908 120.095 160.584C119.687 160.248 119.129 160.08 118.421 160.08C117.857 160.08 117.413 160.2 117.089 160.44C116.777 160.668 116.621 160.968 116.621 161.34C116.621 161.964 117.101 162.474 118.061 162.87L119.141 163.32C119.957 163.656 120.551 164.016 120.923 164.4C121.295 164.772 121.481 165.252 121.481 165.84C121.481 166.572 121.187 167.148 120.599 167.568C120.011 167.976 119.255 168.18 118.331 168.18ZM124.853 158.46C124.577 158.46 124.337 158.346 124.133 158.118C123.941 157.89 123.845 157.62 123.845 157.308C123.845 157.056 123.917 156.858 124.061 156.714C124.217 156.57 124.421 156.498 124.673 156.498C124.949 156.498 125.183 156.612 125.375 156.84C125.579 157.068 125.681 157.338 125.681 157.65C125.681 157.902 125.603 158.1 125.447 158.244C125.303 158.388 125.105 158.46 124.853 158.46ZM124.169 161.7C124.169 161.088 124.085 160.638 123.917 160.35C123.749 160.05 123.413 159.9 122.909 159.9H122.549V159.54H124.169C124.613 159.54 124.943 159.6 125.159 159.72C125.387 159.828 125.549 160.032 125.645 160.332C125.741 160.632 125.789 161.088 125.789 161.7V168H124.169V161.7ZM131.82 171.6C130.608 171.6 129.642 171.378 128.922 170.934C128.214 170.49 127.86 169.782 127.86 168.81C127.86 168.258 128.046 167.778 128.418 167.37C128.79 166.962 129.264 166.662 129.84 166.47C129.36 166.206 129.12 165.846 129.12 165.39C129.12 165.15 129.174 164.964 129.282 164.832C129.39 164.7 129.546 164.556 129.75 164.4C129.366 164.208 129.042 163.908 128.778 163.5C128.526 163.092 128.4 162.612 128.4 162.06C128.4 160.26 129.54 159.36 131.82 159.36H135.15V159.81L133.98 159.99V160.08C134.352 160.272 134.652 160.542 134.88 160.89C135.12 161.226 135.24 161.616 135.24 162.06C135.24 163.86 134.1 164.76 131.82 164.76C130.56 164.76 129.93 164.97 129.93 165.39C129.93 165.81 130.56 166.02 131.82 166.02C132.984 166.02 133.932 166.254 134.664 166.722C135.408 167.178 135.78 167.874 135.78 168.81C135.78 169.782 135.42 170.49 134.7 170.934C133.992 171.378 133.032 171.6 131.82 171.6ZM131.82 164.13C132.36 164.13 132.792 163.968 133.116 163.644C133.452 163.308 133.62 162.78 133.62 162.06C133.62 161.376 133.452 160.86 133.116 160.512C132.792 160.164 132.36 159.99 131.82 159.99C131.28 159.99 130.842 160.158 130.506 160.494C130.182 160.818 130.02 161.34 130.02 162.06C130.02 162.78 130.182 163.308 130.506 163.644C130.842 163.968 131.28 164.13 131.82 164.13ZM131.82 170.88C132.54 170.88 133.11 170.706 133.53 170.358C133.95 170.022 134.16 169.506 134.16 168.81C134.16 167.61 133.44 166.92 132 166.74L131.01 166.65C130.518 166.842 130.14 167.112 129.876 167.46C129.612 167.808 129.48 168.258 129.48 168.81C129.48 169.506 129.69 170.022 130.11 170.358C130.53 170.706 131.1 170.88 131.82 170.88ZM138.178 161.7C138.178 161.088 138.094 160.638 137.926 160.35C137.758 160.05 137.422 159.9 136.918 159.9H136.558V159.54H138.178C138.622 159.54 138.958 159.6 139.186 159.72C139.426 159.84 139.6 160.02 139.708 160.26H139.798C140.05 160.008 140.374 159.798 140.77 159.63C141.178 159.45 141.634 159.36 142.138 159.36C143.038 159.36 143.77 159.6 144.334 160.08C144.91 160.56 145.198 161.4 145.198 162.6V168H143.578V162.6C143.578 161.76 143.386 161.148 143.002 160.764C142.63 160.368 142.162 160.17 141.598 160.17C140.962 160.17 140.362 160.488 139.798 161.124V168H138.178V161.7ZM151.353 168.18C150.537 168.18 149.847 167.988 149.283 167.604C148.719 167.208 148.293 166.68 148.005 166.02C147.717 165.348 147.573 164.598 147.573 163.77C147.573 162.954 147.717 162.21 148.005 161.538C148.293 160.866 148.707 160.338 149.247 159.954C149.799 159.558 150.441 159.36 151.173 159.36C152.385 159.36 153.285 159.702 153.873 160.386C154.473 161.058 154.773 162.036 154.773 163.32L154.737 164.04H149.283C149.283 165.048 149.499 165.87 149.931 166.506C150.363 167.142 150.957 167.46 151.713 167.46C152.277 167.46 152.751 167.34 153.135 167.1C153.531 166.86 153.897 166.5 154.233 166.02L154.593 166.29C154.197 166.95 153.735 167.43 153.207 167.73C152.679 168.03 152.061 168.18 151.353 168.18ZM153.063 163.32C153.063 162.264 152.907 161.46 152.595 160.908C152.283 160.356 151.809 160.08 151.173 160.08C150.813 160.08 150.489 160.224 150.201 160.512C149.913 160.788 149.685 161.172 149.517 161.664C149.361 162.156 149.283 162.708 149.283 163.32H153.063ZM159.998 168.18C158.954 168.18 158.15 167.766 157.586 166.938C157.034 166.11 156.758 165.054 156.758 163.77C156.758 162.486 157.046 161.43 157.622 160.602C158.21 159.774 159.062 159.36 160.178 159.36C160.634 159.36 161.036 159.408 161.384 159.504C161.732 159.6 162.08 159.732 162.428 159.9V158.28C162.428 157.668 162.344 157.218 162.176 156.93C162.008 156.63 161.672 156.48 161.168 156.48H160.808V156.12H162.428C162.872 156.12 163.202 156.18 163.418 156.3C163.646 156.408 163.808 156.612 163.904 156.912C164 157.212 164.048 157.668 164.048 158.28V168H163.148L162.518 167.19H162.428C162.164 167.49 161.852 167.73 161.492 167.91C161.144 168.09 160.646 168.18 159.998 168.18ZM160.538 167.46C161.03 167.46 161.402 167.37 161.654 167.19C161.906 167.01 162.164 166.74 162.428 166.38V160.62C162.068 160.452 161.756 160.32 161.492 160.224C161.228 160.128 160.97 160.08 160.718 160.08C159.95 160.08 159.38 160.416 159.008 161.088C158.648 161.76 158.468 162.654 158.468 163.77C158.468 164.874 158.642 165.768 158.99 166.452C159.338 167.124 159.854 167.46 160.538 167.46ZM173.883 168.18C173.499 168.18 173.109 168.102 172.713 167.946C172.317 167.778 171.975 167.508 171.687 167.136C171.411 166.764 171.273 166.272 171.273 165.66C171.273 164.748 171.693 164.1 172.533 163.716C173.385 163.332 174.495 163.14 175.863 163.14H176.403C176.403 161.964 176.241 161.16 175.917 160.728C175.593 160.296 175.125 160.08 174.513 160.08C173.973 160.08 173.541 160.194 173.217 160.422C172.893 160.65 172.665 161.046 172.533 161.61H171.723C171.723 161.202 171.747 160.884 171.795 160.656C171.843 160.416 171.969 160.194 172.173 159.99C172.389 159.774 172.743 159.618 173.235 159.522C173.739 159.414 174.285 159.36 174.873 159.36C175.845 159.36 176.613 159.624 177.177 160.152C177.741 160.668 178.023 161.664 178.023 163.14V168H177.123L176.493 167.19H176.403C176.187 167.466 175.869 167.7 175.449 167.892C175.029 168.084 174.507 168.18 173.883 168.18ZM174.693 167.37C175.089 167.37 175.419 167.274 175.683 167.082C175.947 166.89 176.187 166.626 176.403 166.29V163.86H175.863C174.975 163.86 174.273 164.028 173.757 164.364C173.241 164.688 172.983 165.12 172.983 165.66C172.983 166.212 173.145 166.638 173.469 166.938C173.805 167.226 174.213 167.37 174.693 167.37ZM181.163 161.7C181.163 161.088 181.079 160.638 180.911 160.35C180.743 160.05 180.407 159.9 179.903 159.9H179.543V159.54H181.163C181.607 159.54 181.943 159.6 182.171 159.72C182.411 159.84 182.585 160.02 182.693 160.26H182.783C183.035 160.008 183.359 159.798 183.755 159.63C184.163 159.45 184.619 159.36 185.123 159.36C186.023 159.36 186.755 159.6 187.319 160.08C187.895 160.56 188.183 161.4 188.183 162.6V168H186.563V162.6C186.563 161.76 186.371 161.148 185.987 160.764C185.615 160.368 185.147 160.17 184.583 160.17C183.947 160.17 183.347 160.488 182.783 161.124V168H181.163V161.7ZM193.834 168.18C192.79 168.18 191.986 167.766 191.422 166.938C190.87 166.11 190.594 165.054 190.594 163.77C190.594 162.486 190.882 161.43 191.458 160.602C192.046 159.774 192.898 159.36 194.014 159.36C194.47 159.36 194.872 159.408 195.22 159.504C195.568 159.6 195.916 159.732 196.264 159.9V158.28C196.264 157.668 196.18 157.218 196.012 156.93C195.844 156.63 195.508 156.48 195.004 156.48H194.644V156.12H196.264C196.708 156.12 197.038 156.18 197.254 156.3C197.482 156.408 197.644 156.612 197.74 156.912C197.836 157.212 197.884 157.668 197.884 158.28V168H196.984L196.354 167.19H196.264C196 167.49 195.688 167.73 195.328 167.91C194.98 168.09 194.482 168.18 193.834 168.18ZM194.374 167.46C194.866 167.46 195.238 167.37 195.49 167.19C195.742 167.01 196 166.74 196.264 166.38V160.62C195.904 160.452 195.592 160.32 195.328 160.224C195.064 160.128 194.806 160.08 194.554 160.08C193.786 160.08 193.216 160.416 192.844 161.088C192.484 161.76 192.304 162.654 192.304 163.77C192.304 164.874 192.478 165.768 192.826 166.452C193.174 167.124 193.69 167.46 194.374 167.46ZM208.206 168.18C207.534 168.18 207.006 167.988 206.622 167.604C206.238 167.22 206.046 166.632 206.046 165.84V160.26H204.786V159.54H206.046V157.92L206.946 156.84H207.666V159.54H209.826V160.26H207.666V165.84C207.666 166.92 208.086 167.46 208.926 167.46C209.214 167.46 209.454 167.43 209.646 167.37C209.85 167.31 210.06 167.22 210.276 167.1L210.456 167.46C210.18 167.664 209.874 167.838 209.538 167.982C209.202 168.114 208.758 168.18 208.206 168.18ZM214.162 168.18C213.778 168.18 213.388 168.102 212.992 167.946C212.596 167.778 212.254 167.508 211.966 167.136C211.69 166.764 211.552 166.272 211.552 165.66C211.552 164.748 211.972 164.1 212.812 163.716C213.664 163.332 214.774 163.14 216.142 163.14H216.682C216.682 161.964 216.52 161.16 216.196 160.728C215.872 160.296 215.404 160.08 214.792 160.08C214.252 160.08 213.82 160.194 213.496 160.422C213.172 160.65 212.944 161.046 212.812 161.61H212.002C212.002 161.202 212.026 160.884 212.074 160.656C212.122 160.416 212.248 160.194 212.452 159.99C212.668 159.774 213.022 159.618 213.514 159.522C214.018 159.414 214.564 159.36 215.152 159.36C216.124 159.36 216.892 159.624 217.456 160.152C218.02 160.668 218.302 161.664 218.302 163.14V168H217.402L216.772 167.19H216.682C216.466 167.466 216.148 167.7 215.728 167.892C215.308 168.084 214.786 168.18 214.162 168.18ZM214.972 167.37C215.368 167.37 215.698 167.274 215.962 167.082C216.226 166.89 216.466 166.626 216.682 166.29V163.86H216.142C215.254 163.86 214.552 164.028 214.036 164.364C213.52 164.688 213.262 165.12 213.262 165.66C213.262 166.212 213.424 166.638 213.748 166.938C214.084 167.226 214.492 167.37 214.972 167.37ZM224.25 168.18C223.35 168.18 222.612 167.94 222.036 167.46C221.472 166.98 221.19 166.14 221.19 164.94V161.7C221.19 161.088 221.106 160.638 220.938 160.35C220.77 160.05 220.434 159.9 219.93 159.9H219.75V159.54H221.19C221.634 159.54 221.964 159.6 222.18 159.72C222.408 159.828 222.57 160.032 222.666 160.332C222.762 160.632 222.81 161.088 222.81 161.7V164.94C222.81 165.78 222.996 166.398 223.368 166.794C223.752 167.178 224.226 167.37 224.79 167.37C225.426 167.37 226.026 167.052 226.59 166.416V159.54H228.21V168H227.31L226.68 167.28H226.59C226.338 167.532 226.008 167.748 225.6 167.928C225.204 168.096 224.754 168.18 224.25 168.18ZM234.296 171.6C233.084 171.6 232.118 171.378 231.398 170.934C230.69 170.49 230.336 169.782 230.336 168.81C230.336 168.258 230.522 167.778 230.894 167.37C231.266 166.962 231.74 166.662 232.316 166.47C231.836 166.206 231.596 165.846 231.596 165.39C231.596 165.15 231.65 164.964 231.758 164.832C231.866 164.7 232.022 164.556 232.226 164.4C231.842 164.208 231.518 163.908 231.254 163.5C231.002 163.092 230.876 162.612 230.876 162.06C230.876 160.26 232.016 159.36 234.296 159.36H237.626V159.81L236.456 159.99V160.08C236.828 160.272 237.128 160.542 237.356 160.89C237.596 161.226 237.716 161.616 237.716 162.06C237.716 163.86 236.576 164.76 234.296 164.76C233.036 164.76 232.406 164.97 232.406 165.39C232.406 165.81 233.036 166.02 234.296 166.02C235.46 166.02 236.408 166.254 237.14 166.722C237.884 167.178 238.256 167.874 238.256 168.81C238.256 169.782 237.896 170.49 237.176 170.934C236.468 171.378 235.508 171.6 234.296 171.6ZM234.296 164.13C234.836 164.13 235.268 163.968 235.592 163.644C235.928 163.308 236.096 162.78 236.096 162.06C236.096 161.376 235.928 160.86 235.592 160.512C235.268 160.164 234.836 159.99 234.296 159.99C233.756 159.99 233.318 160.158 232.982 160.494C232.658 160.818 232.496 161.34 232.496 162.06C232.496 162.78 232.658 163.308 232.982 163.644C233.318 163.968 233.756 164.13 234.296 164.13ZM234.296 170.88C235.016 170.88 235.586 170.706 236.006 170.358C236.426 170.022 236.636 169.506 236.636 168.81C236.636 167.61 235.916 166.92 234.476 166.74L233.486 166.65C232.994 166.842 232.616 167.112 232.352 167.46C232.088 167.808 231.956 168.258 231.956 168.81C231.956 169.506 232.166 170.022 232.586 170.358C233.006 170.706 233.576 170.88 234.296 170.88ZM240.384 158.28C240.384 157.668 240.3 157.218 240.132 156.93C239.964 156.63 239.628 156.48 239.124 156.48H238.764V156.12H240.384C240.828 156.12 241.158 156.18 241.374 156.3C241.602 156.408 241.764 156.612 241.86 156.912C241.956 157.212 242.004 157.668 242.004 158.28V160.26C242.256 160.008 242.58 159.798 242.976 159.63C243.384 159.45 243.84 159.36 244.344 159.36C245.244 159.36 245.976 159.6 246.54 160.08C247.116 160.56 247.404 161.4 247.404 162.6V168H245.784V162.6C245.784 161.76 245.592 161.148 245.208 160.764C244.836 160.368 244.368 160.17 243.804 160.17C243.168 160.17 242.568 160.488 242.004 161.124V168H240.384V158.28ZM252.773 168.18C252.101 168.18 251.573 167.988 251.189 167.604C250.805 167.22 250.613 166.632 250.613 165.84V160.26H249.353V159.54H250.613V157.92L251.513 156.84H252.233V159.54H254.393V160.26H252.233V165.84C252.233 166.92 252.653 167.46 253.493 167.46C253.781 167.46 254.021 167.43 254.213 167.37C254.417 167.31 254.627 167.22 254.843 167.1L255.023 167.46C254.747 167.664 254.441 167.838 254.105 167.982C253.769 168.114 253.325 168.18 252.773 168.18ZM265.623 168.18C265.011 168.18 264.507 168.084 264.111 167.892C263.715 167.7 263.409 167.466 263.193 167.19H263.103L262.473 168H261.573V158.28C261.573 157.668 261.489 157.218 261.321 156.93C261.153 156.63 260.817 156.48 260.313 156.48H259.953V156.12H261.573C262.017 156.12 262.347 156.18 262.563 156.3C262.791 156.408 262.953 156.612 263.049 156.912C263.145 157.212 263.193 157.668 263.193 158.28V159.9C263.541 159.732 263.889 159.6 264.237 159.504C264.585 159.408 264.987 159.36 265.443 159.36C266.559 159.36 267.405 159.774 267.981 160.602C268.569 161.43 268.863 162.486 268.863 163.77C268.863 165.042 268.581 166.098 268.017 166.938C267.453 167.766 266.655 168.18 265.623 168.18ZM265.083 167.46C265.767 167.46 266.283 167.124 266.631 166.452C266.979 165.768 267.153 164.874 267.153 163.77C267.153 162.654 266.967 161.76 266.595 161.088C266.235 160.416 265.671 160.08 264.903 160.08C264.651 160.08 264.393 160.128 264.129 160.224C263.865 160.32 263.553 160.452 263.193 160.62V166.38C263.409 166.704 263.661 166.968 263.949 167.172C264.249 167.364 264.627 167.46 265.083 167.46ZM271.685 171.06C272.273 171.06 272.753 170.922 273.125 170.646C273.509 170.382 273.839 169.89 274.115 169.17L274.475 168.18L271.595 161.16C271.259 160.296 270.599 159.816 269.615 159.72V159.36H271.145C272.189 159.36 272.909 159.84 273.305 160.8L275.357 165.786L277.625 159.54H278.525L275.015 169.17C274.667 170.118 274.283 170.76 273.863 171.096C273.443 171.432 272.897 171.6 272.225 171.6H271.685V171.06ZM295.457 168.09C294.881 168.09 294.311 167.934 293.747 167.622C293.183 167.298 292.733 166.674 292.397 165.75L291.947 164.58H286.907L285.467 168H284.657L289.697 156.12H290.237L294.197 165.75C294.497 166.446 294.779 166.926 295.043 167.19C295.307 167.442 295.685 167.592 296.177 167.64V168C295.961 168.06 295.721 168.09 295.457 168.09ZM291.587 163.86L289.427 158.64L287.177 163.86H291.587ZM297.415 158.28C297.415 157.668 297.331 157.218 297.163 156.93C296.995 156.63 296.659 156.48 296.155 156.48H295.795V156.12H297.415C297.859 156.12 298.189 156.18 298.405 156.3C298.633 156.408 298.795 156.612 298.891 156.912C298.987 157.212 299.035 157.668 299.035 158.28V168H297.415V158.28ZM305.141 168.18C304.241 168.18 303.503 167.94 302.927 167.46C302.363 166.98 302.081 166.14 302.081 164.94V161.7C302.081 161.088 301.997 160.638 301.829 160.35C301.661 160.05 301.325 159.9 300.821 159.9H300.641V159.54H302.081C302.525 159.54 302.855 159.6 303.071 159.72C303.299 159.828 303.461 160.032 303.557 160.332C303.653 160.632 303.701 161.088 303.701 161.7V164.94C303.701 165.78 303.887 166.398 304.259 166.794C304.643 167.178 305.117 167.37 305.681 167.37C306.317 167.37 306.917 167.052 307.481 166.416V159.54H309.101V168H308.201L307.571 167.28H307.481C307.229 167.532 306.899 167.748 306.491 167.928C306.095 168.096 305.645 168.18 305.141 168.18ZM312.325 161.7C312.325 161.088 312.241 160.638 312.073 160.35C311.905 160.05 311.569 159.9 311.065 159.9H310.705V159.54H312.325C312.769 159.54 313.105 159.6 313.333 159.72C313.573 159.84 313.747 160.02 313.855 160.26H313.945C314.197 160.008 314.521 159.798 314.917 159.63C315.325 159.45 315.781 159.36 316.285 159.36C316.789 159.36 317.221 159.456 317.581 159.648C317.941 159.828 318.229 160.152 318.445 160.62C318.757 160.224 319.153 159.918 319.633 159.702C320.125 159.474 320.629 159.36 321.145 159.36C321.913 159.36 322.525 159.6 322.981 160.08C323.437 160.56 323.665 161.4 323.665 162.6V168H322.045V162.6C322.045 161.736 321.925 161.118 321.685 160.746C321.445 160.362 321.085 160.17 320.605 160.17C320.269 160.17 319.915 160.296 319.543 160.548C319.171 160.788 318.895 161.052 318.715 161.34C318.775 161.52 318.805 161.94 318.805 162.6V168H317.185V162.6C317.185 161.736 317.065 161.118 316.825 160.746C316.585 160.362 316.225 160.17 315.745 160.17C315.109 160.17 314.509 160.488 313.945 161.124V168H312.325V161.7ZM326.818 161.7C326.818 161.088 326.734 160.638 326.566 160.35C326.398 160.05 326.062 159.9 325.558 159.9H325.198V159.54H326.818C327.262 159.54 327.598 159.6 327.826 159.72C328.066 159.84 328.24 160.02 328.348 160.26H328.438C328.69 160.008 329.014 159.798 329.41 159.63C329.818 159.45 330.274 159.36 330.778 159.36C331.678 159.36 332.41 159.6 332.974 160.08C333.55 160.56 333.838 161.4 333.838 162.6V168H332.218V162.6C332.218 161.76 332.026 161.148 331.642 160.764C331.27 160.368 330.802 160.17 330.238 160.17C329.602 160.17 329.002 160.488 328.438 161.124V168H326.818V161.7ZM337.653 158.46C337.377 158.46 337.137 158.346 336.933 158.118C336.741 157.89 336.645 157.62 336.645 157.308C336.645 157.056 336.717 156.858 336.861 156.714C337.017 156.57 337.221 156.498 337.473 156.498C337.749 156.498 337.983 156.612 338.175 156.84C338.379 157.068 338.481 157.338 338.481 157.65C338.481 157.902 338.403 158.1 338.247 158.244C338.103 158.388 337.905 158.46 337.653 158.46ZM336.969 161.7C336.969 161.088 336.885 160.638 336.717 160.35C336.549 160.05 336.213 159.9 335.709 159.9H335.349V159.54H336.969C337.413 159.54 337.743 159.6 337.959 159.72C338.187 159.828 338.349 160.032 338.445 160.332C338.541 160.632 338.589 161.088 338.589 161.7V168H336.969V161.7ZM345.431 160.26V159.54H346.691V159C346.691 156.96 347.741 155.94 349.841 155.94C350.597 155.94 351.107 156.03 351.371 156.21C351.575 156.366 351.785 156.636 352.001 157.02L351.461 157.47C351.101 156.93 350.531 156.66 349.751 156.66C348.791 156.66 348.311 157.44 348.311 159V159.54H350.831V160.26H348.311V168H346.691V160.26H345.431ZM352.917 161.7C352.917 161.088 352.833 160.638 352.665 160.35C352.497 160.05 352.161 159.9 351.657 159.9H351.477V159.54H352.917C353.373 159.54 353.715 159.606 353.943 159.738C354.183 159.858 354.351 160.062 354.447 160.35H354.537C354.753 160.074 355.041 159.84 355.401 159.648C355.773 159.456 356.205 159.36 356.697 159.36C357.177 159.36 357.537 159.45 357.777 159.63C357.981 159.786 358.191 160.056 358.407 160.44L357.687 160.98C357.555 160.8 357.363 160.668 357.111 160.584C356.859 160.488 356.571 160.44 356.247 160.44C355.887 160.44 355.557 160.524 355.257 160.692C354.957 160.848 354.717 161.064 354.537 161.34V168H352.917V161.7ZM363.604 168.18C362.788 168.18 362.08 167.988 361.48 167.604C360.88 167.208 360.424 166.674 360.112 166.002C359.8 165.33 359.644 164.586 359.644 163.77C359.644 162.954 359.8 162.21 360.112 161.538C360.424 160.866 360.88 160.338 361.48 159.954C362.08 159.558 362.788 159.36 363.604 159.36C364.42 159.36 365.128 159.558 365.728 159.954C366.328 160.338 366.784 160.866 367.096 161.538C367.408 162.21 367.564 162.954 367.564 163.77C367.564 164.586 367.408 165.33 367.096 166.002C366.784 166.674 366.328 167.208 365.728 167.604C365.128 167.988 364.42 168.18 363.604 168.18ZM363.604 167.46C364.048 167.46 364.438 167.298 364.774 166.974C365.122 166.65 365.386 166.206 365.566 165.642C365.758 165.078 365.854 164.454 365.854 163.77C365.854 163.086 365.758 162.462 365.566 161.898C365.386 161.334 365.122 160.89 364.774 160.566C364.438 160.242 364.048 160.08 363.604 160.08C363.16 160.08 362.764 160.242 362.416 160.566C362.08 160.89 361.816 161.334 361.624 161.898C361.444 162.462 361.354 163.086 361.354 163.77C361.354 164.454 361.444 165.078 361.624 165.642C361.816 166.206 362.08 166.65 362.416 166.974C362.764 167.298 363.16 167.46 363.604 167.46ZM370.304 161.7C370.304 161.088 370.22 160.638 370.052 160.35C369.884 160.05 369.548 159.9 369.044 159.9H368.684V159.54H370.304C370.748 159.54 371.084 159.6 371.312 159.72C371.552 159.84 371.726 160.02 371.834 160.26H371.924C372.176 160.008 372.5 159.798 372.896 159.63C373.304 159.45 373.76 159.36 374.264 159.36C374.768 159.36 375.2 159.456 375.56 159.648C375.92 159.828 376.208 160.152 376.424 160.62C376.736 160.224 377.132 159.918 377.612 159.702C378.104 159.474 378.608 159.36 379.124 159.36C379.892 159.36 380.504 159.6 380.96 160.08C381.416 160.56 381.644 161.4 381.644 162.6V168H380.024V162.6C380.024 161.736 379.904 161.118 379.664 160.746C379.424 160.362 379.064 160.17 378.584 160.17C378.248 160.17 377.894 160.296 377.522 160.548C377.15 160.788 376.874 161.052 376.694 161.34C376.754 161.52 376.784 161.94 376.784 162.6V168H375.164V162.6C375.164 161.736 375.044 161.118 374.804 160.746C374.564 160.362 374.204 160.17 373.724 160.17C373.088 160.17 372.488 160.488 371.924 161.124V168H370.304V161.7ZM391.313 168C390.869 168 390.533 167.946 390.305 167.838C390.089 167.718 389.933 167.508 389.837 167.208C389.741 166.908 389.693 166.452 389.693 165.84V156.12H391.313V165.84C391.313 166.452 391.397 166.908 391.565 167.208C391.733 167.496 392.069 167.64 392.573 167.64H392.933V168H391.313ZM396.806 168C396.362 168 396.026 167.946 395.798 167.838C395.582 167.718 395.426 167.508 395.33 167.208C395.234 166.908 395.186 166.452 395.186 165.84V156.12H396.806V165.84C396.806 166.452 396.89 166.908 397.058 167.208C397.226 167.496 397.562 167.64 398.066 167.64H398.426V168H396.806ZM401.959 156.84C400.459 156.84 399.709 157.53 399.709 158.91H399.349V157.56C399.349 156.6 399.859 156.12 400.879 156.12H409.249V156.84H405.199V168H403.579V156.84H401.959ZM410.942 160.08C411.422 159.756 411.782 159.402 412.022 159.018C412.262 158.622 412.382 158.166 412.382 157.65L411.842 157.83C411.566 157.83 411.332 157.734 411.14 157.542C410.948 157.35 410.852 157.116 410.852 156.84C410.852 156.528 410.954 156.27 411.158 156.066C411.362 155.862 411.62 155.76 411.932 155.76C412.292 155.76 412.574 155.874 412.778 156.102C412.994 156.318 413.102 156.624 413.102 157.02C413.102 158.496 412.442 159.606 411.122 160.35L410.942 160.08ZM432.448 168.18C431.068 168.18 430.138 167.94 429.658 167.46C429.454 167.256 429.328 167.028 429.28 166.776C429.232 166.512 429.208 166.11 429.208 165.57H429.568C429.676 166.17 429.934 166.638 430.342 166.974C430.762 167.298 431.344 167.46 432.088 167.46C432.748 167.46 433.24 167.346 433.564 167.118C433.9 166.89 434.068 166.584 434.068 166.2C434.068 165.852 433.936 165.552 433.672 165.3C433.42 165.048 433.012 164.808 432.448 164.58L431.368 164.13C430.648 163.842 430.108 163.506 429.748 163.122C429.388 162.738 429.208 162.264 429.208 161.7C429.208 160.968 429.484 160.398 430.036 159.99C430.588 159.57 431.302 159.36 432.178 159.36C433.498 159.36 434.398 159.6 434.878 160.08C435.082 160.284 435.208 160.512 435.256 160.764C435.304 161.016 435.328 161.418 435.328 161.97H434.968C434.872 161.37 434.62 160.908 434.212 160.584C433.804 160.248 433.246 160.08 432.538 160.08C431.974 160.08 431.53 160.2 431.206 160.44C430.894 160.668 430.738 160.968 430.738 161.34C430.738 161.964 431.218 162.474 432.178 162.87L433.258 163.32C434.074 163.656 434.668 164.016 435.04 164.4C435.412 164.772 435.598 165.252 435.598 165.84C435.598 166.572 435.304 167.148 434.716 167.568C434.128 167.976 433.372 168.18 432.448 168.18ZM446.115 168.36C444.903 168.36 443.967 168.096 443.307 167.568C442.659 167.028 442.335 166.332 442.335 165.48C442.335 165.012 442.449 164.592 442.677 164.22C442.905 163.836 443.175 163.506 443.487 163.23C443.811 162.954 444.285 162.588 444.909 162.132C444.513 161.772 444.201 161.436 443.973 161.124C443.697 160.776 443.475 160.386 443.307 159.954C443.139 159.51 443.055 159.048 443.055 158.568C443.055 157.704 443.343 157.02 443.919 156.516C444.507 156.012 445.299 155.76 446.295 155.76C447.219 155.76 447.945 155.994 448.473 156.462C449.001 156.93 449.265 157.536 449.265 158.28C449.265 158.808 449.151 159.282 448.923 159.702C448.695 160.11 448.401 160.476 448.041 160.8C447.681 161.124 447.213 161.484 446.637 161.88L450.255 165.84C450.687 165.372 451.083 164.862 451.443 164.31C451.623 164.022 451.767 163.782 451.875 163.59L452.235 163.86C452.103 164.136 451.971 164.388 451.839 164.616C451.479 165.228 451.077 165.774 450.633 166.254L452.235 168H450.255L449.535 167.226C448.527 167.982 447.387 168.36 446.115 168.36ZM446.079 161.25C446.619 160.794 447.027 160.356 447.303 159.936C447.591 159.504 447.735 159.012 447.735 158.46C447.735 157.764 447.585 157.248 447.285 156.912C446.997 156.564 446.667 156.39 446.295 156.39C445.875 156.39 445.515 156.564 445.215 156.912C444.915 157.26 444.765 157.812 444.765 158.568C444.765 158.988 444.855 159.396 445.035 159.792C445.215 160.176 445.413 160.5 445.629 160.764C445.845 161.028 445.995 161.19 446.079 161.25ZM446.457 167.73C447.465 167.73 448.365 167.424 449.157 166.812L445.449 162.762C444.993 163.158 444.645 163.554 444.405 163.95C444.165 164.346 444.045 164.796 444.045 165.3C444.045 166.92 444.849 167.73 446.457 167.73ZM1.908 181.28C1.908 180.668 1.824 180.218 1.656 179.93C1.488 179.63 1.152 179.48 0.648 179.48H0.288V179.12H1.908C2.352 179.12 2.682 179.18 2.898 179.3C3.126 179.408 3.288 179.612 3.384 179.912C3.48 180.212 3.528 180.668 3.528 181.28V190.28H9.918V191H1.908V181.28ZM14.741 191.18C13.925 191.18 13.235 190.988 12.671 190.604C12.107 190.208 11.681 189.68 11.393 189.02C11.105 188.348 10.961 187.598 10.961 186.77C10.961 185.954 11.105 185.21 11.393 184.538C11.681 183.866 12.095 183.338 12.635 182.954C13.187 182.558 13.829 182.36 14.561 182.36C15.773 182.36 16.673 182.702 17.261 183.386C17.861 184.058 18.161 185.036 18.161 186.32L18.125 187.04H12.671C12.671 188.048 12.887 188.87 13.319 189.506C13.751 190.142 14.345 190.46 15.101 190.46C15.665 190.46 16.139 190.34 16.523 190.1C16.919 189.86 17.285 189.5 17.621 189.02L17.981 189.29C17.585 189.95 17.123 190.43 16.595 190.73C16.067 191.03 15.449 191.18 14.741 191.18ZM16.451 186.32C16.451 185.264 16.295 184.46 15.983 183.908C15.671 183.356 15.197 183.08 14.561 183.08C14.201 183.08 13.877 183.224 13.589 183.512C13.301 183.788 13.073 184.172 12.905 184.664C12.749 185.156 12.671 185.708 12.671 186.32H16.451ZM22.6121 191.18C22.2281 191.18 21.8381 191.102 21.4421 190.946C21.0461 190.778 20.7041 190.508 20.4161 190.136C20.1401 189.764 20.0021 189.272 20.0021 188.66C20.0021 187.748 20.4221 187.1 21.2621 186.716C22.1141 186.332 23.2241 186.14 24.5921 186.14H25.1321C25.1321 184.964 24.9701 184.16 24.6461 183.728C24.3221 183.296 23.8541 183.08 23.2421 183.08C22.7021 183.08 22.2701 183.194 21.9461 183.422C21.6221 183.65 21.3941 184.046 21.2621 184.61H20.4521C20.4521 184.202 20.4761 183.884 20.5241 183.656C20.5721 183.416 20.6981 183.194 20.9021 182.99C21.1181 182.774 21.4721 182.618 21.9641 182.522C22.4681 182.414 23.0141 182.36 23.6021 182.36C24.5741 182.36 25.3421 182.624 25.9061 183.152C26.4701 183.668 26.7521 184.664 26.7521 186.14V191H25.8521L25.2221 190.19H25.1321C24.9161 190.466 24.5981 190.7 24.1781 190.892C23.7581 191.084 23.2361 191.18 22.6121 191.18ZM23.4221 190.37C23.8181 190.37 24.1481 190.274 24.4121 190.082C24.6761 189.89 24.9161 189.626 25.1321 189.29V186.86H24.5921C23.7041 186.86 23.0021 187.028 22.4861 187.364C21.9701 187.688 21.7121 188.12 21.7121 188.66C21.7121 189.212 21.8741 189.638 22.1981 189.938C22.5341 190.226 22.9421 190.37 23.4221 190.37ZM32.4121 191.18C31.3681 191.18 30.5641 190.766 30.0001 189.938C29.4481 189.11 29.1721 188.054 29.1721 186.77C29.1721 185.486 29.4601 184.43 30.0361 183.602C30.6241 182.774 31.4761 182.36 32.5921 182.36C33.0481 182.36 33.4501 182.408 33.7981 182.504C34.1461 182.6 34.4941 182.732 34.8421 182.9V181.28C34.8421 180.668 34.7581 180.218 34.5901 179.93C34.4221 179.63 34.0861 179.48 33.5821 179.48H33.2221V179.12H34.8421C35.2861 179.12 35.6161 179.18 35.8321 179.3C36.0601 179.408 36.2221 179.612 36.3181 179.912C36.4141 180.212 36.4621 180.668 36.4621 181.28V191H35.5621L34.9321 190.19H34.8421C34.5781 190.49 34.2661 190.73 33.9061 190.91C33.5581 191.09 33.0601 191.18 32.4121 191.18ZM32.9521 190.46C33.4441 190.46 33.8161 190.37 34.0681 190.19C34.3201 190.01 34.5781 189.74 34.8421 189.38V183.62C34.4821 183.452 34.1701 183.32 33.9061 183.224C33.6421 183.128 33.3841 183.08 33.1321 183.08C32.3641 183.08 31.7941 183.416 31.4221 184.088C31.0621 184.76 30.8821 185.654 30.8821 186.77C30.8821 187.874 31.0561 188.768 31.4041 189.452C31.7521 190.124 32.2681 190.46 32.9521 190.46ZM40.3755 181.46C40.0995 181.46 39.8595 181.346 39.6555 181.118C39.4635 180.89 39.3675 180.62 39.3675 180.308C39.3675 180.056 39.4395 179.858 39.5835 179.714C39.7395 179.57 39.9435 179.498 40.1955 179.498C40.4715 179.498 40.7055 179.612 40.8975 179.84C41.1015 180.068 41.2035 180.338 41.2035 180.65C41.2035 180.902 41.1255 181.1 40.9695 181.244C40.8255 181.388 40.6275 181.46 40.3755 181.46ZM39.6915 184.7C39.6915 184.088 39.6075 183.638 39.4395 183.35C39.2715 183.05 38.9355 182.9 38.4315 182.9H38.0715V182.54H39.6915C40.1355 182.54 40.4655 182.6 40.6815 182.72C40.9095 182.828 41.0715 183.032 41.1675 183.332C41.2635 183.632 41.3115 184.088 41.3115 184.7V191H39.6915V184.7ZM44.4812 184.7C44.4812 184.088 44.3972 183.638 44.2292 183.35C44.0612 183.05 43.7252 182.9 43.2212 182.9H42.8612V182.54H44.4812C44.9252 182.54 45.2612 182.6 45.4892 182.72C45.7292 182.84 45.9032 183.02 46.0112 183.26H46.1012C46.3532 183.008 46.6772 182.798 47.0732 182.63C47.4812 182.45 47.9372 182.36 48.4412 182.36C49.3412 182.36 50.0732 182.6 50.6372 183.08C51.2132 183.56 51.5012 184.4 51.5012 185.6V191H49.8812V185.6C49.8812 184.76 49.6892 184.148 49.3052 183.764C48.9332 183.368 48.4652 183.17 47.9012 183.17C47.2652 183.17 46.6652 183.488 46.1012 184.124V191H44.4812V184.7ZM57.4942 194.6C56.2823 194.6 55.3162 194.378 54.5962 193.934C53.8882 193.49 53.5342 192.782 53.5342 191.81C53.5342 191.258 53.7202 190.778 54.0922 190.37C54.4642 189.962 54.9382 189.662 55.5142 189.47C55.0342 189.206 54.7942 188.846 54.7942 188.39C54.7942 188.15 54.8482 187.964 54.9562 187.832C55.0642 187.7 55.2203 187.556 55.4243 187.4C55.0403 187.208 54.7162 186.908 54.4522 186.5C54.2002 186.092 54.0742 185.612 54.0742 185.06C54.0742 183.26 55.2142 182.36 57.4942 182.36H60.8243V182.81L59.6543 182.99V183.08C60.0263 183.272 60.3263 183.542 60.5543 183.89C60.7943 184.226 60.9143 184.616 60.9143 185.06C60.9143 186.86 59.7743 187.76 57.4942 187.76C56.2342 187.76 55.6042 187.97 55.6042 188.39C55.6042 188.81 56.2342 189.02 57.4942 189.02C58.6583 189.02 59.6063 189.254 60.3383 189.722C61.0823 190.178 61.4543 190.874 61.4543 191.81C61.4543 192.782 61.0943 193.49 60.3743 193.934C59.6662 194.378 58.7062 194.6 57.4942 194.6ZM57.4942 187.13C58.0342 187.13 58.4663 186.968 58.7903 186.644C59.1263 186.308 59.2943 185.78 59.2943 185.06C59.2943 184.376 59.1263 183.86 58.7903 183.512C58.4663 183.164 58.0342 182.99 57.4942 182.99C56.9542 182.99 56.5162 183.158 56.1802 183.494C55.8563 183.818 55.6943 184.34 55.6943 185.06C55.6943 185.78 55.8563 186.308 56.1802 186.644C56.5162 186.968 56.9542 187.13 57.4942 187.13ZM57.4942 193.88C58.2143 193.88 58.7843 193.706 59.2043 193.358C59.6243 193.022 59.8343 192.506 59.8343 191.81C59.8343 190.61 59.1143 189.92 57.6743 189.74L56.6842 189.65C56.1923 189.842 55.8143 190.112 55.5503 190.46C55.2862 190.808 55.1542 191.258 55.1542 191.81C55.1542 192.506 55.3642 193.022 55.7842 193.358C56.2042 193.706 56.7742 193.88 57.4942 193.88ZM70.1336 179.84C68.6336 179.84 67.8836 180.53 67.8836 181.91H67.5236V180.56C67.5236 179.6 68.0336 179.12 69.0536 179.12H77.4236V179.84H73.3736V191H71.7536V179.84H70.1336ZM81.0429 191.18C80.2269 191.18 79.5369 190.988 78.9729 190.604C78.4089 190.208 77.9829 189.68 77.6949 189.02C77.4069 188.348 77.2629 187.598 77.2629 186.77C77.2629 185.954 77.4069 185.21 77.6949 184.538C77.9829 183.866 78.3969 183.338 78.9369 182.954C79.4889 182.558 80.1309 182.36 80.8629 182.36C82.0749 182.36 82.9749 182.702 83.5629 183.386C84.1629 184.058 84.4629 185.036 84.4629 186.32L84.4269 187.04H78.9729C78.9729 188.048 79.1889 188.87 79.6209 189.506C80.0529 190.142 80.6469 190.46 81.4029 190.46C81.9669 190.46 82.4409 190.34 82.8249 190.1C83.2209 189.86 83.5869 189.5 83.9229 189.02L84.2829 189.29C83.8869 189.95 83.4249 190.43 82.8969 190.73C82.3689 191.03 81.7509 191.18 81.0429 191.18ZM82.7529 186.32C82.7529 185.264 82.5969 184.46 82.2849 183.908C81.9729 183.356 81.4989 183.08 80.8629 183.08C80.5029 183.08 80.1789 183.224 79.8909 183.512C79.6029 183.788 79.3749 184.172 79.2069 184.664C79.0509 185.156 78.9729 185.708 78.9729 186.32H82.7529ZM90.372 191.18C89.508 191.18 88.776 190.988 88.176 190.604C87.588 190.208 87.144 189.68 86.844 189.02C86.556 188.348 86.412 187.598 86.412 186.77C86.412 185.942 86.556 185.198 86.844 184.538C87.144 183.866 87.588 183.338 88.176 182.954C88.776 182.558 89.508 182.36 90.372 182.36C91.692 182.36 92.562 182.57 92.982 182.99C93.186 183.194 93.312 183.446 93.36 183.746C93.408 184.034 93.432 184.562 93.432 185.33H93.072C93.024 184.586 92.79 184.028 92.37 183.656C91.95 183.272 91.404 183.08 90.732 183.08C89.868 183.08 89.214 183.422 88.77 184.106C88.338 184.79 88.122 185.678 88.122 186.77C88.122 187.862 88.338 188.75 88.77 189.434C89.214 190.118 89.868 190.46 90.732 190.46C91.344 190.46 91.848 190.346 92.244 190.118C92.64 189.878 93.006 189.512 93.342 189.02L93.702 189.29C93.306 189.962 92.838 190.448 92.298 190.748C91.758 191.036 91.116 191.18 90.372 191.18ZM95.9591 181.28C95.9591 180.668 95.8751 180.218 95.7071 179.93C95.5391 179.63 95.2031 179.48 94.6991 179.48H94.3391V179.12H95.9591C96.4031 179.12 96.7331 179.18 96.9491 179.3C97.1771 179.408 97.3391 179.612 97.4351 179.912C97.5311 180.212 97.5791 180.668 97.5791 181.28V183.26C97.8311 183.008 98.1551 182.798 98.5511 182.63C98.9591 182.45 99.4151 182.36 99.9191 182.36C100.819 182.36 101.551 182.6 102.115 183.08C102.691 183.56 102.979 184.4 102.979 185.6V191H101.359V185.6C101.359 184.76 101.167 184.148 100.783 183.764C100.411 183.368 99.9431 183.17 99.3791 183.17C98.7431 183.17 98.1431 183.488 97.5791 184.124V191H95.9591V181.28ZM115.782 191.36C114.666 191.36 113.682 191.09 112.83 190.55C111.99 190.01 111.342 189.278 110.886 188.354C110.43 187.418 110.202 186.38 110.202 185.24C110.202 184.064 110.448 182.978 110.94 181.982C111.444 180.986 112.122 180.2 112.974 179.624C113.838 179.048 114.774 178.76 115.782 178.76C116.742 178.76 117.582 178.898 118.302 179.174C119.034 179.438 119.574 179.78 119.922 180.2C120.126 180.452 120.252 180.788 120.3 181.208C120.348 181.616 120.372 182.18 120.372 182.9H120.012C119.784 181.736 119.364 180.878 118.752 180.326C118.14 179.762 117.33 179.48 116.322 179.48C115.026 179.48 113.982 179.936 113.19 180.848C112.398 181.76 112.002 183.224 112.002 185.24C112.002 186.188 112.152 187.07 112.452 187.886C112.764 188.702 113.244 189.368 113.892 189.884C114.54 190.388 115.35 190.64 116.322 190.64C117.198 190.64 117.96 190.43 118.608 190.01C119.268 189.59 119.856 188.96 120.372 188.12L120.732 188.39C120.18 189.47 119.496 190.238 118.68 190.694C117.876 191.138 116.91 191.36 115.782 191.36ZM126.511 191.18C125.695 191.18 124.987 190.988 124.387 190.604C123.787 190.208 123.331 189.674 123.019 189.002C122.707 188.33 122.551 187.586 122.551 186.77C122.551 185.954 122.707 185.21 123.019 184.538C123.331 183.866 123.787 183.338 124.387 182.954C124.987 182.558 125.695 182.36 126.511 182.36C127.327 182.36 128.035 182.558 128.635 182.954C129.235 183.338 129.691 183.866 130.003 184.538C130.315 185.21 130.471 185.954 130.471 186.77C130.471 187.586 130.315 188.33 130.003 189.002C129.691 189.674 129.235 190.208 128.635 190.604C128.035 190.988 127.327 191.18 126.511 191.18ZM126.511 190.46C126.955 190.46 127.345 190.298 127.681 189.974C128.029 189.65 128.293 189.206 128.473 188.642C128.665 188.078 128.761 187.454 128.761 186.77C128.761 186.086 128.665 185.462 128.473 184.898C128.293 184.334 128.029 183.89 127.681 183.566C127.345 183.242 126.955 183.08 126.511 183.08C126.067 183.08 125.671 183.242 125.323 183.566C124.987 183.89 124.723 184.334 124.531 184.898C124.351 185.462 124.261 186.086 124.261 186.77C124.261 187.454 124.351 188.078 124.531 188.642C124.723 189.206 124.987 189.65 125.323 189.974C125.671 190.298 126.067 190.46 126.511 190.46ZM133.212 184.7C133.212 184.088 133.128 183.638 132.96 183.35C132.792 183.05 132.456 182.9 131.952 182.9H131.592V182.54H133.212C133.656 182.54 133.992 182.6 134.22 182.72C134.46 182.84 134.634 183.02 134.742 183.26H134.832C135.084 183.008 135.408 182.798 135.804 182.63C136.212 182.45 136.668 182.36 137.172 182.36C137.676 182.36 138.108 182.456 138.468 182.648C138.828 182.828 139.116 183.152 139.332 183.62C139.644 183.224 140.04 182.918 140.52 182.702C141.012 182.474 141.516 182.36 142.032 182.36C142.8 182.36 143.412 182.6 143.868 183.08C144.324 183.56 144.552 184.4 144.552 185.6V191H142.932V185.6C142.932 184.736 142.812 184.118 142.572 183.746C142.332 183.362 141.972 183.17 141.492 183.17C141.156 183.17 140.802 183.296 140.43 183.548C140.058 183.788 139.782 184.052 139.602 184.34C139.662 184.52 139.692 184.94 139.692 185.6V191H138.072V185.6C138.072 184.736 137.952 184.118 137.712 183.746C137.472 183.362 137.112 183.17 136.632 183.17C135.996 183.17 135.396 183.488 134.832 184.124V191H133.212V184.7ZM147.705 184.7C147.705 184.088 147.621 183.638 147.453 183.35C147.285 183.05 146.949 182.9 146.445 182.9H146.085V182.54H147.705C148.161 182.54 148.503 182.606 148.731 182.738C148.971 182.858 149.139 183.062 149.235 183.35H149.325C149.541 183.074 149.847 182.84 150.243 182.648C150.639 182.456 151.143 182.36 151.755 182.36C152.787 182.36 153.585 182.78 154.149 183.62C154.713 184.448 154.995 185.498 154.995 186.77C154.995 188.054 154.701 189.11 154.113 189.938C153.537 190.766 152.691 191.18 151.575 191.18C151.119 191.18 150.717 191.132 150.369 191.036C150.021 190.94 149.673 190.808 149.325 190.64V194.42H147.705V184.7ZM151.035 190.46C151.803 190.46 152.367 190.124 152.727 189.452C153.099 188.78 153.285 187.886 153.285 186.77C153.285 185.666 153.111 184.778 152.763 184.106C152.415 183.422 151.899 183.08 151.215 183.08C150.411 183.08 149.781 183.44 149.325 184.16V189.92C149.685 190.088 149.997 190.22 150.261 190.316C150.525 190.412 150.783 190.46 151.035 190.46ZM159.496 191.18C159.112 191.18 158.722 191.102 158.326 190.946C157.93 190.778 157.588 190.508 157.3 190.136C157.024 189.764 156.886 189.272 156.886 188.66C156.886 187.748 157.306 187.1 158.146 186.716C158.998 186.332 160.108 186.14 161.476 186.14H162.016C162.016 184.964 161.854 184.16 161.53 183.728C161.206 183.296 160.738 183.08 160.126 183.08C159.586 183.08 159.154 183.194 158.83 183.422C158.506 183.65 158.278 184.046 158.146 184.61H157.336C157.336 184.202 157.36 183.884 157.408 183.656C157.456 183.416 157.582 183.194 157.786 182.99C158.002 182.774 158.356 182.618 158.848 182.522C159.352 182.414 159.898 182.36 160.486 182.36C161.458 182.36 162.226 182.624 162.79 183.152C163.354 183.668 163.636 184.664 163.636 186.14V191H162.736L162.106 190.19H162.016C161.8 190.466 161.482 190.7 161.062 190.892C160.642 191.084 160.12 191.18 159.496 191.18ZM160.306 190.37C160.702 190.37 161.032 190.274 161.296 190.082C161.56 189.89 161.8 189.626 162.016 189.29V186.86H161.476C160.588 186.86 159.886 187.028 159.37 187.364C158.854 187.688 158.596 188.12 158.596 188.66C158.596 189.212 158.758 189.638 159.082 189.938C159.418 190.226 159.826 190.37 160.306 190.37ZM166.776 184.7C166.776 184.088 166.692 183.638 166.524 183.35C166.356 183.05 166.02 182.9 165.516 182.9H165.156V182.54H166.776C167.22 182.54 167.556 182.6 167.784 182.72C168.024 182.84 168.198 183.02 168.306 183.26H168.396C168.648 183.008 168.972 182.798 169.368 182.63C169.776 182.45 170.232 182.36 170.736 182.36C171.636 182.36 172.368 182.6 172.932 183.08C173.508 183.56 173.796 184.4 173.796 185.6V191H172.176V185.6C172.176 184.76 171.984 184.148 171.6 183.764C171.228 183.368 170.76 183.17 170.196 183.17C169.56 183.17 168.96 183.488 168.396 184.124V191H166.776V184.7ZM177.611 181.46C177.335 181.46 177.095 181.346 176.891 181.118C176.699 180.89 176.603 180.62 176.603 180.308C176.603 180.056 176.675 179.858 176.819 179.714C176.975 179.57 177.179 179.498 177.431 179.498C177.707 179.498 177.941 179.612 178.133 179.84C178.337 180.068 178.439 180.338 178.439 180.65C178.439 180.902 178.361 181.1 178.205 181.244C178.061 181.388 177.863 181.46 177.611 181.46ZM176.927 184.7C176.927 184.088 176.843 183.638 176.675 183.35C176.507 183.05 176.171 182.9 175.667 182.9H175.307V182.54H176.927C177.371 182.54 177.701 182.6 177.917 182.72C178.145 182.828 178.307 183.032 178.403 183.332C178.499 183.632 178.547 184.088 178.547 184.7V191H176.927V184.7ZM184.741 191.18C183.925 191.18 183.235 190.988 182.671 190.604C182.107 190.208 181.681 189.68 181.393 189.02C181.105 188.348 180.961 187.598 180.961 186.77C180.961 185.954 181.105 185.21 181.393 184.538C181.681 183.866 182.095 183.338 182.635 182.954C183.187 182.558 183.829 182.36 184.561 182.36C185.773 182.36 186.673 182.702 187.261 183.386C187.861 184.058 188.161 185.036 188.161 186.32L188.125 187.04H182.671C182.671 188.048 182.887 188.87 183.319 189.506C183.751 190.142 184.345 190.46 185.101 190.46C185.665 190.46 186.139 190.34 186.523 190.1C186.919 189.86 187.285 189.5 187.621 189.02L187.981 189.29C187.585 189.95 187.123 190.43 186.595 190.73C186.067 191.03 185.449 191.18 184.741 191.18ZM186.451 186.32C186.451 185.264 186.295 184.46 185.983 183.908C185.671 183.356 185.197 183.08 184.561 183.08C184.201 183.08 183.877 183.224 183.589 183.512C183.301 183.788 183.073 184.172 182.905 184.664C182.749 185.156 182.671 185.708 182.671 186.32H186.451ZM193.422 191.18C192.042 191.18 191.112 190.94 190.632 190.46C190.428 190.256 190.302 190.028 190.254 189.776C190.206 189.512 190.182 189.11 190.182 188.57H190.542C190.65 189.17 190.908 189.638 191.316 189.974C191.736 190.298 192.318 190.46 193.062 190.46C193.722 190.46 194.214 190.346 194.538 190.118C194.874 189.89 195.042 189.584 195.042 189.2C195.042 188.852 194.91 188.552 194.646 188.3C194.394 188.048 193.986 187.808 193.422 187.58L192.342 187.13C191.622 186.842 191.082 186.506 190.722 186.122C190.362 185.738 190.182 185.264 190.182 184.7C190.182 183.968 190.458 183.398 191.01 182.99C191.562 182.57 192.276 182.36 193.152 182.36C194.472 182.36 195.372 182.6 195.852 183.08C196.056 183.284 196.182 183.512 196.23 183.764C196.278 184.016 196.302 184.418 196.302 184.97H195.942C195.846 184.37 195.594 183.908 195.186 183.584C194.778 183.248 194.22 183.08 193.512 183.08C192.948 183.08 192.504 183.2 192.18 183.44C191.868 183.668 191.712 183.968 191.712 184.34C191.712 184.964 192.192 185.474 193.152 185.87L194.232 186.32C195.048 186.656 195.642 187.016 196.014 187.4C196.386 187.772 196.572 188.252 196.572 188.84C196.572 189.572 196.278 190.148 195.69 190.568C195.102 190.976 194.346 191.18 193.422 191.18ZM199.673 191.252C199.409 191.252 199.181 191.156 198.989 190.964C198.797 190.772 198.701 190.538 198.701 190.262C198.701 189.998 198.797 189.77 198.989 189.578C199.181 189.386 199.409 189.29 199.673 189.29C199.949 189.29 200.177 189.386 200.357 189.578C200.549 189.77 200.645 189.998 200.645 190.262C200.645 190.538 200.549 190.772 200.357 190.964C200.165 191.156 199.937 191.252 199.673 191.252Z" fill="#595959"/>
</svg>
