<svg width="291" height="151" viewBox="0 0 291 151" fill="none" xmlns="http://www.w3.org/2000/svg">
<path d="M14.2614 29.336C14.2614 28.7387 14.1334 28.1947 13.8774 27.704C13.6427 27.2133 13.2054 26.712 12.5654 26.2C11.9254 25.6667 11.008 25.0693 9.81338 24.408C8.14938 23.4693 6.96538 22.5413 6.26138 21.624C5.57871 20.7067 5.23738 19.5333 5.23738 18.104C5.23738 16.9093 5.54671 15.8747 6.16538 15C6.80538 14.1253 7.69071 13.4427 8.82138 12.952C9.95205 12.4613 11.2534 12.216 12.7254 12.216C14.0694 12.216 15.2854 12.3867 16.3734 12.728C17.4614 13.048 18.4747 13.4853 19.4134 14.04L17.8454 16.536C17.0774 16.0453 16.2667 15.64 15.4134 15.32C14.5814 15 13.6 14.84 12.4694 14.84C11.2107 14.84 10.1974 15.1173 9.42938 15.672C8.66138 16.2053 8.27738 16.9093 8.27738 17.784C8.27738 18.5733 8.54405 19.2773 9.07738 19.896C9.63204 20.4933 10.6454 21.1867 12.1174 21.976C13.5254 22.7227 14.6027 23.4587 15.3494 24.184C16.1174 24.888 16.64 25.6347 16.9174 26.424C17.216 27.2133 17.3654 28.088 17.3654 29.048C17.3654 30.3493 17.024 31.48 16.3414 32.44C15.68 33.3787 14.752 34.104 13.5574 34.616C12.3627 35.128 10.976 35.384 9.39738 35.384C7.86138 35.384 6.47471 35.1813 5.23738 34.776C4.00004 34.3493 2.91204 33.7627 1.97338 33.016L3.95738 30.552C4.68271 31.2133 5.52538 31.7467 6.48538 32.152C7.46671 32.536 8.54405 32.728 9.71738 32.728C11.104 32.728 12.2027 32.4293 13.0134 31.832C13.8454 31.2133 14.2614 30.3813 14.2614 29.336ZM19.9706 18.968H22.9146L24.4506 13.72H26.6586L25.7306 18.968H30.3386L29.9226 21.464H25.2826L23.9386 29.24C23.896 29.4747 23.864 29.6987 23.8426 29.912C23.8213 30.104 23.8106 30.2853 23.8106 30.456C23.8106 31.2027 24.0346 31.7893 24.4826 32.216C24.9306 32.6213 25.5173 32.824 26.2426 32.824C26.8613 32.824 27.384 32.7387 27.8106 32.568C28.2373 32.376 28.6213 32.184 28.9626 31.992L29.3146 34.488C28.9093 34.7227 28.3973 34.9253 27.7786 35.096C27.1813 35.288 26.5093 35.384 25.7626 35.384C24.9733 35.384 24.2053 35.224 23.4586 34.904C22.7333 34.584 22.136 34.0827 21.6666 33.4C21.1973 32.696 20.9626 31.7893 20.9626 30.68C20.9626 30.2107 21.0053 29.688 21.0906 29.112L22.4026 21.464H19.5546L19.9706 18.968ZM31.1021 28.44C31.1021 26.3707 31.5501 24.5573 32.4461 23C33.3635 21.4213 34.6221 20.1947 36.2221 19.32C37.8221 18.424 39.6461 17.976 41.6941 17.976C42.9528 17.976 44.0515 18.104 44.9901 18.36C45.9501 18.616 46.7395 18.872 47.3581 19.128L45.3421 30.488C45.3208 30.5947 45.2995 30.7227 45.2781 30.872C45.2781 31 45.2781 31.1387 45.2781 31.288C45.2781 31.8853 45.4488 32.312 45.7901 32.568C46.1315 32.8027 46.5795 32.92 47.1341 32.92L46.1421 35.16C44.9901 35.16 44.1048 34.8827 43.4861 34.328C42.8888 33.752 42.5901 32.8667 42.5901 31.672C41.9928 32.696 41.2355 33.5707 40.3181 34.296C39.4221 35.0213 38.3661 35.384 37.1501 35.384C36.1048 35.384 35.1235 35.1067 34.2061 34.552C33.2888 33.976 32.5421 33.176 31.9661 32.152C31.3901 31.1067 31.1021 29.8693 31.1021 28.44ZM44.1901 20.824C43.7848 20.696 43.3581 20.6 42.9101 20.536C42.4835 20.4507 41.9608 20.408 41.3421 20.408C39.8701 20.408 38.5901 20.7387 37.5021 21.4C36.4141 22.0613 35.5608 22.9787 34.9421 24.152C34.3448 25.304 34.0461 26.616 34.0461 28.088C34.0461 29.112 34.2275 29.976 34.5901 30.68C34.9741 31.384 35.4648 31.9173 36.0621 32.28C36.6595 32.6427 37.2781 32.824 37.9181 32.824C38.7928 32.824 39.5928 32.5253 40.3181 31.928C41.0435 31.3307 41.6621 30.4987 42.1741 29.432C42.7075 28.3653 43.0915 27.1493 43.3261 25.784L44.1901 20.824ZM52.1516 23.032C52.173 22.9253 52.1836 22.808 52.1836 22.68C52.205 22.5307 52.2156 22.3813 52.2156 22.232C52.2156 21.6347 52.045 21.2187 51.7036 20.984C51.3623 20.728 50.9143 20.6 50.3596 20.6L51.3516 18.36C52.4823 18.36 53.3463 18.6373 53.9436 19.192C54.5623 19.7253 54.8716 20.5253 54.8716 21.592V22.232C55.4903 20.7173 56.2796 19.6293 57.2396 18.968C58.221 18.3067 59.3303 17.976 60.5676 17.976C61.0583 17.976 61.4743 18.0187 61.8156 18.104C62.1783 18.168 62.477 18.2533 62.7116 18.36L61.4316 21.176C61.1756 21.0693 60.909 20.9947 60.6316 20.952C60.3543 20.9093 60.0343 20.888 59.6716 20.888C58.9036 20.888 58.1356 21.1653 57.3676 21.72C56.621 22.2533 55.9383 23.1493 55.3196 24.408C54.7223 25.6667 54.2316 27.3947 53.8476 29.592L52.9196 35H50.0396L52.1516 23.032ZM63.2494 18.968H66.1934L67.7294 13.72H69.9374L69.0094 18.968H73.6174L73.2014 21.464H68.5614L67.2174 29.24C67.1747 29.4747 67.1427 29.6987 67.1214 29.912C67.1 30.104 67.0894 30.2853 67.0894 30.456C67.0894 31.2027 67.3134 31.7893 67.7614 32.216C68.2094 32.6213 68.796 32.824 69.5214 32.824C70.14 32.824 70.6627 32.7387 71.0894 32.568C71.516 32.376 71.9 32.184 72.2414 31.992L72.5934 34.488C72.188 34.7227 71.676 34.9253 71.0574 35.096C70.46 35.288 69.788 35.384 69.0414 35.384C68.252 35.384 67.484 35.224 66.7374 34.904C66.012 34.584 65.4147 34.0827 64.9454 33.4C64.476 32.696 64.2414 31.7893 64.2414 30.68C64.2414 30.2107 64.284 29.688 64.3694 29.112L65.6814 21.464H62.8334L63.2494 18.968ZM81.7271 33.816L94.0151 12.6H97.4391L102.335 34.648L99.4231 35.32L98.0791 28.92H87.7111L84.1591 35.256L81.7271 33.816ZM89.1511 26.36H97.5351L95.2631 15.576L89.1511 26.36ZM105.122 18.968H108.066L109.602 13.72H111.81L110.882 18.968H115.49L115.074 21.464H110.434L109.09 29.24C109.047 29.4747 109.015 29.6987 108.994 29.912C108.973 30.104 108.962 30.2853 108.962 30.456C108.962 31.2027 109.186 31.7893 109.634 32.216C110.082 32.6213 110.669 32.824 111.394 32.824C112.013 32.824 112.535 32.7387 112.962 32.568C113.389 32.376 113.773 32.184 114.114 31.992L114.466 34.488C114.061 34.7227 113.549 34.9253 112.93 35.096C112.333 35.288 111.661 35.384 110.914 35.384C110.125 35.384 109.357 35.224 108.61 34.904C107.885 34.584 107.287 34.0827 106.818 33.4C106.349 32.696 106.114 31.7893 106.114 30.68C106.114 30.2107 106.157 29.688 106.242 29.112L107.554 21.464H104.706L105.122 18.968ZM117.142 18.968H120.086L121.622 13.72H123.83L122.902 18.968H127.51L127.094 21.464H122.454L121.11 29.24C121.067 29.4747 121.035 29.6987 121.014 29.912C120.993 30.104 120.982 30.2853 120.982 30.456C120.982 31.2027 121.206 31.7893 121.654 32.216C122.102 32.6213 122.689 32.824 123.414 32.824C124.033 32.824 124.555 32.7387 124.982 32.568C125.409 32.376 125.793 32.184 126.134 31.992L126.486 34.488C126.081 34.7227 125.569 34.9253 124.95 35.096C124.353 35.288 123.681 35.384 122.934 35.384C122.145 35.384 121.377 35.224 120.63 34.904C119.905 34.584 119.307 34.0827 118.838 33.4C118.369 32.696 118.134 31.7893 118.134 30.68C118.134 30.2107 118.177 29.688 118.262 29.112L119.574 21.464H116.726L117.142 18.968ZM135.441 35.384C134.033 35.384 132.785 35.0853 131.697 34.488C130.631 33.8693 129.788 32.9947 129.169 31.864C128.572 30.712 128.273 29.3573 128.273 27.8C128.273 26.0293 128.636 24.3973 129.361 22.904C130.108 21.4107 131.153 20.216 132.497 19.32C133.863 18.424 135.452 17.976 137.265 17.976C138.503 17.976 139.548 18.2107 140.401 18.68C141.276 19.1493 141.948 19.7573 142.417 20.504C142.887 21.2507 143.121 22.0507 143.121 22.904C143.121 24.0773 142.844 25.048 142.289 25.816C141.735 26.584 141.02 27.1813 140.145 27.608C139.271 28.0133 138.321 28.3013 137.297 28.472C136.295 28.6427 135.335 28.728 134.417 28.728C133.841 28.728 133.265 28.7067 132.689 28.664C132.135 28.6 131.644 28.536 131.217 28.472C131.388 29.88 131.889 30.9573 132.721 31.704C133.553 32.4507 134.62 32.824 135.921 32.824C136.988 32.824 137.937 32.6853 138.769 32.408C139.601 32.1307 140.305 31.8533 140.881 31.576L141.137 34.136C140.497 34.4347 139.687 34.7227 138.705 35C137.724 35.256 136.636 35.384 135.441 35.384ZM137.041 20.408C136.039 20.408 135.132 20.664 134.321 21.176C133.511 21.6667 132.839 22.3493 132.305 23.224C131.793 24.0773 131.452 25.0587 131.281 26.168C131.772 26.2533 132.263 26.328 132.753 26.392C133.265 26.4347 133.82 26.456 134.417 26.456C136.209 26.456 137.628 26.2107 138.673 25.72C139.719 25.208 140.241 24.344 140.241 23.128C140.241 22.3813 139.943 21.7413 139.345 21.208C138.769 20.6747 138.001 20.408 137.041 20.408ZM154.82 20.504C154.073 20.504 153.263 20.7813 152.388 21.336C151.513 21.8907 150.703 22.7547 149.956 23.928C149.231 25.08 148.708 26.5627 148.388 28.376L147.236 35H144.356L147.268 18.36H150.052L149.348 22.2C150.009 20.92 150.895 19.896 152.004 19.128C153.135 18.36 154.319 17.976 155.556 17.976C157.007 17.976 158.169 18.424 159.044 19.32C159.919 20.1947 160.356 21.272 160.356 22.552C160.356 23.0853 160.292 23.7573 160.164 24.568L158.34 35H155.46L157.22 25.048C157.327 24.536 157.391 24.1627 157.412 23.928C157.433 23.672 157.444 23.4373 157.444 23.224C157.444 22.392 157.199 21.7307 156.708 21.24C156.239 20.7493 155.609 20.504 154.82 20.504ZM178.144 35.16C176.992 35.16 176.106 34.8827 175.488 34.328C174.89 33.752 174.592 32.856 174.592 31.64C173.973 32.664 173.194 33.5493 172.256 34.296C171.317 35.0213 170.229 35.384 168.992 35.384C167.925 35.384 166.922 35.1067 165.984 34.552C165.045 33.976 164.288 33.176 163.712 32.152C163.157 31.1067 162.88 29.8693 162.88 28.44C162.88 26.7973 163.125 25.336 163.616 24.056C164.106 22.7547 164.757 21.656 165.568 20.76C166.4 19.864 167.306 19.1813 168.288 18.712C169.29 18.2213 170.304 17.976 171.328 17.976C172.458 17.976 173.429 18.2533 174.24 18.808C175.072 19.3627 175.712 20.0453 176.16 20.856L177.856 11.32H180.736L177.344 30.488C177.322 30.5947 177.301 30.7227 177.28 30.872C177.28 31 177.28 31.1387 177.28 31.288C177.28 31.8853 177.45 32.312 177.792 32.568C178.133 32.8027 178.581 32.92 179.136 32.92L178.144 35.16ZM169.76 32.824C170.57 32.824 171.338 32.568 172.064 32.056C172.81 31.544 173.45 30.8293 173.984 29.912C174.538 28.9733 174.922 27.8747 175.136 26.616L175.712 23.32C175.285 22.424 174.709 21.7307 173.984 21.24C173.258 20.728 172.458 20.472 171.584 20.472C170.602 20.472 169.664 20.7813 168.768 21.4C167.893 21.9973 167.178 22.8613 166.624 23.992C166.09 25.1013 165.824 26.4453 165.824 28.024C165.824 29.0693 166.005 29.9547 166.368 30.68C166.752 31.384 167.242 31.9173 167.84 32.28C168.458 32.6427 169.098 32.824 169.76 32.824ZM186.701 15.512C186.104 15.512 185.645 15.3413 185.325 15C185.026 14.6373 184.877 14.2213 184.877 13.752C184.877 13.0693 185.09 12.5253 185.517 12.12C185.944 11.6933 186.477 11.48 187.117 11.48C187.714 11.48 188.162 11.6613 188.461 12.024C188.781 12.3653 188.941 12.7707 188.941 13.24C188.941 13.9013 188.728 14.4453 188.301 14.872C187.874 15.2987 187.341 15.512 186.701 15.512ZM184.557 35H181.677L184.589 18.36H187.469L184.557 35ZM199.849 20.504C199.102 20.504 198.291 20.7813 197.417 21.336C196.542 21.8907 195.731 22.7547 194.985 23.928C194.259 25.08 193.737 26.5627 193.417 28.376L192.265 35H189.385L192.297 18.36H195.081L194.377 22.2C195.038 20.92 195.923 19.896 197.033 19.128C198.163 18.36 199.347 17.976 200.585 17.976C202.035 17.976 203.198 18.424 204.073 19.32C204.947 20.1947 205.385 21.272 205.385 22.552C205.385 23.0853 205.321 23.7573 205.193 24.568L203.369 35H200.489L202.249 25.048C202.355 24.536 202.419 24.1627 202.441 23.928C202.462 23.672 202.473 23.4373 202.473 23.224C202.473 22.392 202.227 21.7307 201.737 21.24C201.267 20.7493 200.638 20.504 199.849 20.504ZM218.308 17.976C219.567 17.976 220.676 18.104 221.636 18.36C222.596 18.616 223.386 18.872 224.004 19.128L221.22 35.192C220.964 36.664 220.57 37.8693 220.036 38.808C219.524 39.7467 218.916 40.472 218.212 40.984C217.53 41.5173 216.804 41.8907 216.036 42.104C215.268 42.3173 214.511 42.424 213.764 42.424C212.314 42.424 211.076 42.1253 210.052 41.528C209.05 40.9307 208.228 40.2373 207.588 39.448L209.828 37.784C210.874 39.2133 212.25 39.928 213.956 39.928C215.023 39.928 215.962 39.5333 216.772 38.744C217.583 37.9547 218.159 36.6107 218.5 34.712L219.044 31.576C218.447 32.536 217.7 33.3467 216.804 34.008C215.93 34.6693 214.938 35 213.828 35C212.804 35 211.823 34.744 210.884 34.232C209.967 33.72 209.21 32.9733 208.612 31.992C208.036 31.0107 207.748 29.8053 207.748 28.376C207.748 26.3067 208.207 24.4933 209.124 22.936C210.042 21.3787 211.3 20.1627 212.9 19.288C214.5 18.4133 216.303 17.976 218.308 17.976ZM210.692 28.056C210.692 29.016 210.874 29.8267 211.236 30.488C211.62 31.128 212.111 31.6187 212.708 31.96C213.306 32.28 213.935 32.44 214.596 32.44C215.407 32.44 216.175 32.152 216.9 31.576C217.626 31 218.255 30.1893 218.788 29.144C219.343 28.0987 219.748 26.872 220.004 25.464L220.836 20.824C220.431 20.696 220.004 20.6 219.556 20.536C219.108 20.4507 218.586 20.408 217.988 20.408C216.559 20.408 215.29 20.7493 214.18 21.432C213.092 22.0933 212.239 23 211.62 24.152C211.002 25.304 210.692 26.6053 210.692 28.056ZM238.947 12.6H241.987L238.531 32.28H248.803L248.323 35H235.011L238.947 12.6ZM255.707 15.512C255.11 15.512 254.651 15.3413 254.331 15C254.033 14.6373 253.883 14.2213 253.883 13.752C253.883 13.0693 254.097 12.5253 254.523 12.12C254.95 11.6933 255.483 11.48 256.123 11.48C256.721 11.48 257.169 11.6613 257.467 12.024C257.787 12.3653 257.947 12.7707 257.947 13.24C257.947 13.9013 257.734 14.4453 257.307 14.872C256.881 15.2987 256.347 15.512 255.707 15.512ZM253.563 35H250.683L253.595 18.36H256.475L253.563 35ZM258.391 18.744L261.111 18.04L264.407 31.8L272.375 18.04L274.711 19.416L265.367 35H262.391L258.391 18.744ZM281.36 35.384C279.952 35.384 278.704 35.0853 277.616 34.488C276.549 33.8693 275.707 32.9947 275.088 31.864C274.491 30.712 274.192 29.3573 274.192 27.8C274.192 26.0293 274.555 24.3973 275.28 22.904C276.027 21.4107 277.072 20.216 278.416 19.32C279.781 18.424 281.371 17.976 283.184 17.976C284.421 17.976 285.467 18.2107 286.32 18.68C287.195 19.1493 287.867 19.7573 288.336 20.504C288.805 21.2507 289.04 22.0507 289.04 22.904C289.04 24.0773 288.763 25.048 288.208 25.816C287.653 26.584 286.939 27.1813 286.064 27.608C285.189 28.0133 284.24 28.3013 283.216 28.472C282.213 28.6427 281.253 28.728 280.336 28.728C279.76 28.728 279.184 28.7067 278.608 28.664C278.053 28.6 277.563 28.536 277.136 28.472C277.307 29.88 277.808 30.9573 278.64 31.704C279.472 32.4507 280.539 32.824 281.84 32.824C282.907 32.824 283.856 32.6853 284.688 32.408C285.52 32.1307 286.224 31.8533 286.8 31.576L287.056 34.136C286.416 34.4347 285.605 34.7227 284.624 35C283.643 35.256 282.555 35.384 281.36 35.384ZM282.96 20.408C281.957 20.408 281.051 20.664 280.24 21.176C279.429 21.6667 278.757 22.3493 278.224 23.224C277.712 24.0773 277.371 25.0587 277.2 26.168C277.691 26.2533 278.181 26.328 278.672 26.392C279.184 26.4347 279.739 26.456 280.336 26.456C282.128 26.456 283.547 26.2107 284.592 25.72C285.637 25.208 286.16 24.344 286.16 23.128C286.16 22.3813 285.861 21.7413 285.264 21.208C284.688 20.6747 283.92 20.408 282.96 20.408ZM42.4101 62.872C40.8528 62.872 39.4448 63.3413 38.1861 64.28C36.9275 65.1973 35.9248 66.4667 35.1781 68.088C34.4315 69.688 34.0581 71.5333 34.0581 73.624C34.0581 75.928 34.6235 77.688 35.7541 78.904C36.8848 80.12 38.3248 80.728 40.0741 80.728C41.0768 80.728 41.9621 80.5893 42.7301 80.312C43.5195 80.0347 44.2875 79.704 45.0341 79.32L45.5461 82.072C44.7568 82.4347 43.8821 82.744 42.9221 83C41.9621 83.256 40.8741 83.384 39.6581 83.384C37.9088 83.384 36.3728 83.0107 35.0501 82.264C33.7488 81.5173 32.7355 80.44 32.0101 79.032C31.2848 77.6027 30.9221 75.8747 30.9221 73.848C30.9221 71.928 31.1995 70.1467 31.7541 68.504C32.3301 66.84 33.1408 65.3893 34.1861 64.152C35.2315 62.9147 36.4688 61.9547 37.8981 61.272C39.3488 60.568 40.9381 60.216 42.6661 60.216C43.9248 60.216 45.0341 60.3867 45.9941 60.728C46.9541 61.0693 47.7541 61.4213 48.3941 61.784L47.0181 64.28C46.3781 63.8747 45.6955 63.544 44.9701 63.288C44.2661 63.0107 43.4128 62.872 42.4101 62.872ZM50.8914 77.24C50.8487 77.5173 50.8167 77.7733 50.7954 78.008C50.774 78.2213 50.7634 78.4133 50.7634 78.584C50.7634 79.3093 50.9767 79.8747 51.4034 80.28C51.8514 80.6853 52.438 80.888 53.1634 80.888C53.526 80.888 53.8887 80.8453 54.2514 80.76C54.614 80.6747 54.9447 80.5573 55.2434 80.408L55.5314 82.744C55.1474 82.936 54.6994 83.0853 54.1874 83.192C53.6754 83.32 53.1207 83.384 52.5234 83.384C51.2434 83.384 50.1447 83.0213 49.2274 82.296C48.3314 81.5493 47.8834 80.4293 47.8834 78.936C47.8834 78.3813 47.926 77.8373 48.0114 77.304L51.1474 59.32H54.0274L50.8914 77.24ZM56.4546 76.44C56.4546 74.3707 56.9026 72.5573 57.7986 71C58.716 69.4213 59.9746 68.1947 61.5746 67.32C63.1746 66.424 64.9986 65.976 67.0466 65.976C68.3053 65.976 69.404 66.104 70.3426 66.36C71.3026 66.616 72.092 66.872 72.7106 67.128L70.6946 78.488C70.6733 78.5947 70.652 78.7227 70.6306 78.872C70.6306 79 70.6306 79.1387 70.6306 79.288C70.6306 79.8853 70.8013 80.312 71.1426 80.568C71.484 80.8027 71.932 80.92 72.4866 80.92L71.4946 83.16C70.3426 83.16 69.4573 82.8827 68.8386 82.328C68.2413 81.752 67.9426 80.8667 67.9426 79.672C67.3453 80.696 66.588 81.5707 65.6706 82.296C64.7746 83.0213 63.7186 83.384 62.5026 83.384C61.4573 83.384 60.476 83.1067 59.5586 82.552C58.6413 81.976 57.8946 81.176 57.3186 80.152C56.7426 79.1067 56.4546 77.8693 56.4546 76.44ZM69.5426 68.824C69.1373 68.696 68.7106 68.6 68.2626 68.536C67.836 68.4507 67.3133 68.408 66.6946 68.408C65.2226 68.408 63.9426 68.7387 62.8546 69.4C61.7666 70.0613 60.9133 70.9787 60.2946 72.152C59.6973 73.304 59.3986 74.616 59.3986 76.088C59.3986 77.112 59.58 77.976 59.9426 78.68C60.3266 79.384 60.8173 79.9173 61.4146 80.28C62.012 80.6427 62.6306 80.824 63.2706 80.824C64.1453 80.824 64.9453 80.5253 65.6706 79.928C66.396 79.3307 67.0146 78.4987 67.5266 77.432C68.06 76.3653 68.444 75.1493 68.6786 73.784L69.5426 68.824ZM86.5601 69.976C85.9415 69.5493 85.2481 69.176 84.4801 68.856C83.7335 68.536 82.8801 68.376 81.9201 68.376C80.9175 68.376 80.1388 68.5467 79.5841 68.888C79.0295 69.2293 78.7521 69.6773 78.7521 70.232C78.7521 70.552 78.8375 70.8613 79.0081 71.16C79.2001 71.4373 79.5308 71.736 80.0001 72.056C80.4908 72.376 81.1735 72.76 82.0481 73.208C83.4988 73.9333 84.5761 74.6907 85.2801 75.48C85.9841 76.248 86.3361 77.1973 86.3361 78.328C86.3361 79.4587 86.0375 80.3973 85.4401 81.144C84.8428 81.8907 84.0428 82.456 83.0401 82.84C82.0375 83.2027 80.9068 83.384 79.6481 83.384C78.3468 83.384 77.1948 83.224 76.1921 82.904C75.2108 82.5627 74.3575 82.1253 73.6321 81.592L75.2641 79.224C75.8401 79.6933 76.5228 80.088 77.3121 80.408C78.1015 80.728 78.9655 80.888 79.9041 80.888C80.9708 80.888 81.8135 80.6853 82.4321 80.28C83.0508 79.8747 83.3601 79.3733 83.3601 78.776C83.3601 78.2213 83.1255 77.7093 82.6561 77.24C82.2081 76.7707 81.3228 76.2053 80.0001 75.544C78.9335 75.0107 78.1015 74.4987 77.5041 74.008C76.9068 73.496 76.4908 72.952 76.2561 72.376C76.0215 71.8 75.9041 71.1387 75.9041 70.392C75.9041 69.5387 76.1601 68.7813 76.6721 68.12C77.1841 67.4587 77.8988 66.936 78.8161 66.552C79.7335 66.168 80.7895 65.976 81.9841 65.976C83.1788 65.976 84.2455 66.136 85.1841 66.456C86.1441 66.7547 86.9868 67.1173 87.7121 67.544L86.5601 69.976ZM100.299 69.976C99.6802 69.5493 98.9869 69.176 98.2189 68.856C97.4722 68.536 96.6189 68.376 95.6589 68.376C94.6562 68.376 93.8775 68.5467 93.3229 68.888C92.7682 69.2293 92.4909 69.6773 92.4909 70.232C92.4909 70.552 92.5762 70.8613 92.7469 71.16C92.9389 71.4373 93.2695 71.736 93.7389 72.056C94.2295 72.376 94.9122 72.76 95.7869 73.208C97.2375 73.9333 98.3149 74.6907 99.0189 75.48C99.7229 76.248 100.075 77.1973 100.075 78.328C100.075 79.4587 99.7762 80.3973 99.1789 81.144C98.5815 81.8907 97.7815 82.456 96.7789 82.84C95.7762 83.2027 94.6455 83.384 93.3869 83.384C92.0855 83.384 90.9335 83.224 89.9309 82.904C88.9495 82.5627 88.0962 82.1253 87.3709 81.592L89.0029 79.224C89.5789 79.6933 90.2615 80.088 91.0509 80.408C91.8402 80.728 92.7042 80.888 93.6429 80.888C94.7095 80.888 95.5522 80.6853 96.1709 80.28C96.7895 79.8747 97.0989 79.3733 97.0989 78.776C97.0989 78.2213 96.8642 77.7093 96.3949 77.24C95.9469 76.7707 95.0615 76.2053 93.7389 75.544C92.6722 75.0107 91.8402 74.4987 91.2429 74.008C90.6455 73.496 90.2295 72.952 89.9949 72.376C89.7602 71.8 89.6429 71.1387 89.6429 70.392C89.6429 69.5387 89.8989 68.7813 90.4109 68.12C90.9229 67.4587 91.6375 66.936 92.5549 66.552C93.4722 66.168 94.5282 65.976 95.7229 65.976C96.9175 65.976 97.9842 66.136 98.9229 66.456C99.8829 66.7547 100.726 67.1173 101.451 67.544L100.299 69.976ZM109.558 83.384C108.15 83.384 106.902 83.0853 105.814 82.488C104.747 81.8693 103.904 80.9947 103.286 79.864C102.688 78.712 102.39 77.3573 102.39 75.8C102.39 74.0293 102.752 72.3973 103.478 70.904C104.224 69.4107 105.27 68.216 106.614 67.32C107.979 66.424 109.568 65.976 111.382 65.976C112.619 65.976 113.664 66.2107 114.518 66.68C115.392 67.1493 116.064 67.7573 116.534 68.504C117.003 69.2507 117.238 70.0507 117.238 70.904C117.238 72.0773 116.96 73.048 116.406 73.816C115.851 74.584 115.136 75.1813 114.262 75.608C113.387 76.0133 112.438 76.3013 111.414 76.472C110.411 76.6427 109.451 76.728 108.534 76.728C107.958 76.728 107.382 76.7067 106.806 76.664C106.251 76.6 105.76 76.536 105.334 76.472C105.504 77.88 106.006 78.9573 106.838 79.704C107.67 80.4507 108.736 80.824 110.038 80.824C111.104 80.824 112.054 80.6853 112.886 80.408C113.718 80.1307 114.422 79.8533 114.998 79.576L115.254 82.136C114.614 82.4347 113.803 82.7227 112.822 83C111.84 83.256 110.752 83.384 109.558 83.384ZM111.158 68.408C110.155 68.408 109.248 68.664 108.438 69.176C107.627 69.6667 106.955 70.3493 106.422 71.224C105.91 72.0773 105.568 73.0587 105.398 74.168C105.888 74.2533 106.379 74.328 106.87 74.392C107.382 74.4347 107.936 74.456 108.534 74.456C110.326 74.456 111.744 74.2107 112.79 73.72C113.835 73.208 114.358 72.344 114.358 71.128C114.358 70.3813 114.059 69.7413 113.462 69.208C112.886 68.6747 112.118 68.408 111.158 68.408ZM130.12 69.976C129.501 69.5493 128.808 69.176 128.04 68.856C127.293 68.536 126.44 68.376 125.48 68.376C124.477 68.376 123.699 68.5467 123.144 68.888C122.589 69.2293 122.312 69.6773 122.312 70.232C122.312 70.552 122.397 70.8613 122.568 71.16C122.76 71.4373 123.091 71.736 123.56 72.056C124.051 72.376 124.733 72.76 125.608 73.208C127.059 73.9333 128.136 74.6907 128.84 75.48C129.544 76.248 129.896 77.1973 129.896 78.328C129.896 79.4587 129.597 80.3973 129 81.144C128.403 81.8907 127.603 82.456 126.6 82.84C125.597 83.2027 124.467 83.384 123.208 83.384C121.907 83.384 120.755 83.224 119.752 82.904C118.771 82.5627 117.917 82.1253 117.192 81.592L118.824 79.224C119.4 79.6933 120.083 80.088 120.872 80.408C121.661 80.728 122.525 80.888 123.464 80.888C124.531 80.888 125.373 80.6853 125.992 80.28C126.611 79.8747 126.92 79.3733 126.92 78.776C126.92 78.2213 126.685 77.7093 126.216 77.24C125.768 76.7707 124.883 76.2053 123.56 75.544C122.493 75.0107 121.661 74.4987 121.064 74.008C120.467 73.496 120.051 72.952 119.816 72.376C119.581 71.8 119.464 71.1387 119.464 70.392C119.464 69.5387 119.72 68.7813 120.232 68.12C120.744 67.4587 121.459 66.936 122.376 66.552C123.293 66.168 124.349 65.976 125.544 65.976C126.739 65.976 127.805 66.136 128.744 66.456C129.704 66.7547 130.547 67.1173 131.272 67.544L130.12 69.976ZM147.917 66.968H152.845L152.397 69.464H147.469L144.653 85.304C144.311 87.1813 143.671 88.504 142.733 89.272C141.815 90.04 140.695 90.424 139.373 90.424C138.669 90.424 138.029 90.328 137.453 90.136C136.855 89.944 136.333 89.6773 135.885 89.336L137.037 86.968C137.335 87.2453 137.687 87.4693 138.093 87.64C138.498 87.832 138.935 87.928 139.405 87.928C139.981 87.928 140.482 87.7253 140.909 87.32C141.335 86.9147 141.623 86.264 141.773 85.368L144.589 69.464H142.029L142.477 66.968H145.037L145.517 64.408C145.879 62.4453 146.573 61.048 147.597 60.216C148.642 59.3627 149.954 58.936 151.533 58.936C152.407 58.936 153.218 59.0533 153.965 59.288C154.711 59.5013 155.383 59.768 155.981 60.088L154.861 62.52C154.37 62.264 153.858 62.0293 153.325 61.816C152.813 61.6027 152.205 61.496 151.501 61.496C150.711 61.496 150.039 61.7307 149.485 62.2C148.93 62.648 148.567 63.352 148.397 64.312L147.917 66.968ZM159.994 83.384C158.415 83.384 157.05 83.064 155.898 82.424C154.746 81.784 153.85 80.8987 153.21 79.768C152.591 78.616 152.282 77.3147 152.282 75.864C152.282 74.008 152.655 72.3333 153.402 70.84C154.17 69.3467 155.237 68.1627 156.602 67.288C157.967 66.4133 159.578 65.976 161.434 65.976C163.013 65.976 164.378 66.296 165.53 66.936C166.682 67.576 167.567 68.4613 168.186 69.592C168.826 70.7227 169.146 72.024 169.146 73.496C169.146 75.3307 168.773 77.0053 168.026 78.52C167.279 80.0133 166.213 81.1973 164.826 82.072C163.461 82.9467 161.85 83.384 159.994 83.384ZM160.09 80.824C161.37 80.824 162.458 80.5147 163.354 79.896C164.271 79.256 164.975 78.4027 165.466 77.336C165.957 76.2693 166.202 75.0747 166.202 73.752C166.202 72.7707 166.01 71.896 165.626 71.128C165.242 70.3387 164.687 69.7093 163.962 69.24C163.237 68.7707 162.362 68.536 161.338 68.536C160.079 68.536 158.991 68.856 158.074 69.496C157.157 70.1147 156.453 70.9573 155.962 72.024C155.471 73.0907 155.226 74.2853 155.226 75.608C155.226 76.568 155.418 77.4427 155.802 78.232C156.186 79.0213 156.741 79.6507 157.466 80.12C158.191 80.5893 159.066 80.824 160.09 80.824ZM173.613 71.032C173.634 70.9253 173.645 70.808 173.645 70.68C173.666 70.5307 173.677 70.3813 173.677 70.232C173.677 69.6347 173.506 69.2187 173.165 68.984C172.824 68.728 172.376 68.6 171.821 68.6L172.813 66.36C173.944 66.36 174.808 66.6373 175.405 67.192C176.024 67.7253 176.333 68.5253 176.333 69.592V70.232C176.952 68.7173 177.741 67.6293 178.701 66.968C179.682 66.3067 180.792 65.976 182.029 65.976C182.52 65.976 182.936 66.0187 183.277 66.104C183.64 66.168 183.938 66.2533 184.173 66.36L182.893 69.176C182.637 69.0693 182.37 68.9947 182.093 68.952C181.816 68.9093 181.496 68.888 181.133 68.888C180.365 68.888 179.597 69.1653 178.829 69.72C178.082 70.2533 177.4 71.1493 176.781 72.408C176.184 73.6667 175.693 75.3947 175.309 77.592L174.381 83H171.501L173.613 71.032ZM196.719 60.6H209.839L209.391 63.224H199.279L198.095 70.072H206.479L206.031 72.568H197.647L195.823 83H192.783L196.719 60.6ZM210.954 71.032C210.975 70.9253 210.986 70.808 210.986 70.68C211.007 70.5307 211.018 70.3813 211.018 70.232C211.018 69.6347 210.847 69.2187 210.506 68.984C210.165 68.728 209.717 68.6 209.162 68.6L210.154 66.36C211.285 66.36 212.149 66.6373 212.746 67.192C213.365 67.7253 213.674 68.5253 213.674 69.592V70.232C214.293 68.7173 215.082 67.6293 216.042 66.968C217.023 66.3067 218.133 65.976 219.37 65.976C219.861 65.976 220.277 66.0187 220.618 66.104C220.981 66.168 221.279 66.2533 221.514 66.36L220.234 69.176C219.978 69.0693 219.711 68.9947 219.434 68.952C219.157 68.9093 218.837 68.888 218.474 68.888C217.706 68.888 216.938 69.1653 216.17 69.72C215.423 70.2533 214.741 71.1493 214.122 72.408C213.525 73.6667 213.034 75.3947 212.65 77.592L211.722 83H208.842L210.954 71.032ZM227.706 83.384C226.298 83.384 225.05 83.0853 223.962 82.488C222.896 81.8693 222.053 80.9947 221.434 79.864C220.837 78.712 220.538 77.3573 220.538 75.8C220.538 74.0293 220.901 72.3973 221.626 70.904C222.373 69.4107 223.418 68.216 224.762 67.32C226.128 66.424 227.717 65.976 229.53 65.976C230.768 65.976 231.813 66.2107 232.666 66.68C233.541 67.1493 234.213 67.7573 234.682 68.504C235.152 69.2507 235.386 70.0507 235.386 70.904C235.386 72.0773 235.109 73.048 234.554 73.816C234 74.584 233.285 75.1813 232.41 75.608C231.536 76.0133 230.586 76.3013 229.562 76.472C228.56 76.6427 227.6 76.728 226.682 76.728C226.106 76.728 225.53 76.7067 224.954 76.664C224.4 76.6 223.909 76.536 223.482 76.472C223.653 77.88 224.154 78.9573 224.986 79.704C225.818 80.4507 226.885 80.824 228.186 80.824C229.253 80.824 230.202 80.6853 231.034 80.408C231.866 80.1307 232.57 79.8533 233.146 79.576L233.402 82.136C232.762 82.4347 231.952 82.7227 230.97 83C229.989 83.256 228.901 83.384 227.706 83.384ZM229.306 68.408C228.304 68.408 227.397 68.664 226.586 69.176C225.776 69.6667 225.104 70.3493 224.57 71.224C224.058 72.0773 223.717 73.0587 223.546 74.168C224.037 74.2533 224.528 74.328 225.018 74.392C225.53 74.4347 226.085 74.456 226.682 74.456C228.474 74.456 229.893 74.2107 230.938 73.72C231.984 73.208 232.506 72.344 232.506 71.128C232.506 70.3813 232.208 69.7413 231.61 69.208C231.034 68.6747 230.266 68.408 229.306 68.408ZM243.789 83.384C242.381 83.384 241.133 83.0853 240.045 82.488C238.978 81.8693 238.136 80.9947 237.517 79.864C236.92 78.712 236.621 77.3573 236.621 75.8C236.621 74.0293 236.984 72.3973 237.709 70.904C238.456 69.4107 239.501 68.216 240.845 67.32C242.21 66.424 243.8 65.976 245.613 65.976C246.85 65.976 247.896 66.2107 248.749 66.68C249.624 67.1493 250.296 67.7573 250.765 68.504C251.234 69.2507 251.469 70.0507 251.469 70.904C251.469 72.0773 251.192 73.048 250.637 73.816C250.082 74.584 249.368 75.1813 248.493 75.608C247.618 76.0133 246.669 76.3013 245.645 76.472C244.642 76.6427 243.682 76.728 242.765 76.728C242.189 76.728 241.613 76.7067 241.037 76.664C240.482 76.6 239.992 76.536 239.565 76.472C239.736 77.88 240.237 78.9573 241.069 79.704C241.901 80.4507 242.968 80.824 244.269 80.824C245.336 80.824 246.285 80.6853 247.117 80.408C247.949 80.1307 248.653 79.8533 249.229 79.576L249.485 82.136C248.845 82.4347 248.034 82.7227 247.053 83C246.072 83.256 244.984 83.384 243.789 83.384ZM245.389 68.408C244.386 68.408 243.48 68.664 242.669 69.176C241.858 69.6667 241.186 70.3493 240.653 71.224C240.141 72.0773 239.8 73.0587 239.629 74.168C240.12 74.2533 240.61 74.328 241.101 74.392C241.613 74.4347 242.168 74.456 242.765 74.456C244.557 74.456 245.976 74.2107 247.021 73.72C248.066 73.208 248.589 72.344 248.589 71.128C248.589 70.3813 248.29 69.7413 247.693 69.208C247.117 68.6747 246.349 68.408 245.389 68.408ZM257.503 59.672H260.703L259.295 67.64L257.343 76.376H254.975L256.095 67.64L257.503 59.672ZM255.167 83.384C254.57 83.384 254.09 83.2027 253.727 82.84C253.365 82.456 253.183 82.0293 253.183 81.56C253.183 80.7707 253.429 80.1627 253.919 79.736C254.41 79.3093 254.954 79.096 255.551 79.096C256.17 79.096 256.65 79.2773 256.991 79.64C257.354 80.0027 257.535 80.4293 257.535 80.92C257.535 81.7093 257.29 82.3173 256.799 82.744C256.33 83.1707 255.786 83.384 255.167 83.384Z" fill="#2B2F34"/>
<path d="M13.2819 112.36C13.2819 111.816 13.2073 111.416 13.0579 111.16C12.9086 110.893 12.6099 110.76 12.1619 110.76H11.8419V110.44H13.2819C13.6766 110.44 13.9699 110.493 14.1619 110.6C14.3646 110.696 14.5086 110.877 14.5939 111.144C14.6793 111.411 14.7219 111.816 14.7219 112.36V120.36H20.4019V121H13.2819V112.36ZM22.5078 112.52C22.2625 112.52 22.0491 112.419 21.8678 112.216C21.6971 112.013 21.6118 111.773 21.6118 111.496C21.6118 111.272 21.6758 111.096 21.8038 110.968C21.9425 110.84 22.1238 110.776 22.3478 110.776C22.5931 110.776 22.8011 110.877 22.9718 111.08C23.1531 111.283 23.2438 111.523 23.2438 111.8C23.2438 112.024 23.1745 112.2 23.0358 112.328C22.9078 112.456 22.7318 112.52 22.5078 112.52ZM21.8998 115.4C21.8998 114.856 21.8251 114.456 21.6758 114.2C21.5265 113.933 21.2278 113.8 20.7798 113.8H20.4598V113.48H21.8998C22.2945 113.48 22.5878 113.533 22.7798 113.64C22.9825 113.736 23.1265 113.917 23.2118 114.184C23.2971 114.451 23.3398 114.856 23.3398 115.4V121H21.8998V115.4ZM26.0293 115.32C25.7733 114.723 25.528 114.307 25.2933 114.072C25.0586 113.827 24.7493 113.693 24.3653 113.672V113.352C24.4186 113.352 24.4933 113.347 24.5893 113.336C24.696 113.325 24.8026 113.32 24.9093 113.32C25.4746 113.32 25.9866 113.464 26.4453 113.752C26.904 114.029 27.2986 114.552 27.6293 115.32L29.0693 118.76L31.3093 113.48H32.1093L28.8293 121.16H28.5093L26.0293 115.32ZM36.3534 121.16C35.6281 121.16 35.0148 120.989 34.5134 120.648C34.0121 120.296 33.6334 119.827 33.3774 119.24C33.1214 118.643 32.9934 117.976 32.9934 117.24C32.9934 116.515 33.1214 115.853 33.3774 115.256C33.6334 114.659 34.0014 114.189 34.4814 113.848C34.9721 113.496 35.5428 113.32 36.1934 113.32C37.2708 113.32 38.0708 113.624 38.5934 114.232C39.1268 114.829 39.3934 115.699 39.3934 116.84L39.3614 117.48H34.5134C34.5134 118.376 34.7054 119.107 35.0894 119.672C35.4734 120.237 36.0014 120.52 36.6734 120.52C37.1748 120.52 37.5961 120.413 37.9374 120.2C38.2894 119.987 38.6148 119.667 38.9134 119.24L39.2334 119.48C38.8814 120.067 38.4708 120.493 38.0014 120.76C37.5321 121.027 36.9828 121.16 36.3534 121.16ZM37.8734 116.84C37.8734 115.901 37.7348 115.187 37.4574 114.696C37.1801 114.205 36.7588 113.96 36.1934 113.96C35.8734 113.96 35.5854 114.088 35.3294 114.344C35.0734 114.589 34.8708 114.931 34.7214 115.368C34.5828 115.805 34.5134 116.296 34.5134 116.84H37.8734ZM45.3019 112.36C45.3019 111.816 45.2273 111.416 45.0779 111.16C44.9286 110.893 44.6299 110.76 44.1819 110.76H43.8619V110.44H45.3019C45.6966 110.44 45.9899 110.493 46.1819 110.6C46.3846 110.696 46.5286 110.877 46.6139 111.144C46.6993 111.411 46.7419 111.816 46.7419 112.36V121H45.3019V112.36ZM52.0409 121.16C51.3156 121.16 50.7023 120.989 50.2009 120.648C49.6996 120.296 49.3209 119.827 49.0649 119.24C48.8089 118.643 48.6809 117.976 48.6809 117.24C48.6809 116.515 48.8089 115.853 49.0649 115.256C49.3209 114.659 49.6889 114.189 50.1689 113.848C50.6596 113.496 51.2303 113.32 51.8809 113.32C52.9583 113.32 53.7583 113.624 54.2809 114.232C54.8143 114.829 55.0809 115.699 55.0809 116.84L55.0489 117.48H50.2009C50.2009 118.376 50.3929 119.107 50.7769 119.672C51.1609 120.237 51.6889 120.52 52.3609 120.52C52.8623 120.52 53.2836 120.413 53.6249 120.2C53.9769 119.987 54.3023 119.667 54.6009 119.24L54.9209 119.48C54.5689 120.067 54.1583 120.493 53.6889 120.76C53.2196 121.027 52.6703 121.16 52.0409 121.16ZM53.5609 116.84C53.5609 115.901 53.4223 115.187 53.1449 114.696C52.8676 114.205 52.4463 113.96 51.8809 113.96C51.5609 113.96 51.2729 114.088 51.0169 114.344C50.7609 114.589 50.5583 114.931 50.4089 115.368C50.2703 115.805 50.2009 116.296 50.2009 116.84H53.5609ZM60.0134 121.16C59.2454 121.16 58.5948 120.989 58.0614 120.648C57.5388 120.296 57.1441 119.827 56.8774 119.24C56.6214 118.643 56.4934 117.976 56.4934 117.24C56.4934 116.504 56.6214 115.843 56.8774 115.256C57.1441 114.659 57.5388 114.189 58.0614 113.848C58.5948 113.496 59.2454 113.32 60.0134 113.32C61.1868 113.32 61.9601 113.507 62.3334 113.88C62.5148 114.061 62.6268 114.285 62.6694 114.552C62.7121 114.808 62.7334 115.277 62.7334 115.96H62.4134C62.3708 115.299 62.1628 114.803 61.7894 114.472C61.4161 114.131 60.9308 113.96 60.3334 113.96C59.5654 113.96 58.9841 114.264 58.5894 114.872C58.2054 115.48 58.0134 116.269 58.0134 117.24C58.0134 118.211 58.2054 119 58.5894 119.608C58.9841 120.216 59.5654 120.52 60.3334 120.52C60.8774 120.52 61.3254 120.419 61.6774 120.216C62.0294 120.003 62.3548 119.677 62.6534 119.24L62.9734 119.48C62.6214 120.077 62.2054 120.509 61.7254 120.776C61.2454 121.032 60.6748 121.16 60.0134 121.16ZM66.8838 121.16C66.2865 121.16 65.8171 120.989 65.4758 120.648C65.1345 120.307 64.9638 119.784 64.9638 119.08V114.12H63.8438V113.48H64.9638V112.04L65.7638 111.08H66.4038V113.48H68.3238V114.12H66.4038V119.08C66.4038 120.04 66.7771 120.52 67.5238 120.52C67.7798 120.52 67.9931 120.493 68.1638 120.44C68.3451 120.387 68.5318 120.307 68.7238 120.2L68.8838 120.52C68.6385 120.701 68.3665 120.856 68.0678 120.984C67.7691 121.101 67.3745 121.16 66.8838 121.16ZM72.8021 121.16C72.0021 121.16 71.3461 120.947 70.8341 120.52C70.3327 120.093 70.0821 119.347 70.0821 118.28V115.4C70.0821 114.856 70.0074 114.456 69.8581 114.2C69.7087 113.933 69.4101 113.8 68.9621 113.8H68.8021V113.48H70.0821C70.4767 113.48 70.7701 113.533 70.9621 113.64C71.1647 113.736 71.3087 113.917 71.3941 114.184C71.4794 114.451 71.5221 114.856 71.5221 115.4V118.28C71.5221 119.027 71.6874 119.576 72.0181 119.928C72.3594 120.269 72.7807 120.44 73.2821 120.44C73.8474 120.44 74.3807 120.157 74.8821 119.592V113.48H76.3221V121H75.5221L74.9621 120.36H74.8821C74.6581 120.584 74.3647 120.776 74.0021 120.936C73.6501 121.085 73.2501 121.16 72.8021 121.16ZM78.7566 115.4C78.7566 114.856 78.6819 114.456 78.5326 114.2C78.3832 113.933 78.0846 113.8 77.6366 113.8H77.4766V113.48H78.7566C79.1619 113.48 79.4659 113.539 79.6686 113.656C79.8819 113.763 80.0312 113.944 80.1166 114.2H80.1966C80.3886 113.955 80.6446 113.747 80.9646 113.576C81.2952 113.405 81.6792 113.32 82.1166 113.32C82.5432 113.32 82.8632 113.4 83.0766 113.56C83.2579 113.699 83.4446 113.939 83.6366 114.28L82.9966 114.76C82.8792 114.6 82.7086 114.483 82.4846 114.408C82.2606 114.323 82.0046 114.28 81.7166 114.28C81.3966 114.28 81.1032 114.355 80.8366 114.504C80.5699 114.643 80.3566 114.835 80.1966 115.08V121H78.7566V115.4ZM87.7753 121.16C87.05 121.16 86.4366 120.989 85.9353 120.648C85.434 120.296 85.0553 119.827 84.7993 119.24C84.5433 118.643 84.4153 117.976 84.4153 117.24C84.4153 116.515 84.5433 115.853 84.7993 115.256C85.0553 114.659 85.4233 114.189 85.9033 113.848C86.394 113.496 86.9646 113.32 87.6153 113.32C88.6926 113.32 89.4926 113.624 90.0153 114.232C90.5486 114.829 90.8153 115.699 90.8153 116.84L90.7833 117.48H85.9353C85.9353 118.376 86.1273 119.107 86.5113 119.672C86.8953 120.237 87.4233 120.52 88.0953 120.52C88.5966 120.52 89.018 120.413 89.3593 120.2C89.7113 119.987 90.0366 119.667 90.3353 119.24L90.6553 119.48C90.3033 120.067 89.8926 120.493 89.4233 120.76C88.954 121.027 88.4046 121.16 87.7753 121.16ZM89.2953 116.84C89.2953 115.901 89.1566 115.187 88.8793 114.696C88.602 114.205 88.1806 113.96 87.6153 113.96C87.2953 113.96 87.0073 114.088 86.7513 114.344C86.4953 114.589 86.2926 114.931 86.1433 115.368C86.0046 115.805 85.9353 116.296 85.9353 116.84H89.2953ZM95.1718 121.16C93.9451 121.16 93.1185 120.947 92.6918 120.52C92.5105 120.339 92.3985 120.136 92.3558 119.912C92.3131 119.677 92.2918 119.32 92.2918 118.84H92.6118C92.7078 119.373 92.9371 119.789 93.2998 120.088C93.6731 120.376 94.1905 120.52 94.8518 120.52C95.4385 120.52 95.8758 120.419 96.1638 120.216C96.4625 120.013 96.6118 119.741 96.6118 119.4C96.6118 119.091 96.4945 118.824 96.2598 118.6C96.0358 118.376 95.6731 118.163 95.1718 117.96L94.2118 117.56C93.5718 117.304 93.0918 117.005 92.7718 116.664C92.4518 116.323 92.2918 115.901 92.2918 115.4C92.2918 114.749 92.5371 114.243 93.0278 113.88C93.5185 113.507 94.1531 113.32 94.9318 113.32C96.1051 113.32 96.9051 113.533 97.3318 113.96C97.5131 114.141 97.6251 114.344 97.6678 114.568C97.7105 114.792 97.7318 115.149 97.7318 115.64H97.4118C97.3265 115.107 97.1025 114.696 96.7398 114.408C96.3771 114.109 95.8811 113.96 95.2518 113.96C94.7505 113.96 94.3558 114.067 94.0678 114.28C93.7905 114.483 93.6518 114.749 93.6518 115.08C93.6518 115.635 94.0785 116.088 94.9318 116.44L95.8918 116.84C96.6171 117.139 97.1451 117.459 97.4758 117.8C97.8065 118.131 97.9718 118.557 97.9718 119.08C97.9718 119.731 97.7105 120.243 97.1878 120.616C96.6651 120.979 95.9931 121.16 95.1718 121.16ZM106.68 121.32C105.603 121.32 104.771 121.085 104.184 120.616C103.608 120.136 103.32 119.517 103.32 118.76C103.32 118.344 103.422 117.971 103.624 117.64C103.827 117.299 104.067 117.005 104.344 116.76C104.632 116.515 105.054 116.189 105.608 115.784C105.256 115.464 104.979 115.165 104.776 114.888C104.531 114.579 104.334 114.232 104.184 113.848C104.035 113.453 103.96 113.043 103.96 112.616C103.96 111.848 104.216 111.24 104.728 110.792C105.251 110.344 105.955 110.12 106.84 110.12C107.662 110.12 108.307 110.328 108.776 110.744C109.246 111.16 109.48 111.699 109.48 112.36C109.48 112.829 109.379 113.251 109.176 113.624C108.974 113.987 108.712 114.312 108.392 114.6C108.072 114.888 107.656 115.208 107.144 115.56L110.36 119.08C110.744 118.664 111.096 118.211 111.416 117.72C111.576 117.464 111.704 117.251 111.8 117.08L112.12 117.32C112.003 117.565 111.886 117.789 111.768 117.992C111.448 118.536 111.091 119.021 110.696 119.448L112.12 121H110.36L109.72 120.312C108.824 120.984 107.811 121.32 106.68 121.32ZM106.648 115C107.128 114.595 107.491 114.205 107.736 113.832C107.992 113.448 108.12 113.011 108.12 112.52C108.12 111.901 107.987 111.443 107.72 111.144C107.464 110.835 107.171 110.68 106.84 110.68C106.467 110.68 106.147 110.835 105.88 111.144C105.614 111.453 105.48 111.944 105.48 112.616C105.48 112.989 105.56 113.352 105.72 113.704C105.88 114.045 106.056 114.333 106.248 114.568C106.44 114.803 106.574 114.947 106.648 115ZM106.984 120.76C107.88 120.76 108.68 120.488 109.384 119.944L106.088 116.344C105.683 116.696 105.374 117.048 105.16 117.4C104.947 117.752 104.84 118.152 104.84 118.6C104.84 120.04 105.555 120.76 106.984 120.76ZM126.46 121.08C125.948 121.08 125.441 120.941 124.94 120.664C124.438 120.376 124.038 119.821 123.74 119L123.34 117.96H118.86L117.58 121H116.86L121.34 110.44H121.82L125.34 119C125.606 119.619 125.857 120.045 126.092 120.28C126.326 120.504 126.662 120.637 127.1 120.68V121C126.908 121.053 126.694 121.08 126.46 121.08ZM123.02 117.32L121.1 112.68L119.1 117.32H123.02ZM130.328 121.16C129.101 121.16 128.275 120.947 127.848 120.52C127.667 120.339 127.555 120.136 127.512 119.912C127.469 119.677 127.448 119.32 127.448 118.84H127.768C127.864 119.373 128.093 119.789 128.456 120.088C128.829 120.376 129.347 120.52 130.008 120.52C130.595 120.52 131.032 120.419 131.32 120.216C131.619 120.013 131.768 119.741 131.768 119.4C131.768 119.091 131.651 118.824 131.416 118.6C131.192 118.376 130.829 118.163 130.328 117.96L129.368 117.56C128.728 117.304 128.248 117.005 127.928 116.664C127.608 116.323 127.448 115.901 127.448 115.4C127.448 114.749 127.693 114.243 128.184 113.88C128.675 113.507 129.309 113.32 130.088 113.32C131.261 113.32 132.061 113.533 132.488 113.96C132.669 114.141 132.781 114.344 132.824 114.568C132.867 114.792 132.888 115.149 132.888 115.64H132.568C132.483 115.107 132.259 114.696 131.896 114.408C131.533 114.109 131.037 113.96 130.408 113.96C129.907 113.96 129.512 114.067 129.224 114.28C128.947 114.483 128.808 114.749 128.808 115.08C128.808 115.635 129.235 116.088 130.088 116.44L131.048 116.84C131.773 117.139 132.301 117.459 132.632 117.8C132.963 118.131 133.128 118.557 133.128 119.08C133.128 119.731 132.867 120.243 132.344 120.616C131.821 120.979 131.149 121.16 130.328 121.16ZM137.469 121.16C136.242 121.16 135.415 120.947 134.989 120.52C134.807 120.339 134.695 120.136 134.653 119.912C134.61 119.677 134.589 119.32 134.589 118.84H134.909C135.005 119.373 135.234 119.789 135.597 120.088C135.97 120.376 136.487 120.52 137.149 120.52C137.735 120.52 138.173 120.419 138.461 120.216C138.759 120.013 138.909 119.741 138.909 119.4C138.909 119.091 138.791 118.824 138.557 118.6C138.333 118.376 137.97 118.163 137.469 117.96L136.509 117.56C135.869 117.304 135.389 117.005 135.069 116.664C134.749 116.323 134.589 115.901 134.589 115.4C134.589 114.749 134.834 114.243 135.325 113.88C135.815 113.507 136.45 113.32 137.229 113.32C138.402 113.32 139.202 113.533 139.629 113.96C139.81 114.141 139.922 114.344 139.965 114.568C140.007 114.792 140.029 115.149 140.029 115.64H139.709C139.623 115.107 139.399 114.696 139.037 114.408C138.674 114.109 138.178 113.96 137.549 113.96C137.047 113.96 136.653 114.067 136.365 114.28C136.087 114.483 135.949 114.749 135.949 115.08C135.949 115.635 136.375 116.088 137.229 116.44L138.189 116.84C138.914 117.139 139.442 117.459 139.773 117.8C140.103 118.131 140.269 118.557 140.269 119.08C140.269 119.731 140.007 120.243 139.485 120.616C138.962 120.979 138.29 121.16 137.469 121.16ZM142.945 112.52C142.7 112.52 142.487 112.419 142.305 112.216C142.135 112.013 142.049 111.773 142.049 111.496C142.049 111.272 142.113 111.096 142.241 110.968C142.38 110.84 142.561 110.776 142.785 110.776C143.031 110.776 143.239 110.877 143.409 111.08C143.591 111.283 143.681 111.523 143.681 111.8C143.681 112.024 143.612 112.2 143.473 112.328C143.345 112.456 143.169 112.52 142.945 112.52ZM142.337 115.4C142.337 114.856 142.263 114.456 142.113 114.2C141.964 113.933 141.665 113.8 141.217 113.8H140.897V113.48H142.337C142.732 113.48 143.025 113.533 143.217 113.64C143.42 113.736 143.564 113.917 143.649 114.184C143.735 114.451 143.777 114.856 143.777 115.4V121H142.337V115.4ZM148.819 124.2C147.741 124.2 146.883 124.003 146.243 123.608C145.613 123.213 145.299 122.584 145.299 121.72C145.299 121.229 145.464 120.803 145.795 120.44C146.125 120.077 146.547 119.811 147.059 119.64C146.632 119.405 146.419 119.085 146.419 118.68C146.419 118.467 146.467 118.301 146.563 118.184C146.659 118.067 146.797 117.939 146.979 117.8C146.637 117.629 146.349 117.363 146.115 117C145.891 116.637 145.779 116.211 145.779 115.72C145.779 114.12 146.792 113.32 148.819 113.32H151.779V113.72L150.739 113.88V113.96C151.069 114.131 151.336 114.371 151.539 114.68C151.752 114.979 151.859 115.325 151.859 115.72C151.859 117.32 150.845 118.12 148.819 118.12C147.699 118.12 147.139 118.307 147.139 118.68C147.139 119.053 147.699 119.24 148.819 119.24C149.853 119.24 150.696 119.448 151.347 119.864C152.008 120.269 152.339 120.888 152.339 121.72C152.339 122.584 152.019 123.213 151.379 123.608C150.749 124.003 149.896 124.2 148.819 124.2ZM148.819 117.56C149.299 117.56 149.683 117.416 149.971 117.128C150.269 116.829 150.419 116.36 150.419 115.72C150.419 115.112 150.269 114.653 149.971 114.344C149.683 114.035 149.299 113.88 148.819 113.88C148.339 113.88 147.949 114.029 147.651 114.328C147.363 114.616 147.219 115.08 147.219 115.72C147.219 116.36 147.363 116.829 147.651 117.128C147.949 117.416 148.339 117.56 148.819 117.56ZM148.819 123.56C149.459 123.56 149.965 123.405 150.339 123.096C150.712 122.797 150.899 122.339 150.899 121.72C150.899 120.653 150.259 120.04 148.979 119.88L148.099 119.8C147.661 119.971 147.325 120.211 147.091 120.52C146.856 120.829 146.739 121.229 146.739 121.72C146.739 122.339 146.925 122.797 147.299 123.096C147.672 123.405 148.179 123.56 148.819 123.56ZM154.15 115.4C154.15 114.856 154.075 114.456 153.926 114.2C153.776 113.933 153.478 113.8 153.03 113.8H152.71V113.48H154.15C154.544 113.48 154.843 113.533 155.046 113.64C155.259 113.747 155.414 113.907 155.51 114.12H155.59C155.814 113.896 156.102 113.709 156.454 113.56C156.816 113.4 157.222 113.32 157.67 113.32C158.47 113.32 159.12 113.533 159.622 113.96C160.134 114.387 160.39 115.133 160.39 116.2V121H158.95V116.2C158.95 115.453 158.779 114.909 158.438 114.568C158.107 114.216 157.691 114.04 157.19 114.04C156.624 114.04 156.091 114.323 155.59 114.888V121H154.15V115.4ZM162.853 115.4C162.853 114.856 162.778 114.456 162.629 114.2C162.48 113.933 162.181 113.8 161.733 113.8H161.413V113.48H162.853C163.248 113.48 163.546 113.533 163.749 113.64C163.962 113.747 164.117 113.907 164.213 114.12H164.293C164.517 113.896 164.805 113.709 165.157 113.56C165.52 113.4 165.925 113.32 166.373 113.32C166.821 113.32 167.205 113.405 167.525 113.576C167.845 113.736 168.101 114.024 168.293 114.44C168.57 114.088 168.922 113.816 169.349 113.624C169.786 113.421 170.234 113.32 170.693 113.32C171.376 113.32 171.92 113.533 172.325 113.96C172.73 114.387 172.933 115.133 172.933 116.2V121H171.493V116.2C171.493 115.432 171.386 114.883 171.173 114.552C170.96 114.211 170.64 114.04 170.213 114.04C169.914 114.04 169.6 114.152 169.269 114.376C168.938 114.589 168.693 114.824 168.533 115.08C168.586 115.24 168.613 115.613 168.613 116.2V121H167.173V116.2C167.173 115.432 167.066 114.883 166.853 114.552C166.64 114.211 166.32 114.04 165.893 114.04C165.328 114.04 164.794 114.323 164.293 114.888V121H162.853V115.4ZM178.103 121.16C177.378 121.16 176.765 120.989 176.263 120.648C175.762 120.296 175.383 119.827 175.127 119.24C174.871 118.643 174.743 117.976 174.743 117.24C174.743 116.515 174.871 115.853 175.127 115.256C175.383 114.659 175.751 114.189 176.231 113.848C176.722 113.496 177.293 113.32 177.943 113.32C179.021 113.32 179.821 113.624 180.343 114.232C180.877 114.829 181.143 115.699 181.143 116.84L181.111 117.48H176.263C176.263 118.376 176.455 119.107 176.839 119.672C177.223 120.237 177.751 120.52 178.423 120.52C178.925 120.52 179.346 120.413 179.687 120.2C180.039 119.987 180.365 119.667 180.663 119.24L180.983 119.48C180.631 120.067 180.221 120.493 179.751 120.76C179.282 121.027 178.733 121.16 178.103 121.16ZM179.623 116.84C179.623 115.901 179.485 115.187 179.207 114.696C178.93 114.205 178.509 113.96 177.943 113.96C177.623 113.96 177.335 114.088 177.079 114.344C176.823 114.589 176.621 114.931 176.471 115.368C176.333 115.805 176.263 116.296 176.263 116.84H179.623ZM183.228 115.4C183.228 114.856 183.153 114.456 183.004 114.2C182.855 113.933 182.556 113.8 182.108 113.8H181.788V113.48H183.228C183.623 113.48 183.921 113.533 184.124 113.64C184.337 113.747 184.492 113.907 184.588 114.12H184.668C184.892 113.896 185.18 113.709 185.532 113.56C185.895 113.4 186.3 113.32 186.748 113.32C187.548 113.32 188.199 113.533 188.7 113.96C189.212 114.387 189.468 115.133 189.468 116.2V121H188.028V116.2C188.028 115.453 187.857 114.909 187.516 114.568C187.185 114.216 186.769 114.04 186.268 114.04C185.703 114.04 185.169 114.323 184.668 114.888V121H183.228V115.4ZM193.915 121.16C193.318 121.16 192.848 120.989 192.507 120.648C192.166 120.307 191.995 119.784 191.995 119.08V114.12H190.875V113.48H191.995V112.04L192.795 111.08H193.435V113.48H195.355V114.12H193.435V119.08C193.435 120.04 193.808 120.52 194.555 120.52C194.811 120.52 195.024 120.493 195.195 120.44C195.376 120.387 195.563 120.307 195.755 120.2L195.915 120.52C195.67 120.701 195.398 120.856 195.099 120.984C194.8 121.101 194.406 121.16 193.915 121.16ZM199.609 121.16C198.383 121.16 197.556 120.947 197.129 120.52C196.948 120.339 196.836 120.136 196.793 119.912C196.751 119.677 196.729 119.32 196.729 118.84H197.049C197.145 119.373 197.375 119.789 197.737 120.088C198.111 120.376 198.628 120.52 199.289 120.52C199.876 120.52 200.313 120.419 200.601 120.216C200.9 120.013 201.049 119.741 201.049 119.4C201.049 119.091 200.932 118.824 200.697 118.6C200.473 118.376 200.111 118.163 199.609 117.96L198.649 117.56C198.009 117.304 197.529 117.005 197.209 116.664C196.889 116.323 196.729 115.901 196.729 115.4C196.729 114.749 196.975 114.243 197.465 113.88C197.956 113.507 198.591 113.32 199.369 113.32C200.543 113.32 201.343 113.533 201.769 113.96C201.951 114.141 202.063 114.344 202.105 114.568C202.148 114.792 202.169 115.149 202.169 115.64H201.849C201.764 115.107 201.54 114.696 201.177 114.408C200.815 114.109 200.319 113.96 199.689 113.96C199.188 113.96 198.793 114.067 198.505 114.28C198.228 114.483 198.089 114.749 198.089 115.08C198.089 115.635 198.516 116.088 199.369 116.44L200.329 116.84C201.055 117.139 201.583 117.459 201.913 117.8C202.244 118.131 202.409 118.557 202.409 119.08C202.409 119.731 202.148 120.243 201.625 120.616C201.103 120.979 200.431 121.16 199.609 121.16ZM211.326 121.16C210.558 121.16 209.907 120.989 209.374 120.648C208.851 120.296 208.457 119.827 208.19 119.24C207.934 118.643 207.806 117.976 207.806 117.24C207.806 116.504 207.934 115.843 208.19 115.256C208.457 114.659 208.851 114.189 209.374 113.848C209.907 113.496 210.558 113.32 211.326 113.32C212.499 113.32 213.273 113.507 213.646 113.88C213.827 114.061 213.939 114.285 213.982 114.552C214.025 114.808 214.046 115.277 214.046 115.96H213.726C213.683 115.299 213.475 114.803 213.102 114.472C212.729 114.131 212.243 113.96 211.646 113.96C210.878 113.96 210.297 114.264 209.902 114.872C209.518 115.48 209.326 116.269 209.326 117.24C209.326 118.211 209.518 119 209.902 119.608C210.297 120.216 210.878 120.52 211.646 120.52C212.19 120.52 212.638 120.419 212.99 120.216C213.342 120.003 213.667 119.677 213.966 119.24L214.286 119.48C213.934 120.077 213.518 120.509 213.038 120.776C212.558 121.032 211.987 121.16 211.326 121.16ZM218.708 121.16C217.908 121.16 217.252 120.947 216.74 120.52C216.239 120.093 215.988 119.347 215.988 118.28V115.4C215.988 114.856 215.914 114.456 215.764 114.2C215.615 113.933 215.316 113.8 214.868 113.8H214.708V113.48H215.988C216.383 113.48 216.676 113.533 216.868 113.64C217.071 113.736 217.215 113.917 217.3 114.184C217.386 114.451 217.428 114.856 217.428 115.4V118.28C217.428 119.027 217.594 119.576 217.924 119.928C218.266 120.269 218.687 120.44 219.188 120.44C219.754 120.44 220.287 120.157 220.788 119.592V113.48H222.228V121H221.428L220.868 120.36H220.788C220.564 120.584 220.271 120.776 219.908 120.936C219.556 121.085 219.156 121.16 218.708 121.16ZM224.663 115.4C224.663 114.856 224.588 114.456 224.439 114.2C224.289 113.933 223.991 113.8 223.543 113.8H223.383V113.48H224.663C225.068 113.48 225.372 113.539 225.575 113.656C225.788 113.763 225.937 113.944 226.023 114.2H226.103C226.295 113.955 226.551 113.747 226.871 113.576C227.201 113.405 227.585 113.32 228.023 113.32C228.449 113.32 228.769 113.4 228.983 113.56C229.164 113.699 229.351 113.939 229.543 114.28L228.903 114.76C228.785 114.6 228.615 114.483 228.391 114.408C228.167 114.323 227.911 114.28 227.623 114.28C227.303 114.28 227.009 114.355 226.743 114.504C226.476 114.643 226.263 114.835 226.103 115.08V121H224.663V115.4ZM232.686 121.16C232.345 121.16 231.998 121.091 231.646 120.952C231.294 120.803 230.99 120.563 230.734 120.232C230.489 119.901 230.366 119.464 230.366 118.92C230.366 118.109 230.74 117.533 231.486 117.192C232.244 116.851 233.23 116.68 234.446 116.68H234.926C234.926 115.635 234.782 114.92 234.494 114.536C234.206 114.152 233.79 113.96 233.246 113.96C232.766 113.96 232.382 114.061 232.094 114.264C231.806 114.467 231.604 114.819 231.486 115.32H230.766C230.766 114.957 230.788 114.675 230.83 114.472C230.873 114.259 230.985 114.061 231.166 113.88C231.358 113.688 231.673 113.549 232.11 113.464C232.558 113.368 233.044 113.32 233.566 113.32C234.43 113.32 235.113 113.555 235.614 114.024C236.116 114.483 236.366 115.368 236.366 116.68V121H235.566L235.006 120.28H234.926C234.734 120.525 234.452 120.733 234.078 120.904C233.705 121.075 233.241 121.16 232.686 121.16ZM233.406 120.44C233.758 120.44 234.052 120.355 234.286 120.184C234.521 120.013 234.734 119.779 234.926 119.48V117.32H234.446C233.657 117.32 233.033 117.469 232.574 117.768C232.116 118.056 231.886 118.44 231.886 118.92C231.886 119.411 232.03 119.789 232.318 120.056C232.617 120.312 232.98 120.44 233.406 120.44ZM240.821 121.16C240.224 121.16 239.755 120.989 239.413 120.648C239.072 120.307 238.901 119.784 238.901 119.08V114.12H237.781V113.48H238.901V112.04L239.701 111.08H240.341V113.48H242.261V114.12H240.341V119.08C240.341 120.04 240.715 120.52 241.461 120.52C241.717 120.52 241.931 120.493 242.101 120.44C242.283 120.387 242.469 120.307 242.661 120.2L242.821 120.52C242.576 120.701 242.304 120.856 242.005 120.984C241.707 121.101 241.312 121.16 240.821 121.16ZM246.932 121.16C246.206 121.16 245.593 120.989 245.092 120.648C244.59 120.296 244.212 119.827 243.956 119.24C243.7 118.643 243.572 117.976 243.572 117.24C243.572 116.515 243.7 115.853 243.956 115.256C244.212 114.659 244.58 114.189 245.06 113.848C245.55 113.496 246.121 113.32 246.772 113.32C247.849 113.32 248.649 113.624 249.172 114.232C249.705 114.829 249.972 115.699 249.972 116.84L249.94 117.48H245.092C245.092 118.376 245.284 119.107 245.668 119.672C246.052 120.237 246.58 120.52 247.252 120.52C247.753 120.52 248.174 120.413 248.516 120.2C248.868 119.987 249.193 119.667 249.492 119.24L249.812 119.48C249.46 120.067 249.049 120.493 248.58 120.76C248.11 121.027 247.561 121.16 246.932 121.16ZM248.452 116.84C248.452 115.901 248.313 115.187 248.036 114.696C247.758 114.205 247.337 113.96 246.772 113.96C246.452 113.96 246.164 114.088 245.908 114.344C245.652 114.589 245.449 114.931 245.3 115.368C245.161 115.805 245.092 116.296 245.092 116.84H248.452ZM254.296 121.16C253.368 121.16 252.653 120.792 252.152 120.056C251.661 119.32 251.416 118.381 251.416 117.24C251.416 116.099 251.672 115.16 252.184 114.424C252.707 113.688 253.464 113.32 254.456 113.32C254.861 113.32 255.219 113.363 255.528 113.448C255.837 113.533 256.147 113.651 256.456 113.8V112.36C256.456 111.816 256.381 111.416 256.232 111.16C256.083 110.893 255.784 110.76 255.336 110.76H255.016V110.44H256.456C256.851 110.44 257.144 110.493 257.336 110.6C257.539 110.696 257.683 110.877 257.768 111.144C257.853 111.411 257.896 111.816 257.896 112.36V121H257.096L256.536 120.28H256.456C256.221 120.547 255.944 120.76 255.624 120.92C255.315 121.08 254.872 121.16 254.296 121.16ZM254.776 120.52C255.213 120.52 255.544 120.44 255.768 120.28C255.992 120.12 256.221 119.88 256.456 119.56V114.44C256.136 114.291 255.859 114.173 255.624 114.088C255.389 114.003 255.16 113.96 254.936 113.96C254.253 113.96 253.747 114.259 253.416 114.856C253.096 115.453 252.936 116.248 252.936 117.24C252.936 118.221 253.091 119.016 253.4 119.624C253.709 120.221 254.168 120.52 254.776 120.52ZM267.807 121.16C267.263 121.16 266.815 121.075 266.463 120.904C266.111 120.733 265.839 120.525 265.647 120.28H265.567L265.007 121H264.207V112.36C264.207 111.816 264.132 111.416 263.983 111.16C263.833 110.893 263.535 110.76 263.087 110.76H262.767V110.44H264.207C264.601 110.44 264.895 110.493 265.087 110.6C265.289 110.696 265.433 110.877 265.519 111.144C265.604 111.411 265.647 111.816 265.647 112.36V113.8C265.956 113.651 266.265 113.533 266.575 113.448C266.884 113.363 267.241 113.32 267.647 113.32C268.639 113.32 269.391 113.688 269.903 114.424C270.425 115.16 270.687 116.099 270.687 117.24C270.687 118.371 270.436 119.309 269.935 120.056C269.433 120.792 268.724 121.16 267.807 121.16ZM267.327 120.52C267.935 120.52 268.393 120.221 268.703 119.624C269.012 119.016 269.167 118.221 269.167 117.24C269.167 116.248 269.001 115.453 268.671 114.856C268.351 114.259 267.849 113.96 267.167 113.96C266.943 113.96 266.713 114.003 266.479 114.088C266.244 114.173 265.967 114.291 265.647 114.44V119.56C265.839 119.848 266.063 120.083 266.319 120.264C266.585 120.435 266.921 120.52 267.327 120.52ZM272.875 123.72C273.398 123.72 273.825 123.597 274.155 123.352C274.497 123.117 274.79 122.68 275.035 122.04L275.355 121.16L272.795 114.92C272.497 114.152 271.91 113.725 271.035 113.64V113.32H272.395C273.323 113.32 273.963 113.747 274.315 114.6L276.139 119.032L278.155 113.48H278.955L275.835 122.04C275.526 122.883 275.185 123.453 274.811 123.752C274.438 124.051 273.953 124.2 273.355 124.2H272.875V123.72ZM71.1873 135.08C69.8539 135.08 69.1873 135.693 69.1873 136.92H68.8673V135.72C68.8673 134.867 69.3206 134.44 70.2273 134.44H77.6673V135.08H74.0673V145H72.6273V135.08H71.1873ZM80.7244 145.16C79.999 145.16 79.3697 144.989 78.8364 144.648C78.303 144.296 77.8977 143.821 77.6204 143.224C77.343 142.627 77.2044 141.965 77.2044 141.24C77.2044 140.515 77.343 139.853 77.6204 139.256C77.8977 138.659 78.303 138.189 78.8364 137.848C79.3697 137.496 79.999 137.32 80.7244 137.32C81.4497 137.32 82.079 137.496 82.6124 137.848C83.1457 138.189 83.551 138.659 83.8284 139.256C84.1057 139.853 84.2444 140.515 84.2444 141.24C84.2444 141.965 84.1057 142.627 83.8284 143.224C83.551 143.821 83.1457 144.296 82.6124 144.648C82.079 144.989 81.4497 145.16 80.7244 145.16ZM80.7244 144.52C81.119 144.52 81.4657 144.376 81.7644 144.088C82.0737 143.8 82.3084 143.405 82.4684 142.904C82.639 142.403 82.7244 141.848 82.7244 141.24C82.7244 140.632 82.639 140.077 82.4684 139.576C82.3084 139.075 82.0737 138.68 81.7644 138.392C81.4657 138.104 81.119 137.96 80.7244 137.96C80.3297 137.96 79.9777 138.104 79.6684 138.392C79.3697 138.68 79.135 139.075 78.9644 139.576C78.8044 140.077 78.7244 140.632 78.7244 141.24C78.7244 141.848 78.8044 142.403 78.9644 142.904C79.135 143.405 79.3697 143.8 79.6684 144.088C79.9777 144.376 80.3297 144.52 80.7244 144.52ZM86.3608 139.4C86.3608 138.856 86.2861 138.456 86.1368 138.2C85.9874 137.933 85.6888 137.8 85.2408 137.8H84.9207V137.48H86.3608C86.7661 137.48 87.0701 137.539 87.2728 137.656C87.4861 137.763 87.6354 137.944 87.7208 138.2H87.8008C87.9928 137.955 88.2648 137.747 88.6168 137.576C88.9688 137.405 89.4168 137.32 89.9608 137.32C90.8781 137.32 91.5874 137.693 92.0888 138.44C92.5901 139.176 92.8408 140.109 92.8408 141.24C92.8408 142.381 92.5794 143.32 92.0568 144.056C91.5448 144.792 90.7928 145.16 89.8008 145.16C89.3954 145.16 89.0381 145.117 88.7288 145.032C88.4194 144.947 88.1101 144.829 87.8008 144.68V148.04H86.3608V139.4ZM89.3208 144.52C90.0034 144.52 90.5048 144.221 90.8248 143.624C91.1554 143.027 91.3208 142.232 91.3208 141.24C91.3208 140.259 91.1661 139.469 90.8568 138.872C90.5474 138.264 90.0888 137.96 89.4808 137.96C88.7661 137.96 88.2061 138.28 87.8008 138.92V144.04C88.1208 144.189 88.3981 144.307 88.6328 144.392C88.8674 144.477 89.0968 144.52 89.3208 144.52ZM100.234 135.08C98.9008 135.08 98.2341 135.693 98.2341 136.92H97.9141V135.72C97.9141 134.867 98.3675 134.44 99.2741 134.44H106.714V135.08H103.114V145H101.674V135.08H100.234ZM109.611 145.16C108.886 145.16 108.273 144.989 107.771 144.648C107.27 144.296 106.891 143.827 106.635 143.24C106.379 142.643 106.251 141.976 106.251 141.24C106.251 140.515 106.379 139.853 106.635 139.256C106.891 138.659 107.259 138.189 107.739 137.848C108.23 137.496 108.801 137.32 109.451 137.32C110.529 137.32 111.329 137.624 111.851 138.232C112.385 138.829 112.651 139.699 112.651 140.84L112.619 141.48H107.771C107.771 142.376 107.963 143.107 108.347 143.672C108.731 144.237 109.259 144.52 109.931 144.52C110.433 144.52 110.854 144.413 111.195 144.2C111.547 143.987 111.873 143.667 112.171 143.24L112.491 143.48C112.139 144.067 111.729 144.493 111.259 144.76C110.79 145.027 110.241 145.16 109.611 145.16ZM111.131 140.84C111.131 139.901 110.993 139.187 110.715 138.696C110.438 138.205 110.017 137.96 109.451 137.96C109.131 137.96 108.843 138.088 108.587 138.344C108.331 138.589 108.129 138.931 107.979 139.368C107.841 139.805 107.771 140.296 107.771 140.84H111.131ZM117.584 145.16C116.816 145.16 116.165 144.989 115.632 144.648C115.109 144.296 114.714 143.827 114.448 143.24C114.192 142.643 114.064 141.976 114.064 141.24C114.064 140.504 114.192 139.843 114.448 139.256C114.714 138.659 115.109 138.189 115.632 137.848C116.165 137.496 116.816 137.32 117.584 137.32C118.757 137.32 119.53 137.507 119.904 137.88C120.085 138.061 120.197 138.285 120.24 138.552C120.282 138.808 120.304 139.277 120.304 139.96H119.984C119.941 139.299 119.733 138.803 119.36 138.472C118.986 138.131 118.501 137.96 117.904 137.96C117.136 137.96 116.554 138.264 116.16 138.872C115.776 139.48 115.584 140.269 115.584 141.24C115.584 142.211 115.776 143 116.16 143.608C116.554 144.216 117.136 144.52 117.904 144.52C118.448 144.52 118.896 144.419 119.248 144.216C119.6 144.003 119.925 143.677 120.224 143.24L120.544 143.48C120.192 144.077 119.776 144.509 119.296 144.776C118.816 145.032 118.245 145.16 117.584 145.16ZM122.23 136.36C122.23 135.816 122.155 135.416 122.006 135.16C121.857 134.893 121.558 134.76 121.11 134.76H120.79V134.44H122.23C122.625 134.44 122.918 134.493 123.11 134.6C123.313 134.696 123.457 134.877 123.542 135.144C123.627 135.411 123.67 135.816 123.67 136.36V138.12C123.894 137.896 124.182 137.709 124.534 137.56C124.897 137.4 125.302 137.32 125.75 137.32C126.55 137.32 127.201 137.533 127.702 137.96C128.214 138.387 128.47 139.133 128.47 140.2V145H127.03V140.2C127.03 139.453 126.859 138.909 126.518 138.568C126.187 138.216 125.771 138.04 125.27 138.04C124.705 138.04 124.171 138.323 123.67 138.888V145H122.23V136.36ZM135.243 136.36C135.243 135.816 135.168 135.416 135.019 135.16C134.87 134.893 134.571 134.76 134.123 134.76H133.803V134.44H137.963C138.987 134.44 139.91 134.659 140.731 135.096C141.552 135.533 141.963 136.381 141.963 137.64C141.963 138.472 141.75 139.112 141.323 139.56C140.896 140.008 140.416 140.307 139.883 140.456C139.36 140.605 138.88 140.68 138.443 140.68H136.683V145H135.243V136.36ZM137.883 140.12C138.224 140.12 138.587 140.035 138.971 139.864C139.355 139.683 139.68 139.4 139.947 139.016C140.224 138.632 140.363 138.147 140.363 137.56C140.363 136.973 140.224 136.488 139.947 136.104C139.68 135.72 139.355 135.443 138.971 135.272C138.587 135.091 138.224 135 137.883 135C137.51 135 137.11 135.053 136.683 135.16V139.96C137.11 140.067 137.51 140.12 137.883 140.12ZM143.655 139.4C143.655 138.856 143.58 138.456 143.431 138.2C143.282 137.933 142.983 137.8 142.535 137.8H142.375V137.48H143.655C144.06 137.48 144.364 137.539 144.567 137.656C144.78 137.763 144.93 137.944 145.015 138.2H145.095C145.287 137.955 145.543 137.747 145.863 137.576C146.194 137.405 146.578 137.32 147.015 137.32C147.442 137.32 147.762 137.4 147.975 137.56C148.156 137.699 148.343 137.939 148.535 138.28L147.895 138.76C147.778 138.6 147.607 138.483 147.383 138.408C147.159 138.323 146.903 138.28 146.615 138.28C146.295 138.28 146.002 138.355 145.735 138.504C145.468 138.643 145.255 138.835 145.095 139.08V145H143.655V139.4ZM152.834 145.16C152.108 145.16 151.479 144.989 150.946 144.648C150.412 144.296 150.007 143.821 149.73 143.224C149.452 142.627 149.314 141.965 149.314 141.24C149.314 140.515 149.452 139.853 149.73 139.256C150.007 138.659 150.412 138.189 150.946 137.848C151.479 137.496 152.108 137.32 152.834 137.32C153.559 137.32 154.188 137.496 154.722 137.848C155.255 138.189 155.66 138.659 155.938 139.256C156.215 139.853 156.354 140.515 156.354 141.24C156.354 141.965 156.215 142.627 155.938 143.224C155.66 143.821 155.255 144.296 154.722 144.648C154.188 144.989 153.559 145.16 152.834 145.16ZM152.834 144.52C153.228 144.52 153.575 144.376 153.874 144.088C154.183 143.8 154.418 143.405 154.578 142.904C154.748 142.403 154.834 141.848 154.834 141.24C154.834 140.632 154.748 140.077 154.578 139.576C154.418 139.075 154.183 138.68 153.874 138.392C153.575 138.104 153.228 137.96 152.834 137.96C152.439 137.96 152.087 138.104 151.778 138.392C151.479 138.68 151.244 139.075 151.074 139.576C150.914 140.077 150.834 140.632 150.834 141.24C150.834 141.848 150.914 142.403 151.074 142.904C151.244 143.405 151.479 143.8 151.778 144.088C152.087 144.376 152.439 144.52 152.834 144.52ZM157.414 138.12V137.48H158.534V137C158.534 135.187 159.467 134.28 161.334 134.28C162.006 134.28 162.459 134.36 162.694 134.52C162.875 134.659 163.062 134.899 163.254 135.24L162.774 135.64C162.454 135.16 161.947 134.92 161.254 134.92C160.401 134.92 159.974 135.613 159.974 137V137.48H162.214V138.12H159.974V145H158.534V138.12H157.414ZM162.805 138.12V137.48H163.925V137C163.925 135.187 164.858 134.28 166.725 134.28C167.397 134.28 167.85 134.36 168.085 134.52C168.266 134.659 168.453 134.899 168.645 135.24L168.165 135.64C167.845 135.16 167.338 134.92 166.645 134.92C165.791 134.92 165.365 135.613 165.365 137V137.48H167.605V138.12H165.365V145H163.925V138.12H162.805ZM171.752 145.16C171.027 145.16 170.413 144.989 169.912 144.648C169.411 144.296 169.032 143.827 168.776 143.24C168.52 142.643 168.392 141.976 168.392 141.24C168.392 140.515 168.52 139.853 168.776 139.256C169.032 138.659 169.4 138.189 169.88 137.848C170.371 137.496 170.941 137.32 171.592 137.32C172.669 137.32 173.469 137.624 173.992 138.232C174.525 138.829 174.792 139.699 174.792 140.84L174.76 141.48H169.912C169.912 142.376 170.104 143.107 170.488 143.672C170.872 144.237 171.4 144.52 172.072 144.52C172.573 144.52 172.995 144.413 173.336 144.2C173.688 143.987 174.013 143.667 174.312 143.24L174.632 143.48C174.28 144.067 173.869 144.493 173.4 144.76C172.931 145.027 172.381 145.16 171.752 145.16ZM173.272 140.84C173.272 139.901 173.133 139.187 172.856 138.696C172.579 138.205 172.157 137.96 171.592 137.96C171.272 137.96 170.984 138.088 170.728 138.344C170.472 138.589 170.269 138.931 170.12 139.368C169.981 139.805 169.912 140.296 169.912 140.84H173.272ZM179.148 145.16C177.922 145.16 177.095 144.947 176.668 144.52C176.487 144.339 176.375 144.136 176.332 143.912C176.29 143.677 176.268 143.32 176.268 142.84H176.588C176.684 143.373 176.914 143.789 177.276 144.088C177.65 144.376 178.167 144.52 178.828 144.52C179.415 144.52 179.852 144.419 180.14 144.216C180.439 144.013 180.588 143.741 180.588 143.4C180.588 143.091 180.471 142.824 180.236 142.6C180.012 142.376 179.65 142.163 179.148 141.96L178.188 141.56C177.548 141.304 177.068 141.005 176.748 140.664C176.428 140.323 176.268 139.901 176.268 139.4C176.268 138.749 176.514 138.243 177.004 137.88C177.495 137.507 178.13 137.32 178.908 137.32C180.082 137.32 180.882 137.533 181.308 137.96C181.49 138.141 181.602 138.344 181.644 138.568C181.687 138.792 181.708 139.149 181.708 139.64H181.388C181.303 139.107 181.079 138.696 180.716 138.408C180.354 138.109 179.858 137.96 179.228 137.96C178.727 137.96 178.332 138.067 178.044 138.28C177.767 138.483 177.628 138.749 177.628 139.08C177.628 139.635 178.055 140.088 178.908 140.44L179.868 140.84C180.594 141.139 181.122 141.459 181.452 141.8C181.783 142.131 181.948 142.557 181.948 143.08C181.948 143.731 181.687 144.243 181.164 144.616C180.642 144.979 179.97 145.16 179.148 145.16ZM184.625 136.52C184.38 136.52 184.166 136.419 183.985 136.216C183.814 136.013 183.729 135.773 183.729 135.496C183.729 135.272 183.793 135.096 183.921 134.968C184.06 134.84 184.241 134.776 184.465 134.776C184.71 134.776 184.918 134.877 185.089 135.08C185.27 135.283 185.361 135.523 185.361 135.8C185.361 136.024 185.292 136.2 185.153 136.328C185.025 136.456 184.849 136.52 184.625 136.52ZM184.017 139.4C184.017 138.856 183.942 138.456 183.793 138.2C183.644 137.933 183.345 137.8 182.897 137.8H182.577V137.48H184.017C184.412 137.48 184.705 137.533 184.897 137.64C185.1 137.736 185.244 137.917 185.329 138.184C185.414 138.451 185.457 138.856 185.457 139.4V145H184.017V139.4ZM190.803 145.16C190.077 145.16 189.448 144.989 188.914 144.648C188.381 144.296 187.976 143.821 187.699 143.224C187.421 142.627 187.283 141.965 187.283 141.24C187.283 140.515 187.421 139.853 187.699 139.256C187.976 138.659 188.381 138.189 188.914 137.848C189.448 137.496 190.077 137.32 190.803 137.32C191.528 137.32 192.157 137.496 192.691 137.848C193.224 138.189 193.629 138.659 193.907 139.256C194.184 139.853 194.323 140.515 194.323 141.24C194.323 141.965 194.184 142.627 193.907 143.224C193.629 143.821 193.224 144.296 192.691 144.648C192.157 144.989 191.528 145.16 190.803 145.16ZM190.803 144.52C191.197 144.52 191.544 144.376 191.843 144.088C192.152 143.8 192.387 143.405 192.547 142.904C192.717 142.403 192.803 141.848 192.803 141.24C192.803 140.632 192.717 140.077 192.547 139.576C192.387 139.075 192.152 138.68 191.843 138.392C191.544 138.104 191.197 137.96 190.803 137.96C190.408 137.96 190.056 138.104 189.747 138.392C189.448 138.68 189.213 139.075 189.043 139.576C188.883 140.077 188.803 140.632 188.803 141.24C188.803 141.848 188.883 142.403 189.043 142.904C189.213 143.405 189.448 143.8 189.747 144.088C190.056 144.376 190.408 144.52 190.803 144.52ZM196.439 139.4C196.439 138.856 196.364 138.456 196.215 138.2C196.066 137.933 195.767 137.8 195.319 137.8H194.999V137.48H196.439C196.834 137.48 197.132 137.533 197.335 137.64C197.548 137.747 197.703 137.907 197.799 138.12H197.879C198.103 137.896 198.391 137.709 198.743 137.56C199.106 137.4 199.511 137.32 199.959 137.32C200.759 137.32 201.41 137.533 201.911 137.96C202.423 138.387 202.679 139.133 202.679 140.2V145H201.239V140.2C201.239 139.453 201.068 138.909 200.727 138.568C200.396 138.216 199.98 138.04 199.479 138.04C198.914 138.04 198.38 138.323 197.879 138.888V145H196.439V139.4ZM206.694 145.16C206.353 145.16 206.006 145.091 205.654 144.952C205.302 144.803 204.998 144.563 204.742 144.232C204.497 143.901 204.374 143.464 204.374 142.92C204.374 142.109 204.747 141.533 205.494 141.192C206.251 140.851 207.238 140.68 208.454 140.68H208.934C208.934 139.635 208.79 138.92 208.502 138.536C208.214 138.152 207.798 137.96 207.254 137.96C206.774 137.96 206.39 138.061 206.102 138.264C205.814 138.467 205.611 138.819 205.494 139.32H204.774C204.774 138.957 204.795 138.675 204.838 138.472C204.881 138.259 204.993 138.061 205.174 137.88C205.366 137.688 205.681 137.549 206.118 137.464C206.566 137.368 207.051 137.32 207.574 137.32C208.438 137.32 209.121 137.555 209.622 138.024C210.123 138.483 210.374 139.368 210.374 140.68V145H209.574L209.014 144.28H208.934C208.742 144.525 208.459 144.733 208.086 144.904C207.713 145.075 207.249 145.16 206.694 145.16ZM207.414 144.44C207.766 144.44 208.059 144.355 208.294 144.184C208.529 144.013 208.742 143.779 208.934 143.48V141.32H208.454C207.665 141.32 207.041 141.469 206.582 141.768C206.123 142.056 205.894 142.44 205.894 142.92C205.894 143.411 206.038 143.789 206.326 144.056C206.625 144.312 206.987 144.44 207.414 144.44ZM212.669 136.36C212.669 135.816 212.594 135.416 212.445 135.16C212.296 134.893 211.997 134.76 211.549 134.76H211.229V134.44H212.669C213.064 134.44 213.357 134.493 213.549 134.6C213.752 134.696 213.896 134.877 213.981 135.144C214.066 135.411 214.109 135.816 214.109 136.36V145H212.669V136.36ZM218.992 145.16C217.765 145.16 216.939 144.947 216.512 144.52C216.331 144.339 216.219 144.136 216.176 143.912C216.133 143.677 216.112 143.32 216.112 142.84H216.432C216.528 143.373 216.757 143.789 217.12 144.088C217.493 144.376 218.011 144.52 218.672 144.52C219.259 144.52 219.696 144.419 219.984 144.216C220.283 144.013 220.432 143.741 220.432 143.4C220.432 143.091 220.315 142.824 220.08 142.6C219.856 142.376 219.493 142.163 218.992 141.96L218.032 141.56C217.392 141.304 216.912 141.005 216.592 140.664C216.272 140.323 216.112 139.901 216.112 139.4C216.112 138.749 216.357 138.243 216.848 137.88C217.339 137.507 217.973 137.32 218.752 137.32C219.925 137.32 220.725 137.533 221.152 137.96C221.333 138.141 221.445 138.344 221.488 138.568C221.531 138.792 221.552 139.149 221.552 139.64H221.232C221.147 139.107 220.923 138.696 220.56 138.408C220.197 138.109 219.701 137.96 219.072 137.96C218.571 137.96 218.176 138.067 217.888 138.28C217.611 138.483 217.472 138.749 217.472 139.08C217.472 139.635 217.899 140.088 218.752 140.44L219.712 140.84C220.437 141.139 220.965 141.459 221.296 141.8C221.627 142.131 221.792 142.557 221.792 143.08C221.792 143.731 221.531 144.243 221.008 144.616C220.485 144.979 219.813 145.16 218.992 145.16Z" fill="#818D9D"/>
</svg>
