<svg width="367" height="55" viewBox="0 0 367 55" fill="none" xmlns="http://www.w3.org/2000/svg">
<rect width="367" height="55" rx="8" fill="url(#paint0_linear_1180_168)"/>
<path d="M93.496 32.334L100.408 20.4H102.334L105.088 32.802L103.45 33.18L102.694 29.58H96.862L94.864 33.144L93.496 32.334ZM97.672 28.14H102.388L101.11 22.074L97.672 28.14ZM107.682 23.64C108.93 23.64 109.554 24.18 109.554 25.26V25.638C109.902 24.99 110.352 24.462 110.904 24.054C111.456 23.634 112.098 23.424 112.83 23.424C113.478 23.424 114.042 23.592 114.522 23.928C115.002 24.252 115.368 24.708 115.62 25.296C115.884 25.872 116.016 26.544 116.016 27.312C116.016 28.2 115.884 29.01 115.62 29.742C115.368 30.462 115.02 31.086 114.576 31.614C114.132 32.13 113.634 32.526 113.082 32.802C112.53 33.078 111.96 33.216 111.372 33.216C110.796 33.216 110.256 33.072 109.752 32.784C109.26 32.496 108.876 32.142 108.6 31.722L107.682 36.96H106.062L107.934 26.25C107.97 26.046 107.988 25.878 107.988 25.746C107.988 25.182 107.694 24.9 107.106 24.9L107.682 23.64ZM111.228 31.776C111.792 31.776 112.308 31.596 112.776 31.236C113.256 30.864 113.64 30.354 113.928 29.706C114.216 29.058 114.36 28.314 114.36 27.474C114.36 26.658 114.174 26.016 113.802 25.548C113.43 25.068 112.944 24.828 112.344 24.828C111.864 24.828 111.402 24.978 110.958 25.278C110.526 25.578 110.154 25.998 109.842 26.538C109.53 27.078 109.308 27.714 109.176 28.446L108.852 30.264C109.116 30.744 109.458 31.116 109.878 31.38C110.298 31.644 110.748 31.776 111.228 31.776ZM118.422 23.64C119.67 23.64 120.294 24.18 120.294 25.26V25.638C120.642 24.99 121.092 24.462 121.644 24.054C122.196 23.634 122.838 23.424 123.57 23.424C124.218 23.424 124.782 23.592 125.262 23.928C125.742 24.252 126.108 24.708 126.36 25.296C126.624 25.872 126.756 26.544 126.756 27.312C126.756 28.2 126.624 29.01 126.36 29.742C126.108 30.462 125.76 31.086 125.316 31.614C124.872 32.13 124.374 32.526 123.822 32.802C123.27 33.078 122.7 33.216 122.112 33.216C121.536 33.216 120.996 33.072 120.492 32.784C120 32.496 119.616 32.142 119.34 31.722L118.422 36.96H116.802L118.674 26.25C118.71 26.046 118.728 25.878 118.728 25.746C118.728 25.182 118.434 24.9 117.846 24.9L118.422 23.64ZM121.968 31.776C122.532 31.776 123.048 31.596 123.516 31.236C123.996 30.864 124.38 30.354 124.668 29.706C124.956 29.058 125.1 28.314 125.1 27.474C125.1 26.658 124.914 26.016 124.542 25.548C124.17 25.068 123.684 24.828 123.084 24.828C122.604 24.828 122.142 24.978 121.698 25.278C121.266 25.578 120.894 25.998 120.582 26.538C120.27 27.078 120.048 27.714 119.916 28.446L119.592 30.264C119.856 30.744 120.198 31.116 120.618 31.38C121.038 31.644 121.488 31.776 121.968 31.776ZM130.132 29.76C130.108 29.916 130.09 30.06 130.078 30.192C130.066 30.312 130.06 30.42 130.06 30.516C130.06 30.924 130.18 31.242 130.42 31.47C130.672 31.698 131.002 31.812 131.41 31.812C131.614 31.812 131.818 31.788 132.022 31.74C132.226 31.692 132.412 31.626 132.58 31.542L132.742 32.856C132.526 32.964 132.274 33.048 131.986 33.108C131.698 33.18 131.386 33.216 131.05 33.216C130.33 33.216 129.712 33.012 129.196 32.604C128.692 32.184 128.44 31.554 128.44 30.714C128.44 30.402 128.464 30.096 128.512 29.796L130.276 19.68H131.896L130.132 29.76ZM136.915 31.56C137.371 31.56 137.815 31.416 138.247 31.128C138.691 30.84 139.081 30.426 139.417 29.886C139.753 29.334 139.987 28.668 140.119 27.888L140.857 23.64H142.477L140.839 33.108C140.695 33.936 140.473 34.614 140.173 35.142C139.885 35.67 139.543 36.078 139.147 36.366C138.763 36.666 138.355 36.876 137.923 36.996C137.491 37.116 137.065 37.176 136.645 37.176C135.829 37.176 135.133 37.008 134.557 36.672C133.993 36.336 133.531 35.946 133.171 35.502L134.431 34.566C135.019 35.37 135.793 35.772 136.753 35.772C137.353 35.772 137.881 35.55 138.337 35.106C138.793 34.662 139.117 33.906 139.309 32.838L139.651 30.93C139.291 31.506 138.835 31.998 138.283 32.406C137.731 32.802 137.095 33 136.375 33C135.907 33 135.475 32.898 135.079 32.694C134.683 32.478 134.365 32.172 134.125 31.776C133.885 31.38 133.765 30.912 133.765 30.372C133.765 30.24 133.765 30.09 133.765 29.922C133.777 29.754 133.801 29.574 133.837 29.382L134.809 23.64H136.429L135.439 29.346C135.403 29.562 135.385 29.766 135.385 29.958C135.385 30.498 135.535 30.9 135.835 31.164C136.147 31.428 136.507 31.56 136.915 31.56ZM152.564 22.488L150.728 33H149.108L151.322 20.4H153.59L157.28 30.984L159.152 20.4H160.772L158.558 33H156.326L152.564 22.488ZM165.994 33.216C165.106 33.216 164.338 33.036 163.69 32.676C163.042 32.316 162.538 31.818 162.178 31.182C161.83 30.534 161.656 29.802 161.656 28.986C161.656 27.942 161.866 27 162.286 26.16C162.718 25.32 163.318 24.654 164.086 24.162C164.854 23.67 165.76 23.424 166.804 23.424C167.692 23.424 168.46 23.604 169.108 23.964C169.756 24.324 170.254 24.822 170.602 25.458C170.962 26.094 171.142 26.826 171.142 27.654C171.142 28.686 170.932 29.628 170.512 30.48C170.092 31.32 169.492 31.986 168.712 32.478C167.944 32.97 167.038 33.216 165.994 33.216ZM166.048 31.776C166.768 31.776 167.38 31.602 167.884 31.254C168.4 30.894 168.796 30.414 169.072 29.814C169.348 29.214 169.486 28.542 169.486 27.798C169.486 27.246 169.378 26.754 169.162 26.322C168.946 25.878 168.634 25.524 168.226 25.26C167.818 24.996 167.326 24.864 166.75 24.864C166.042 24.864 165.43 25.044 164.914 25.404C164.398 25.752 164.002 26.226 163.726 26.826C163.45 27.426 163.312 28.098 163.312 28.842C163.312 29.382 163.42 29.874 163.636 30.318C163.852 30.762 164.164 31.116 164.572 31.38C164.98 31.644 165.472 31.776 166.048 31.776ZM173.877 33L172.473 23.766L174.039 23.55L175.101 31.2L178.503 24.306H180.213L181.149 31.2L184.929 23.55L186.261 24.234L181.779 33H179.997L179.061 26.124L175.659 33H173.877ZM194.124 20.4H201.504L201.252 21.876H195.564L194.898 25.728H199.614L199.362 27.132H194.646L193.62 33H191.91L194.124 20.4ZM204.824 33.216C203.936 33.216 203.168 33.036 202.52 32.676C201.872 32.316 201.368 31.818 201.008 31.182C200.66 30.534 200.486 29.802 200.486 28.986C200.486 27.942 200.696 27 201.116 26.16C201.548 25.32 202.148 24.654 202.916 24.162C203.684 23.67 204.59 23.424 205.634 23.424C206.522 23.424 207.29 23.604 207.938 23.964C208.586 24.324 209.084 24.822 209.432 25.458C209.792 26.094 209.972 26.826 209.972 27.654C209.972 28.686 209.762 29.628 209.342 30.48C208.922 31.32 208.322 31.986 207.542 32.478C206.774 32.97 205.868 33.216 204.824 33.216ZM204.878 31.776C205.598 31.776 206.21 31.602 206.714 31.254C207.23 30.894 207.626 30.414 207.902 29.814C208.178 29.214 208.316 28.542 208.316 27.798C208.316 27.246 208.208 26.754 207.992 26.322C207.776 25.878 207.464 25.524 207.056 25.26C206.648 24.996 206.156 24.864 205.58 24.864C204.872 24.864 204.26 25.044 203.744 25.404C203.228 25.752 202.832 26.226 202.556 26.826C202.28 27.426 202.142 28.098 202.142 28.842C202.142 29.382 202.25 29.874 202.466 30.318C202.682 30.762 202.994 31.116 203.402 31.38C203.81 31.644 204.302 31.776 204.878 31.776ZM212.755 26.268C212.767 26.208 212.773 26.142 212.773 26.07C212.785 25.986 212.791 25.902 212.791 25.818C212.791 25.482 212.695 25.248 212.503 25.116C212.311 24.972 212.059 24.9 211.747 24.9L212.305 23.64C212.941 23.64 213.427 23.796 213.763 24.108C214.111 24.408 214.285 24.858 214.285 25.458V25.818C214.633 24.966 215.077 24.354 215.617 23.982C216.169 23.61 216.793 23.424 217.489 23.424C217.765 23.424 217.999 23.448 218.191 23.496C218.395 23.532 218.563 23.58 218.695 23.64L217.975 25.224C217.831 25.164 217.681 25.122 217.525 25.098C217.369 25.074 217.189 25.062 216.985 25.062C216.553 25.062 216.121 25.218 215.689 25.53C215.269 25.83 214.885 26.334 214.537 27.042C214.201 27.75 213.925 28.722 213.709 29.958L213.187 33H211.567L212.755 26.268ZM226.292 20.4H233.672L233.42 21.876H227.732L227.066 25.728H231.782L231.53 27.132H226.814L225.788 33H224.078L226.292 20.4ZM234.569 26.268C234.581 26.208 234.587 26.142 234.587 26.07C234.599 25.986 234.605 25.902 234.605 25.818C234.605 25.482 234.509 25.248 234.317 25.116C234.125 24.972 233.873 24.9 233.561 24.9L234.119 23.64C234.755 23.64 235.241 23.796 235.577 24.108C235.925 24.408 236.099 24.858 236.099 25.458V25.818C236.447 24.966 236.891 24.354 237.431 23.982C237.983 23.61 238.607 23.424 239.303 23.424C239.579 23.424 239.813 23.448 240.005 23.496C240.209 23.532 240.377 23.58 240.509 23.64L239.789 25.224C239.645 25.164 239.495 25.122 239.339 25.098C239.183 25.074 239.003 25.062 238.799 25.062C238.367 25.062 237.935 25.218 237.503 25.53C237.083 25.83 236.699 26.334 236.351 27.042C236.015 27.75 235.739 28.722 235.523 29.958L235.001 33H233.381L234.569 26.268ZM244.262 33.216C243.47 33.216 242.768 33.048 242.156 32.712C241.556 32.364 241.082 31.872 240.734 31.236C240.398 30.588 240.23 29.826 240.23 28.95C240.23 27.954 240.434 27.036 240.842 26.196C241.262 25.356 241.85 24.684 242.606 24.18C243.374 23.676 244.268 23.424 245.288 23.424C245.984 23.424 246.572 23.556 247.052 23.82C247.544 24.084 247.922 24.426 248.186 24.846C248.45 25.266 248.582 25.716 248.582 26.196C248.582 26.856 248.426 27.402 248.114 27.834C247.802 28.266 247.4 28.602 246.908 28.842C246.416 29.07 245.882 29.232 245.306 29.328C244.742 29.424 244.202 29.472 243.686 29.472C243.362 29.472 243.038 29.46 242.714 29.436C242.402 29.4 242.126 29.364 241.886 29.328C241.982 30.12 242.264 30.726 242.732 31.146C243.2 31.566 243.8 31.776 244.532 31.776C245.132 31.776 245.666 31.698 246.134 31.542C246.602 31.386 246.998 31.23 247.322 31.074L247.466 32.514C247.106 32.682 246.65 32.844 246.098 33C245.546 33.144 244.934 33.216 244.262 33.216ZM245.162 24.792C244.598 24.792 244.088 24.936 243.632 25.224C243.176 25.5 242.798 25.884 242.498 26.376C242.21 26.856 242.018 27.408 241.922 28.032C242.198 28.08 242.474 28.122 242.75 28.158C243.038 28.182 243.35 28.194 243.686 28.194C244.694 28.194 245.492 28.056 246.08 27.78C246.668 27.492 246.962 27.006 246.962 26.322C246.962 25.902 246.794 25.542 246.458 25.242C246.134 24.942 245.702 24.792 245.162 24.792ZM253.579 33.216C252.787 33.216 252.085 33.048 251.473 32.712C250.873 32.364 250.399 31.872 250.051 31.236C249.715 30.588 249.547 29.826 249.547 28.95C249.547 27.954 249.751 27.036 250.159 26.196C250.579 25.356 251.167 24.684 251.923 24.18C252.691 23.676 253.585 23.424 254.605 23.424C255.301 23.424 255.889 23.556 256.369 23.82C256.861 24.084 257.239 24.426 257.503 24.846C257.767 25.266 257.899 25.716 257.899 26.196C257.899 26.856 257.743 27.402 257.431 27.834C257.119 28.266 256.717 28.602 256.225 28.842C255.733 29.07 255.199 29.232 254.623 29.328C254.059 29.424 253.519 29.472 253.003 29.472C252.679 29.472 252.355 29.46 252.031 29.436C251.719 29.4 251.443 29.364 251.203 29.328C251.299 30.12 251.581 30.726 252.049 31.146C252.517 31.566 253.117 31.776 253.849 31.776C254.449 31.776 254.983 31.698 255.451 31.542C255.919 31.386 256.315 31.23 256.639 31.074L256.783 32.514C256.423 32.682 255.967 32.844 255.415 33C254.863 33.144 254.251 33.216 253.579 33.216ZM254.479 24.792C253.915 24.792 253.405 24.936 252.949 25.224C252.493 25.5 252.115 25.884 251.815 26.376C251.527 26.856 251.335 27.408 251.239 28.032C251.515 28.08 251.791 28.122 252.067 28.158C252.355 28.182 252.667 28.194 253.003 28.194C254.011 28.194 254.809 28.056 255.397 27.78C255.985 27.492 256.279 27.006 256.279 26.322C256.279 25.902 256.111 25.542 255.775 25.242C255.451 24.942 255.019 24.792 254.479 24.792Z" fill="white"/>
<g clip-path="url(#clip0_1180_168)">
<path d="M273.077 27.5002L268.539 22.9627L269.835 21.6665L275.669 27.5002L269.835 33.3338L268.539 32.0377L273.077 27.5002Z" fill="white"/>
</g>
<defs>
<linearGradient id="paint0_linear_1180_168" x1="367" y1="55" x2="119.674" y2="-146.726" gradientUnits="userSpaceOnUse">
<stop stop-color="#992FED"/>
<stop offset="1" stop-color="#2F80ED"/>
</linearGradient>
<clipPath id="clip0_1180_168">
<rect width="22" height="22" fill="white" transform="translate(261 16.5)"/>
</clipPath>
</defs>
</svg>
