<svg width="367" height="118" viewBox="0 0 367 118" fill="none" xmlns="http://www.w3.org/2000/svg">
<rect x="0.5" width="366" height="52" rx="8" fill="#FAFAFA"/>
<g clip-path="url(#clip0_1180_156)">
<path d="M20.5 30.1667C23.5517 30.1667 26.2208 31.4792 27.6725 33.4376L26.1375 34.1634C24.9558 32.7634 22.8725 31.8334 20.5 31.8334C18.1275 31.8334 16.0442 32.7634 14.8625 34.1634L13.3283 33.4367C14.78 31.4784 17.4483 30.1667 20.5 30.1667ZM20.5 17.6667C21.6051 17.6667 22.6649 18.1057 23.4463 18.8871C24.2277 19.6685 24.6667 20.7283 24.6667 21.8334V24.3334C24.6666 25.4071 24.2521 26.4394 23.5095 27.2149C22.7669 27.9904 21.7535 28.4493 20.6808 28.4959L20.5 28.5001C19.3949 28.5001 18.3351 28.0611 17.5537 27.2797C16.7723 26.4983 16.3333 25.4385 16.3333 24.3334V21.8334C16.3334 20.7597 16.748 19.7274 17.4906 18.9519C18.2332 18.1764 19.2465 17.7175 20.3192 17.6709L20.5 17.6667ZM20.5 19.3334C19.8623 19.3334 19.2487 19.577 18.7848 20.0145C18.3208 20.4519 18.0416 21.0502 18.0042 21.6867L18 21.8334V24.3334C17.9994 24.9842 18.2525 25.6095 18.7056 26.0766C19.1588 26.5437 19.7762 26.8157 20.4266 26.8347C21.0771 26.8538 21.7094 26.6186 22.1891 26.1789C22.6689 25.7392 22.9583 25.1298 22.9958 24.4801L23 24.3334V21.8334C23 21.1704 22.7366 20.5345 22.2678 20.0656C21.7989 19.5968 21.163 19.3334 20.5 19.3334Z" fill="#8393A9"/>
</g>
<path d="M45.012 32.272C44.4253 32.272 43.8493 32.192 43.284 32.032C42.7187 31.872 42.2547 31.6427 41.892 31.344C41.54 31.0453 41.364 30.704 41.364 30.32V28.608H41.652C41.8333 29.6747 42.1853 30.448 42.708 30.928C43.2307 31.3973 43.9507 31.632 44.868 31.632C45.444 31.632 45.9347 31.488 46.34 31.2C46.756 30.912 46.964 30.512 46.964 30C46.964 29.552 46.8253 29.1627 46.548 28.832C46.2707 28.5013 45.8227 28.1547 45.204 27.792L43.236 26.624C42.5533 26.2187 42.068 25.808 41.78 25.392C41.5027 24.976 41.364 24.4693 41.364 23.872C41.364 23.0507 41.6467 22.3947 42.212 21.904C42.788 21.4027 43.54 21.152 44.468 21.152C45.012 21.152 45.5507 21.232 46.084 21.392C46.6173 21.5413 47.0547 21.7653 47.396 22.064C47.748 22.352 47.924 22.688 47.924 23.072V24.784H47.636C47.4547 23.7173 47.108 22.9547 46.596 22.496C46.0947 22.0267 45.3853 21.792 44.468 21.792C43.9773 21.792 43.5453 21.9413 43.172 22.24C42.7987 22.5387 42.612 22.928 42.612 23.408C42.612 23.8453 42.7453 24.208 43.012 24.496C43.2893 24.784 43.748 25.12 44.388 25.504L46.356 26.672C47.0813 27.1093 47.5933 27.5147 47.892 27.888C48.1907 28.2613 48.34 28.736 48.34 29.312C48.34 30.208 48.0413 30.928 47.444 31.472C46.8467 32.0053 46.036 32.272 45.012 32.272ZM51.9753 32.16C51.6339 32.16 51.2873 32.0907 50.9353 31.952C50.5833 31.8027 50.2793 31.5627 50.0233 31.232C49.7779 30.9013 49.6553 30.464 49.6553 29.92C49.6553 29.1093 50.0286 28.5333 50.7753 28.192C51.5326 27.8507 52.5193 27.68 53.7352 27.68H54.2153C54.2153 26.6347 54.0713 25.92 53.7833 25.536C53.4953 25.152 53.0793 24.96 52.5353 24.96C52.0553 24.96 51.6713 25.0613 51.3832 25.264C51.0953 25.4667 50.8926 25.8187 50.7753 26.32H50.0553C50.0553 25.9573 50.0766 25.6747 50.1193 25.472C50.1619 25.2587 50.2739 25.0613 50.4553 24.88C50.6473 24.688 50.9619 24.5493 51.3993 24.464C51.8473 24.368 52.3326 24.32 52.8553 24.32C53.7193 24.32 54.4019 24.5547 54.9033 25.024C55.4046 25.4827 55.6553 26.368 55.6553 27.68V32H54.8553L54.2953 31.28H54.2153C54.0233 31.5253 53.7406 31.7333 53.3673 31.904C52.9939 32.0747 52.5299 32.16 51.9753 32.16ZM52.6953 31.44C53.0473 31.44 53.3406 31.3547 53.5753 31.184C53.8099 31.0133 54.0233 30.7787 54.2153 30.48V28.32H53.7352C52.9459 28.32 52.3219 28.4693 51.8633 28.768C51.4046 29.056 51.1753 29.44 51.1753 29.92C51.1753 30.4107 51.3193 30.7893 51.6073 31.056C51.9059 31.312 52.2686 31.44 52.6953 31.44ZM58.1264 26.4C58.1264 25.856 58.0517 25.456 57.9024 25.2C57.753 24.9333 57.4544 24.8 57.0064 24.8H56.6864V24.48H58.1264C58.521 24.48 58.8197 24.5333 59.0224 24.64C59.2357 24.7467 59.3904 24.9067 59.4864 25.12H59.5664C59.7904 24.896 60.0784 24.7093 60.4304 24.56C60.793 24.4 61.1984 24.32 61.6464 24.32C62.0944 24.32 62.4784 24.4053 62.7984 24.576C63.1184 24.736 63.3744 25.024 63.5664 25.44C63.8437 25.088 64.1957 24.816 64.6224 24.624C65.0597 24.4213 65.5077 24.32 65.9664 24.32C66.649 24.32 67.193 24.5333 67.5984 24.96C68.0037 25.3867 68.2064 26.1333 68.2064 27.2V32H66.7664V27.2C66.7664 26.432 66.6597 25.8827 66.4464 25.552C66.233 25.2107 65.913 25.04 65.4864 25.04C65.1877 25.04 64.873 25.152 64.5424 25.376C64.2117 25.5893 63.9664 25.824 63.8064 26.08C63.8597 26.24 63.8864 26.6133 63.8864 27.2V32H62.4464V27.2C62.4464 26.432 62.3397 25.8827 62.1264 25.552C61.913 25.2107 61.593 25.04 61.1664 25.04C60.601 25.04 60.0677 25.3227 59.5664 25.888V32H58.1264V26.4ZM70.7403 26.32C70.4843 25.7227 70.2389 25.3067 70.0043 25.072C69.7696 24.8267 69.4603 24.6933 69.0762 24.672V24.352C69.1296 24.352 69.2043 24.3467 69.3003 24.336C69.4069 24.3253 69.5136 24.32 69.6203 24.32C70.1856 24.32 70.6976 24.464 71.1562 24.752C71.6149 25.0293 72.0096 25.552 72.3403 26.32L73.7803 29.76L76.0203 24.48H76.8203L73.5403 32.16H73.2203L70.7403 26.32ZM78.3894 26.4C78.3894 25.856 78.3147 25.456 78.1654 25.2C78.016 24.9333 77.7174 24.8 77.2694 24.8H77.1094V24.48H78.3894C78.7947 24.48 79.0987 24.5387 79.3014 24.656C79.5147 24.7627 79.664 24.944 79.7494 25.2H79.8294C80.0214 24.9547 80.2774 24.7467 80.5974 24.576C80.928 24.4053 81.312 24.32 81.7494 24.32C82.176 24.32 82.496 24.4 82.7094 24.56C82.8907 24.6987 83.0774 24.9387 83.2694 25.28L82.6294 25.76C82.512 25.6 82.3414 25.4827 82.1174 25.408C81.8934 25.3227 81.6374 25.28 81.3494 25.28C81.0294 25.28 80.736 25.3547 80.4694 25.504C80.2027 25.6427 79.9894 25.8347 79.8294 26.08V32H78.3894V26.4ZM86.4128 32.16C86.0714 32.16 85.7248 32.0907 85.3728 31.952C85.0208 31.8027 84.7168 31.5627 84.4608 31.232C84.2154 30.9013 84.0928 30.464 84.0928 29.92C84.0928 29.1093 84.4661 28.5333 85.2128 28.192C85.9701 27.8507 86.9568 27.68 88.1727 27.68H88.6528C88.6528 26.6347 88.5088 25.92 88.2208 25.536C87.9328 25.152 87.5168 24.96 86.9728 24.96C86.4928 24.96 86.1088 25.0613 85.8207 25.264C85.5328 25.4667 85.3301 25.8187 85.2128 26.32H84.4928C84.4928 25.9573 84.5141 25.6747 84.5568 25.472C84.5994 25.2587 84.7114 25.0613 84.8928 24.88C85.0848 24.688 85.3994 24.5493 85.8368 24.464C86.2848 24.368 86.7701 24.32 87.2928 24.32C88.1568 24.32 88.8394 24.5547 89.3408 25.024C89.8421 25.4827 90.0928 26.368 90.0928 27.68V32H89.2928L88.7328 31.28H88.6528C88.4608 31.5253 88.1781 31.7333 87.8048 31.904C87.4314 32.0747 86.9674 32.16 86.4128 32.16ZM87.1328 31.44C87.4848 31.44 87.7781 31.3547 88.0128 31.184C88.2474 31.0133 88.4608 30.7787 88.6528 30.48V28.32H88.1727C87.3834 28.32 86.7594 28.4693 86.3008 28.768C85.8421 29.056 85.6128 29.44 85.6128 29.92C85.6128 30.4107 85.7568 30.7893 86.0448 31.056C86.3434 31.312 86.7061 31.44 87.1328 31.44ZM92.5639 26.4C92.5639 25.856 92.4892 25.456 92.3399 25.2C92.1905 24.9333 91.8919 24.8 91.4439 24.8H91.1239V24.48H92.5639C92.9585 24.48 93.2572 24.5333 93.4599 24.64C93.6732 24.7467 93.8279 24.9067 93.9239 25.12H94.0039C94.2279 24.896 94.5159 24.7093 94.8679 24.56C95.2305 24.4 95.6359 24.32 96.0839 24.32C96.8839 24.32 97.5345 24.5333 98.0359 24.96C98.5479 25.3867 98.8039 26.1333 98.8039 27.2V32H97.3639V27.2C97.3639 26.4533 97.1932 25.9093 96.8519 25.568C96.5212 25.216 96.1052 25.04 95.6039 25.04C95.0385 25.04 94.5052 25.3227 94.0039 25.888V32H92.5639V26.4ZM103.251 32.16C102.654 32.16 102.184 31.9893 101.843 31.648C101.502 31.3067 101.331 30.784 101.331 30.08V25.12H100.211V24.48H101.331V23.04L102.131 22.08H102.771V24.48H104.691V25.12H102.771V30.08C102.771 31.04 103.144 31.52 103.891 31.52C104.147 31.52 104.36 31.4933 104.531 31.44C104.712 31.3867 104.899 31.3067 105.091 31.2L105.251 31.52C105.006 31.7013 104.734 31.856 104.435 31.984C104.136 32.1013 103.742 32.16 103.251 32.16ZM113.793 32.272C113.207 32.272 112.631 32.192 112.065 32.032C111.5 31.872 111.036 31.6427 110.673 31.344C110.321 31.0453 110.145 30.704 110.145 30.32V28.608H110.433C110.615 29.6747 110.967 30.448 111.489 30.928C112.012 31.3973 112.732 31.632 113.649 31.632C114.225 31.632 114.716 31.488 115.121 31.2C115.537 30.912 115.745 30.512 115.745 30C115.745 29.552 115.607 29.1627 115.329 28.832C115.052 28.5013 114.604 28.1547 113.985 27.792L112.017 26.624C111.335 26.2187 110.849 25.808 110.561 25.392C110.284 24.976 110.145 24.4693 110.145 23.872C110.145 23.0507 110.428 22.3947 110.993 21.904C111.569 21.4027 112.321 21.152 113.249 21.152C113.793 21.152 114.332 21.232 114.865 21.392C115.399 21.5413 115.836 21.7653 116.177 22.064C116.529 22.352 116.705 22.688 116.705 23.072V24.784H116.417C116.236 23.7173 115.889 22.9547 115.377 22.496C114.876 22.0267 114.167 21.792 113.249 21.792C112.759 21.792 112.327 21.9413 111.953 22.24C111.58 22.5387 111.393 22.928 111.393 23.408C111.393 23.8453 111.527 24.208 111.793 24.496C112.071 24.784 112.529 25.12 113.169 25.504L115.137 26.672C115.863 27.1093 116.375 27.5147 116.673 27.888C116.972 28.2613 117.121 28.736 117.121 29.312C117.121 30.208 116.823 30.928 116.225 31.472C115.628 32.0053 114.817 32.272 113.793 32.272ZM120.757 32.16C120.415 32.16 120.069 32.0907 119.717 31.952C119.365 31.8027 119.061 31.5627 118.805 31.232C118.559 30.9013 118.437 30.464 118.437 29.92C118.437 29.1093 118.81 28.5333 119.557 28.192C120.314 27.8507 121.301 27.68 122.516 27.68H122.997C122.997 26.6347 122.853 25.92 122.565 25.536C122.277 25.152 121.861 24.96 121.317 24.96C120.837 24.96 120.453 25.0613 120.164 25.264C119.877 25.4667 119.674 25.8187 119.557 26.32H118.837C118.837 25.9573 118.858 25.6747 118.901 25.472C118.943 25.2587 119.055 25.0613 119.237 24.88C119.429 24.688 119.743 24.5493 120.181 24.464C120.629 24.368 121.114 24.32 121.637 24.32C122.501 24.32 123.183 24.5547 123.685 25.024C124.186 25.4827 124.437 26.368 124.437 27.68V32H123.637L123.077 31.28H122.997C122.805 31.5253 122.522 31.7333 122.149 31.904C121.775 32.0747 121.311 32.16 120.757 32.16ZM121.477 31.44C121.829 31.44 122.122 31.3547 122.357 31.184C122.591 31.0133 122.805 30.7787 122.997 30.48V28.32H122.516C121.727 28.32 121.103 28.4693 120.645 28.768C120.186 29.056 119.957 29.44 119.957 29.92C119.957 30.4107 120.101 30.7893 120.389 31.056C120.687 31.312 121.05 31.44 121.477 31.44ZM126.908 26.4C126.908 25.856 126.833 25.456 126.684 25.2C126.534 24.9333 126.236 24.8 125.788 24.8H125.468V24.48H126.908C127.302 24.48 127.601 24.5333 127.804 24.64C128.017 24.7467 128.172 24.9067 128.268 25.12H128.348C128.572 24.896 128.86 24.7093 129.212 24.56C129.574 24.4 129.98 24.32 130.428 24.32C130.876 24.32 131.26 24.4053 131.58 24.576C131.9 24.736 132.156 25.024 132.348 25.44C132.625 25.088 132.977 24.816 133.404 24.624C133.841 24.4213 134.289 24.32 134.748 24.32C135.43 24.32 135.974 24.5333 136.38 24.96C136.785 25.3867 136.988 26.1333 136.988 27.2V32H135.548V27.2C135.548 26.432 135.441 25.8827 135.228 25.552C135.014 25.2107 134.694 25.04 134.268 25.04C133.969 25.04 133.654 25.152 133.324 25.376C132.993 25.5893 132.748 25.824 132.588 26.08C132.641 26.24 132.668 26.6133 132.668 27.2V32H131.228V27.2C131.228 26.432 131.121 25.8827 130.908 25.552C130.694 25.2107 130.374 25.04 129.948 25.04C129.382 25.04 128.849 25.3227 128.348 25.888V32H126.908V26.4ZM141.022 32.16C140.681 32.16 140.334 32.0907 139.982 31.952C139.63 31.8027 139.326 31.5627 139.07 31.232C138.825 30.9013 138.702 30.464 138.702 29.92C138.702 29.1093 139.075 28.5333 139.822 28.192C140.579 27.8507 141.566 27.68 142.782 27.68H143.262C143.262 26.6347 143.118 25.92 142.83 25.536C142.542 25.152 142.126 24.96 141.582 24.96C141.102 24.96 140.718 25.0613 140.43 25.264C140.142 25.4667 139.939 25.8187 139.822 26.32H139.102C139.102 25.9573 139.123 25.6747 139.166 25.472C139.209 25.2587 139.321 25.0613 139.502 24.88C139.694 24.688 140.009 24.5493 140.446 24.464C140.894 24.368 141.379 24.32 141.902 24.32C142.766 24.32 143.449 24.5547 143.95 25.024C144.451 25.4827 144.702 26.368 144.702 27.68V32H143.902L143.342 31.28H143.262C143.07 31.5253 142.787 31.7333 142.414 31.904C142.041 32.0747 141.577 32.16 141.022 32.16ZM141.742 31.44C142.094 31.44 142.387 31.3547 142.622 31.184C142.857 31.0133 143.07 30.7787 143.262 30.48V28.32H142.782C141.993 28.32 141.369 28.4693 140.91 28.768C140.451 29.056 140.222 29.44 140.222 29.92C140.222 30.4107 140.366 30.7893 140.654 31.056C140.953 31.312 141.315 31.44 141.742 31.44ZM147.173 26.4C147.173 25.856 147.099 25.456 146.949 25.2C146.8 24.9333 146.501 24.8 146.053 24.8H145.733V24.48H147.173C147.568 24.48 147.867 24.5333 148.069 24.64C148.283 24.7467 148.437 24.9067 148.533 25.12H148.613C148.837 24.896 149.125 24.7093 149.477 24.56C149.84 24.4 150.245 24.32 150.693 24.32C151.493 24.32 152.144 24.5333 152.645 24.96C153.157 25.3867 153.413 26.1333 153.413 27.2V32H151.973V27.2C151.973 26.4533 151.803 25.9093 151.461 25.568C151.131 25.216 150.715 25.04 150.213 25.04C149.648 25.04 149.115 25.3227 148.613 25.888V32H147.173V26.4ZM157.86 32.16C157.263 32.16 156.794 31.9893 156.452 31.648C156.111 31.3067 155.94 30.784 155.94 30.08V25.12H154.82V24.48H155.94V23.04L156.74 22.08H157.38V24.48H159.3V25.12H157.38V30.08C157.38 31.04 157.754 31.52 158.5 31.52C158.756 31.52 158.97 31.4933 159.14 31.44C159.322 31.3867 159.508 31.3067 159.7 31.2L159.86 31.52C159.615 31.7013 159.343 31.856 159.044 31.984C158.746 32.1013 158.351 32.16 157.86 32.16ZM162.835 32.16C162.493 32.16 162.147 32.0907 161.795 31.952C161.443 31.8027 161.139 31.5627 160.883 31.232C160.637 30.9013 160.515 30.464 160.515 29.92C160.515 29.1093 160.888 28.5333 161.635 28.192C162.392 27.8507 163.379 27.68 164.595 27.68H165.075C165.075 26.6347 164.931 25.92 164.643 25.536C164.355 25.152 163.939 24.96 163.395 24.96C162.915 24.96 162.531 25.0613 162.243 25.264C161.955 25.4667 161.752 25.8187 161.635 26.32H160.915C160.915 25.9573 160.936 25.6747 160.979 25.472C161.021 25.2587 161.133 25.0613 161.315 24.88C161.507 24.688 161.821 24.5493 162.259 24.464C162.707 24.368 163.192 24.32 163.715 24.32C164.579 24.32 165.261 24.5547 165.763 25.024C166.264 25.4827 166.515 26.368 166.515 27.68V32H165.715L165.155 31.28H165.075C164.883 31.5253 164.6 31.7333 164.227 31.904C163.853 32.0747 163.389 32.16 162.835 32.16ZM163.555 31.44C163.907 31.44 164.2 31.3547 164.435 31.184C164.669 31.0133 164.883 30.7787 165.075 30.48V28.32H164.595C163.805 28.32 163.181 28.4693 162.723 28.768C162.264 29.056 162.035 29.44 162.035 29.92C162.035 30.4107 162.179 30.7893 162.467 31.056C162.765 31.312 163.128 31.44 163.555 31.44ZM168.874 26.4C168.874 25.856 168.799 25.456 168.65 25.2C168.5 24.9333 168.202 24.8 167.754 24.8H167.594V24.48H168.874C169.279 24.48 169.583 24.5387 169.786 24.656C169.999 24.7627 170.148 24.944 170.234 25.2H170.314C170.506 24.9547 170.762 24.7467 171.082 24.576C171.412 24.4053 171.796 24.32 172.234 24.32C172.66 24.32 172.98 24.4 173.194 24.56C173.375 24.6987 173.562 24.9387 173.754 25.28L173.114 25.76C172.996 25.6 172.826 25.4827 172.602 25.408C172.378 25.3227 172.122 25.28 171.834 25.28C171.514 25.28 171.22 25.3547 170.954 25.504C170.687 25.6427 170.474 25.8347 170.314 26.08V32H168.874V26.4ZM176.897 32.16C176.556 32.16 176.209 32.0907 175.857 31.952C175.505 31.8027 175.201 31.5627 174.945 31.232C174.7 30.9013 174.577 30.464 174.577 29.92C174.577 29.1093 174.95 28.5333 175.697 28.192C176.454 27.8507 177.441 27.68 178.657 27.68H179.137C179.137 26.6347 178.993 25.92 178.705 25.536C178.417 25.152 178.001 24.96 177.457 24.96C176.977 24.96 176.593 25.0613 176.305 25.264C176.017 25.4667 175.814 25.8187 175.697 26.32H174.977C174.977 25.9573 174.998 25.6747 175.041 25.472C175.084 25.2587 175.196 25.0613 175.377 24.88C175.569 24.688 175.884 24.5493 176.321 24.464C176.769 24.368 177.254 24.32 177.777 24.32C178.641 24.32 179.324 24.5547 179.825 25.024C180.326 25.4827 180.577 26.368 180.577 27.68V32H179.777L179.217 31.28H179.137C178.945 31.5253 178.662 31.7333 178.289 31.904C177.916 32.0747 177.452 32.16 176.897 32.16ZM177.617 31.44C177.969 31.44 178.262 31.3547 178.497 31.184C178.732 31.0133 178.945 30.7787 179.137 30.48V28.32H178.657C177.868 28.32 177.244 28.4693 176.785 28.768C176.326 29.056 176.097 29.44 176.097 29.92C176.097 30.4107 176.241 30.7893 176.529 31.056C176.828 31.312 177.19 31.44 177.617 31.44ZM183.18 34.72C183.703 34.72 184.129 34.5973 184.46 34.352C184.801 34.1173 185.095 33.68 185.34 33.04L185.66 32.16L183.1 25.92C182.801 25.152 182.215 24.7253 181.34 24.64V24.32H182.7C183.628 24.32 184.268 24.7467 184.62 25.6L186.444 30.032L188.46 24.48H189.26L186.14 33.04C185.831 33.8827 185.489 34.4533 185.116 34.752C184.743 35.0507 184.257 35.2 183.66 35.2H183.18V34.72Z" fill="#2B2F34"/>
<rect x="0.5" y="66" width="366" height="52" rx="8" fill="#FAFAFA"/>
<g clip-path="url(#clip1_1180_156)">
<path d="M18.305 90.9017C19.0869 92.2754 20.2246 93.4131 21.5983 94.195L22.335 93.1633C22.4535 92.9974 22.6286 92.8807 22.8273 92.8353C23.026 92.7898 23.2345 92.8188 23.4133 92.9167C24.5919 93.5608 25.8935 93.9481 27.2325 94.0533C27.4415 94.0699 27.6365 94.1646 27.7788 94.3186C27.921 94.4726 28 94.6745 28 94.8842V98.6025C28 98.8088 27.9235 99.0078 27.7853 99.161C27.6471 99.3142 27.4569 99.4106 27.2517 99.4317C26.81 99.4775 26.365 99.5 25.9167 99.5C18.7833 99.5 13 93.7167 13 86.5833C13 86.135 13.0225 85.69 13.0683 85.2483C13.0894 85.0431 13.1858 84.8529 13.339 84.7147C13.4922 84.5765 13.6912 84.5 13.8975 84.5H17.6158C17.8255 84.5 18.0274 84.579 18.1814 84.7212C18.3354 84.8635 18.4301 85.0585 18.4467 85.2675C18.5519 86.6065 18.9392 87.9081 19.5833 89.0867C19.6812 89.2655 19.7102 89.474 19.6647 89.6727C19.6193 89.8714 19.5026 90.0465 19.3367 90.165L18.305 90.9017ZM16.2033 90.3542L17.7867 89.2233C17.3373 88.2534 17.0295 87.224 16.8725 86.1667H14.675C14.67 86.305 14.6675 86.4442 14.6675 86.5833C14.6667 92.7967 19.7033 97.8333 25.9167 97.8333C26.0558 97.8333 26.195 97.8308 26.3333 97.825V95.6275C25.276 95.4705 24.2466 95.1627 23.2767 94.7133L22.1458 96.2967C21.6906 96.1198 21.2483 95.9109 20.8225 95.6717L20.7742 95.6442C19.1396 94.7139 17.7861 93.3604 16.8558 91.7258L16.8283 91.6775C16.5891 91.2517 16.3802 90.8094 16.2033 90.3542Z" fill="#8393A9"/>
</g>
<path d="M42.196 89.36C42.196 88.816 42.1213 88.416 41.972 88.16C41.8227 87.8933 41.524 87.76 41.076 87.76H40.756V87.44H44.916C45.94 87.44 46.8627 87.6587 47.684 88.096C48.5053 88.5333 48.916 89.3813 48.916 90.64C48.916 91.472 48.7027 92.112 48.276 92.56C47.8493 93.008 47.3693 93.3067 46.836 93.456C46.3133 93.6053 45.8333 93.68 45.396 93.68H43.636V98H42.196V89.36ZM44.836 93.12C45.1773 93.12 45.54 93.0347 45.924 92.864C46.308 92.6827 46.6333 92.4 46.9 92.016C47.1773 91.632 47.316 91.1467 47.316 90.56C47.316 89.9733 47.1773 89.488 46.9 89.104C46.6333 88.72 46.308 88.4427 45.924 88.272C45.54 88.0907 45.1773 88 44.836 88C44.4627 88 44.0627 88.0533 43.636 88.16V92.96C44.0627 93.0667 44.4627 93.12 44.836 93.12ZM50.4801 89.36C50.4801 88.816 50.4055 88.416 50.2561 88.16C50.1068 87.8933 49.8081 87.76 49.3601 87.76H49.0401V87.44H50.4801C50.8748 87.44 51.1681 87.4933 51.3601 87.6C51.5628 87.696 51.7068 87.8773 51.7921 88.144C51.8775 88.4107 51.9201 88.816 51.9201 89.36V91.12C52.1441 90.896 52.4321 90.7093 52.7841 90.56C53.1468 90.4 53.5521 90.32 54.0001 90.32C54.8001 90.32 55.4508 90.5333 55.9521 90.96C56.4641 91.3867 56.7201 92.1333 56.7201 93.2V98H55.2801V93.2C55.2801 92.4533 55.1095 91.9093 54.7681 91.568C54.4375 91.216 54.0215 91.04 53.5201 91.04C52.9548 91.04 52.4215 91.3227 51.9201 91.888V98H50.4801V89.36ZM62.0369 98.16C61.3115 98.16 60.6822 97.9893 60.1489 97.648C59.6155 97.296 59.2102 96.8213 58.9329 96.224C58.6555 95.6267 58.5169 94.9653 58.5169 94.24C58.5169 93.5147 58.6555 92.8533 58.9329 92.256C59.2102 91.6587 59.6155 91.1893 60.1489 90.848C60.6822 90.496 61.3115 90.32 62.0369 90.32C62.7622 90.32 63.3915 90.496 63.9249 90.848C64.4582 91.1893 64.8635 91.6587 65.1409 92.256C65.4182 92.8533 65.5569 93.5147 65.5569 94.24C65.5569 94.9653 65.4182 95.6267 65.1409 96.224C64.8635 96.8213 64.4582 97.296 63.9249 97.648C63.3915 97.9893 62.7622 98.16 62.0369 98.16ZM62.0369 97.52C62.4315 97.52 62.7782 97.376 63.0769 97.088C63.3862 96.8 63.6209 96.4053 63.7809 95.904C63.9515 95.4027 64.0369 94.848 64.0369 94.24C64.0369 93.632 63.9515 93.0773 63.7809 92.576C63.6209 92.0747 63.3862 91.68 63.0769 91.392C62.7782 91.104 62.4315 90.96 62.0369 90.96C61.6422 90.96 61.2902 91.104 60.9809 91.392C60.6822 91.68 60.4475 92.0747 60.2769 92.576C60.1169 93.0773 60.0369 93.632 60.0369 94.24C60.0369 94.848 60.1169 95.4027 60.2769 95.904C60.4475 96.4053 60.6822 96.8 60.9809 97.088C61.2902 97.376 61.6422 97.52 62.0369 97.52ZM67.6733 92.4C67.6733 91.856 67.5986 91.456 67.4493 91.2C67.2999 90.9333 67.0013 90.8 66.5533 90.8H66.2332V90.48H67.6733C68.0679 90.48 68.3666 90.5333 68.5693 90.64C68.7826 90.7467 68.9373 90.9067 69.0333 91.12H69.1133C69.3373 90.896 69.6253 90.7093 69.9773 90.56C70.3399 90.4 70.7453 90.32 71.1933 90.32C71.9933 90.32 72.6439 90.5333 73.1453 90.96C73.6573 91.3867 73.9133 92.1333 73.9133 93.2V98H72.4733V93.2C72.4733 92.4533 72.3026 91.9093 71.9613 91.568C71.6306 91.216 71.2146 91.04 70.7133 91.04C70.1479 91.04 69.6146 91.3227 69.1133 91.888V98H67.6733V92.4ZM79.0644 98.16C78.339 98.16 77.7257 97.9893 77.2244 97.648C76.723 97.296 76.3444 96.8267 76.0884 96.24C75.8324 95.6427 75.7044 94.976 75.7044 94.24C75.7044 93.5147 75.8324 92.8533 76.0884 92.256C76.3444 91.6587 76.7124 91.1893 77.1924 90.848C77.683 90.496 78.2537 90.32 78.9044 90.32C79.9817 90.32 80.7817 90.624 81.3044 91.232C81.8377 91.8293 82.1044 92.6987 82.1044 93.84L82.0724 94.48H77.2244C77.2244 95.376 77.4164 96.1067 77.8004 96.672C78.1844 97.2373 78.7124 97.52 79.3844 97.52C79.8857 97.52 80.307 97.4133 80.6484 97.2C81.0004 96.9867 81.3257 96.6667 81.6244 96.24L81.9444 96.48C81.5924 97.0667 81.1817 97.4933 80.7124 97.76C80.243 98.0267 79.6937 98.16 79.0644 98.16ZM80.5844 93.84C80.5844 92.9013 80.4457 92.1867 80.1684 91.696C79.891 91.2053 79.4697 90.96 78.9044 90.96C78.5844 90.96 78.2964 91.088 78.0404 91.344C77.7844 91.5893 77.5817 91.9307 77.4324 92.368C77.2937 92.8053 77.2244 93.296 77.2244 93.84H80.5844ZM88.1889 92.4C88.1889 91.856 88.1142 91.456 87.9649 91.2C87.8155 90.9333 87.5169 90.8 87.0689 90.8H86.7489V90.48H88.1889C88.5835 90.48 88.8822 90.5333 89.0849 90.64C89.2982 90.7467 89.4529 90.9067 89.5489 91.12H89.6289C89.8529 90.896 90.1409 90.7093 90.4929 90.56C90.8555 90.4 91.2609 90.32 91.7089 90.32C92.5089 90.32 93.1595 90.5333 93.6609 90.96C94.1729 91.3867 94.4289 92.1333 94.4289 93.2V98H92.9889V93.2C92.9889 92.4533 92.8182 91.9093 92.4769 91.568C92.1462 91.216 91.7302 91.04 91.2289 91.04C90.6635 91.04 90.1302 91.3227 89.6289 91.888V98H88.1889V92.4ZM99.388 98.16C98.588 98.16 97.932 97.9467 97.42 97.52C96.9187 97.0933 96.668 96.3467 96.668 95.28V92.4C96.668 91.856 96.5933 91.456 96.444 91.2C96.2947 90.9333 95.996 90.8 95.548 90.8H95.388V90.48H96.668C97.0627 90.48 97.356 90.5333 97.548 90.64C97.7507 90.736 97.8947 90.9173 97.98 91.184C98.0653 91.4507 98.108 91.856 98.108 92.4V95.28C98.108 96.0267 98.2733 96.576 98.604 96.928C98.9453 97.2693 99.3667 97.44 99.868 97.44C100.433 97.44 100.967 97.1573 101.468 96.592V90.48H102.908V98H102.108L101.548 97.36H101.468C101.244 97.584 100.951 97.776 100.588 97.936C100.236 98.0853 99.836 98.16 99.388 98.16ZM105.455 92.4C105.455 91.856 105.38 91.456 105.231 91.2C105.081 90.9333 104.783 90.8 104.335 90.8H104.014V90.48H105.455C105.849 90.48 106.148 90.5333 106.351 90.64C106.564 90.7467 106.719 90.9067 106.815 91.12H106.895C107.119 90.896 107.407 90.7093 107.759 90.56C108.121 90.4 108.527 90.32 108.975 90.32C109.423 90.32 109.807 90.4053 110.127 90.576C110.447 90.736 110.703 91.024 110.895 91.44C111.172 91.088 111.524 90.816 111.951 90.624C112.388 90.4213 112.836 90.32 113.295 90.32C113.977 90.32 114.521 90.5333 114.927 90.96C115.332 91.3867 115.535 92.1333 115.535 93.2V98H114.095V93.2C114.095 92.432 113.988 91.8827 113.775 91.552C113.561 91.2107 113.241 91.04 112.815 91.04C112.516 91.04 112.201 91.152 111.871 91.376C111.54 91.5893 111.295 91.824 111.135 92.08C111.188 92.24 111.215 92.6133 111.215 93.2V98H109.775V93.2C109.775 92.432 109.668 91.8827 109.455 91.552C109.241 91.2107 108.921 91.04 108.495 91.04C107.929 91.04 107.396 91.3227 106.895 91.888V98H105.455V92.4ZM121.377 98.16C120.833 98.16 120.385 98.0747 120.033 97.904C119.681 97.7333 119.409 97.5253 119.217 97.28H119.137L118.577 98H117.777V89.36C117.777 88.816 117.702 88.416 117.553 88.16C117.404 87.8933 117.105 87.76 116.657 87.76H116.337V87.44H117.777C118.172 87.44 118.465 87.4933 118.657 87.6C118.86 87.696 119.004 87.8773 119.089 88.144C119.174 88.4107 119.217 88.816 119.217 89.36V90.8C119.526 90.6507 119.836 90.5333 120.145 90.448C120.454 90.3627 120.812 90.32 121.217 90.32C122.209 90.32 122.961 90.688 123.473 91.424C123.996 92.16 124.257 93.0987 124.257 94.24C124.257 95.3707 124.006 96.3093 123.505 97.056C123.004 97.792 122.294 98.16 121.377 98.16ZM120.897 97.52C121.505 97.52 121.964 97.2213 122.273 96.624C122.582 96.016 122.737 95.2213 122.737 94.24C122.737 93.248 122.572 92.4533 122.241 91.856C121.921 91.2587 121.42 90.96 120.737 90.96C120.513 90.96 120.284 91.0027 120.049 91.088C119.814 91.1733 119.537 91.2907 119.217 91.44V96.56C119.409 96.848 119.633 97.0827 119.889 97.264C120.156 97.4347 120.492 97.52 120.897 97.52ZM129.08 98.16C128.355 98.16 127.741 97.9893 127.24 97.648C126.739 97.296 126.36 96.8267 126.104 96.24C125.848 95.6427 125.72 94.976 125.72 94.24C125.72 93.5147 125.848 92.8533 126.104 92.256C126.36 91.6587 126.728 91.1893 127.208 90.848C127.699 90.496 128.269 90.32 128.92 90.32C129.997 90.32 130.797 90.624 131.32 91.232C131.853 91.8293 132.12 92.6987 132.12 93.84L132.088 94.48H127.24C127.24 95.376 127.432 96.1067 127.816 96.672C128.2 97.2373 128.728 97.52 129.4 97.52C129.901 97.52 130.323 97.4133 130.664 97.2C131.016 96.9867 131.341 96.6667 131.64 96.24L131.96 96.48C131.608 97.0667 131.197 97.4933 130.728 97.76C130.259 98.0267 129.709 98.16 129.08 98.16ZM130.6 93.84C130.6 92.9013 130.461 92.1867 130.184 91.696C129.907 91.2053 129.485 90.96 128.92 90.96C128.6 90.96 128.312 91.088 128.056 91.344C127.8 91.5893 127.597 91.9307 127.448 92.368C127.309 92.8053 127.24 93.296 127.24 93.84H130.6ZM134.093 92.4C134.093 91.856 134.018 91.456 133.868 91.2C133.719 90.9333 133.421 90.8 132.973 90.8H132.812V90.48H134.093C134.498 90.48 134.802 90.5387 135.005 90.656C135.218 90.7627 135.367 90.944 135.453 91.2H135.533C135.725 90.9547 135.981 90.7467 136.301 90.576C136.631 90.4053 137.015 90.32 137.453 90.32C137.879 90.32 138.199 90.4 138.413 90.56C138.594 90.6987 138.781 90.9387 138.973 91.28L138.333 91.76C138.215 91.6 138.045 91.4827 137.821 91.408C137.597 91.3227 137.341 91.28 137.053 91.28C136.733 91.28 136.439 91.3547 136.173 91.504C135.906 91.6427 135.693 91.8347 135.533 92.08V98H134.093V92.4Z" fill="#8393A9"/>
<defs>
<clipPath id="clip0_1180_156">
<rect width="20" height="20" fill="white" transform="translate(10.5 16)"/>
</clipPath>
<clipPath id="clip1_1180_156">
<rect width="20" height="20" fill="white" transform="translate(10.5 82)"/>
</clipPath>
</defs>
</svg>
